solid OpenSCAD_Model
  facet normal 1 -0 0
    outer loop
      vertex 15 0 30
      vertex 15 4 0
      vertex 15 4 30
    endloop
  endfacet
  facet normal 1 0 0
    outer loop
      vertex 15 4 0
      vertex 15 0 30
      vertex 15 0 0
    endloop
  endfacet
  facet normal 0 0 1
    outer loop
      vertex 2 64 30
      vertex -2 64 30
      vertex 2 4 30
    endloop
  endfacet
  facet normal -0 0 1
    outer loop
      vertex 2 4 30
      vertex 15 0 30
      vertex 15 4 30
    endloop
  endfacet
  facet normal 0 0 1
    outer loop
      vertex -2 4 30
      vertex 2 4 30
      vertex -2 64 30
    endloop
  endfacet
  facet normal -0 0 1
    outer loop
      vertex -2 4 30
      vertex 15 0 30
      vertex 2 4 30
    endloop
  endfacet
  facet normal 0 0 1
    outer loop
      vertex -15 0 30
      vertex -2 4 30
      vertex -15 4 30
    endloop
  endfacet
  facet normal 0 0 1
    outer loop
      vertex -2 4 30
      vertex -15 0 30
      vertex 15 0 30
    endloop
  endfacet
  facet normal 0 0 -1
    outer loop
      vertex -15 0 0
      vertex 15 4 0
      vertex 15 0 0
    endloop
  endfacet
  facet normal -0 0 -1
    outer loop
      vertex 15 4 0
      vertex -15 0 0
      vertex -15 4 0
    endloop
  endfacet
  facet normal -1 0 0
    outer loop
      vertex -15 0 0
      vertex -15 4 30
      vertex -15 4 0
    endloop
  endfacet
  facet normal -1 -0 0
    outer loop
      vertex -15 4 30
      vertex -15 0 0
      vertex -15 0 30
    endloop
  endfacet
  facet normal 0 1 0
    outer loop
      vertex 15 4 30
      vertex 2 4 26
      vertex 2 4 30
    endloop
  endfacet
  facet normal 0 1 0
    outer loop
      vertex 2 4 26
      vertex 15 4 0
      vertex -2 4 26
    endloop
  endfacet
  facet normal 0 1 -0
    outer loop
      vertex 15 4 0
      vertex 2 4 26
      vertex 15 4 30
    endloop
  endfacet
  facet normal 0 1 -0
    outer loop
      vertex -2 4 26
      vertex -15 4 30
      vertex -2 4 30
    endloop
  endfacet
  facet normal 0 1 0
    outer loop
      vertex -15 4 0
      vertex -2 4 26
      vertex 15 4 0
    endloop
  endfacet
  facet normal 0 1 0
    outer loop
      vertex -2 4 26
      vertex -15 4 0
      vertex -15 4 30
    endloop
  endfacet
  facet normal 0 -1 0
    outer loop
      vertex -15 0 0
      vertex 15 0 30
      vertex -15 0 30
    endloop
  endfacet
  facet normal 0 -1 -0
    outer loop
      vertex 15 0 30
      vertex -15 0 0
      vertex 15 0 0
    endloop
  endfacet
  facet normal 1 -0 0
    outer loop
      vertex 2 4 30
      vertex 2 64 26
      vertex 2 64 30
    endloop
  endfacet
  facet normal 1 0 0
    outer loop
      vertex 2 64 26
      vertex 2 4 30
      vertex 2 4 26
    endloop
  endfacet
  facet normal 0 0 -1
    outer loop
      vertex -2 4 26
      vertex 2 64 26
      vertex 2 4 26
    endloop
  endfacet
  facet normal -0 0 -1
    outer loop
      vertex 2 64 26
      vertex -2 4 26
      vertex -2 64 26
    endloop
  endfacet
  facet normal -1 0 0
    outer loop
      vertex -2 4 26
      vertex -2 64 30
      vertex -2 64 26
    endloop
  endfacet
  facet normal -1 -0 0
    outer loop
      vertex -2 64 30
      vertex -2 4 26
      vertex -2 4 30
    endloop
  endfacet
  facet normal 0 1 -0
    outer loop
      vertex 2 64 26
      vertex -2 64 30
      vertex 2 64 30
    endloop
  endfacet
  facet normal 0 1 0
    outer loop
      vertex -2 64 30
      vertex 2 64 26
      vertex -2 64 26
    endloop
  endfacet
endsolid OpenSCAD_Model
