solid OpenSCAD_Model
  facet normal 1 -0 0
    outer loop
      vertex 10 -10 3
      vertex 10 10 0
      vertex 10 10 3
    endloop
  endfacet
  facet normal 1 0 0
    outer loop
      vertex 10 10 0
      vertex 10 -10 3
      vertex 10 -10 0
    endloop
  endfacet
  facet normal 0 0 1
    outer loop
      vertex 10 10 3
      vertex 2 2 3
      vertex 10 -10 3
    endloop
  endfacet
  facet normal 0 0 1
    outer loop
      vertex 10 10 3
      vertex -2 2 3
      vertex 2 2 3
    endloop
  endfacet
  facet normal 0 0 1
    outer loop
      vertex -2 2 3
      vertex -10 10 3
      vertex -2 -2 3
    endloop
  endfacet
  facet normal -0 0 1
    outer loop
      vertex -10 10 3
      vertex -2 2 3
      vertex 10 10 3
    endloop
  endfacet
  facet normal -0 0 1
    outer loop
      vertex 2 -2 3
      vertex 10 -10 3
      vertex 2 2 3
    endloop
  endfacet
  facet normal -0 0 1
    outer loop
      vertex -2 -2 3
      vertex 10 -10 3
      vertex 2 -2 3
    endloop
  endfacet
  facet normal 0 0 1
    outer loop
      vertex -2 -2 3
      vertex -10 -10 3
      vertex 10 -10 3
    endloop
  endfacet
  facet normal 0 0 1
    outer loop
      vertex -10 -10 3
      vertex -2 -2 3
      vertex -10 10 3
    endloop
  endfacet
  facet normal 0 0 -1
    outer loop
      vertex -10 -10 0
      vertex 10 10 0
      vertex 10 -10 0
    endloop
  endfacet
  facet normal -0 0 -1
    outer loop
      vertex 10 10 0
      vertex -10 -10 0
      vertex -10 10 0
    endloop
  endfacet
  facet normal -1 0 0
    outer loop
      vertex -10 -10 0
      vertex -10 10 3
      vertex -10 10 0
    endloop
  endfacet
  facet normal -1 -0 0
    outer loop
      vertex -10 10 3
      vertex -10 -10 0
      vertex -10 -10 3
    endloop
  endfacet
  facet normal 0 1 -0
    outer loop
      vertex 10 10 0
      vertex -10 10 3
      vertex 10 10 3
    endloop
  endfacet
  facet normal 0 1 0
    outer loop
      vertex -10 10 3
      vertex 10 10 0
      vertex -10 10 0
    endloop
  endfacet
  facet normal 0 -1 0
    outer loop
      vertex -10 -10 0
      vertex 10 -10 3
      vertex -10 -10 3
    endloop
  endfacet
  facet normal 0 -1 -0
    outer loop
      vertex 10 -10 3
      vertex -10 -10 0
      vertex 10 -10 0
    endloop
  endfacet
  facet normal 1 -0 0
    outer loop
      vertex 2 -2 83
      vertex 2 2 3
      vertex 2 2 83
    endloop
  endfacet
  facet normal 1 0 0
    outer loop
      vertex 2 2 3
      vertex 2 -2 83
      vertex 2 -2 3
    endloop
  endfacet
  facet normal 0 0 -1
    outer loop
      vertex 30 -15 83
      vertex 2 -2 83
      vertex 30 15 83
    endloop
  endfacet
  facet normal 0 0 -1
    outer loop
      vertex 0 -15 83
      vertex 2 -2 83
      vertex 30 -15 83
    endloop
  endfacet
  facet normal -0 0 -1
    outer loop
      vertex 2 -2 83
      vertex 0 -15 83
      vertex 0 -2 83
    endloop
  endfacet
  facet normal 0 0 -1
    outer loop
      vertex 2 2 83
      vertex 30 15 83
      vertex 2 -2 83
    endloop
  endfacet
  facet normal 0 0 -1
    outer loop
      vertex 0 15 83
      vertex 2 2 83
      vertex 0 2 83
    endloop
  endfacet
  facet normal 0 0 -1
    outer loop
      vertex 2 2 83
      vertex 0 15 83
      vertex 30 15 83
    endloop
  endfacet
  facet normal -0 0 1
    outer loop
      vertex -2 2 83
      vertex 0 -2 83
      vertex 0 2 83
    endloop
  endfacet
  facet normal 0 0 1
    outer loop
      vertex 0 -2 83
      vertex -2 2 83
      vertex -2 -2 83
    endloop
  endfacet
  facet normal -1 0 0
    outer loop
      vertex -2 -2 3
      vertex -2 2 83
      vertex -2 2 3
    endloop
  endfacet
  facet normal -1 -0 0
    outer loop
      vertex -2 2 83
      vertex -2 -2 3
      vertex -2 -2 83
    endloop
  endfacet
  facet normal 0 1 -0
    outer loop
      vertex 2 2 3
      vertex 0 2 83
      vertex 2 2 83
    endloop
  endfacet
  facet normal 0 1 0
    outer loop
      vertex -2 2 3
      vertex 0 2 83
      vertex 2 2 3
    endloop
  endfacet
  facet normal 0 1 0
    outer loop
      vertex 0 2 83
      vertex -2 2 3
      vertex -2 2 83
    endloop
  endfacet
  facet normal 0 -1 0
    outer loop
      vertex -2 -2 3
      vertex 0 -2 83
      vertex -2 -2 83
    endloop
  endfacet
  facet normal 0 -1 0
    outer loop
      vertex 2 -2 3
      vertex 0 -2 83
      vertex -2 -2 3
    endloop
  endfacet
  facet normal 0 -1 0
    outer loop
      vertex 0 -2 83
      vertex 2 -2 3
      vertex 2 -2 83
    endloop
  endfacet
  facet normal 1 -0 0
    outer loop
      vertex 30 -15 113
      vertex 30 15 83
      vertex 30 15 113
    endloop
  endfacet
  facet normal 1 0 0
    outer loop
      vertex 30 15 83
      vertex 30 -15 113
      vertex 30 -15 83
    endloop
  endfacet
  facet normal -0 0 1
    outer loop
      vertex 0 15 113
      vertex 30 -15 113
      vertex 30 15 113
    endloop
  endfacet
  facet normal 0 0 1
    outer loop
      vertex 30 -15 113
      vertex 0 15 113
      vertex 0 -15 113
    endloop
  endfacet
  facet normal -1 0 0
    outer loop
      vertex 0 2 83
      vertex 0 15 113
      vertex 0 15 83
    endloop
  endfacet
  facet normal -1 0 0
    outer loop
      vertex 0 -2 83
      vertex 0 15 113
      vertex 0 2 83
    endloop
  endfacet
  facet normal -1 0 0
    outer loop
      vertex 0 -15 113
      vertex 0 -2 83
      vertex 0 -15 83
    endloop
  endfacet
  facet normal -1 0 0
    outer loop
      vertex 0 -2 83
      vertex 0 -15 113
      vertex 0 15 113
    endloop
  endfacet
  facet normal 0 1 -0
    outer loop
      vertex 30 15 83
      vertex 0 15 113
      vertex 30 15 113
    endloop
  endfacet
  facet normal 0 1 0
    outer loop
      vertex 0 15 113
      vertex 30 15 83
      vertex 0 15 83
    endloop
  endfacet
  facet normal 0 -1 0
    outer loop
      vertex 0 -15 83
      vertex 30 -15 113
      vertex 0 -15 113
    endloop
  endfacet
  facet normal 0 -1 -0
    outer loop
      vertex 30 -15 113
      vertex 0 -15 83
      vertex 30 -15 83
    endloop
  endfacet
endsolid OpenSCAD_Model
