solid OpenSCAD_Model
  facet normal 1 -0 0
    outer loop
      vertex 15 -15 6
      vertex 15 15 0
      vertex 15 15 6
    endloop
  endfacet
  facet normal 1 0 0
    outer loop
      vertex 15 15 0
      vertex 15 -15 6
      vertex 15 -15 0
    endloop
  endfacet
  facet normal 0 0 1
    outer loop
      vertex 15 15 6
      vertex 3.25 0 6
      vertex 15 -15 6
    endloop
  endfacet
  facet normal 0 0 1
    outer loop
      vertex 15 15 6
      vertex 3.23435 0.318555 6
      vertex 3.25 0 6
    endloop
  endfacet
  facet normal 0 0 1
    outer loop
      vertex 15 15 6
      vertex 3.18755 0.634043 6
      vertex 3.23435 0.318555 6
    endloop
  endfacet
  facet normal 0 0 1
    outer loop
      vertex 15 15 6
      vertex 3.11006 0.943425 6
      vertex 3.18755 0.634043 6
    endloop
  endfacet
  facet normal 0 0 1
    outer loop
      vertex 15 15 6
      vertex 3.00261 1.24372 6
      vertex 3.11006 0.943425 6
    endloop
  endfacet
  facet normal 0 0 1
    outer loop
      vertex 15 15 6
      vertex 2.86624 1.53204 6
      vertex 3.00261 1.24372 6
    endloop
  endfacet
  facet normal 0 0 1
    outer loop
      vertex 15 15 6
      vertex 2.70228 1.8056 6
      vertex 2.86624 1.53204 6
    endloop
  endfacet
  facet normal 0 0 1
    outer loop
      vertex 15 15 6
      vertex 2.51228 2.06178 6
      vertex 2.70228 1.8056 6
    endloop
  endfacet
  facet normal 0 0 1
    outer loop
      vertex 15 15 6
      vertex 2.2981 2.2981 6
      vertex 2.51228 2.06178 6
    endloop
  endfacet
  facet normal 0 0 1
    outer loop
      vertex 15 15 6
      vertex 2.06178 2.51228 6
      vertex 2.2981 2.2981 6
    endloop
  endfacet
  facet normal 0 0 1
    outer loop
      vertex 15 15 6
      vertex 1.8056 2.70228 6
      vertex 2.06178 2.51228 6
    endloop
  endfacet
  facet normal 0 0 1
    outer loop
      vertex 15 15 6
      vertex 1.53204 2.86624 6
      vertex 1.8056 2.70228 6
    endloop
  endfacet
  facet normal 0 0 1
    outer loop
      vertex 15 15 6
      vertex 1.24372 3.00261 6
      vertex 1.53204 2.86624 6
    endloop
  endfacet
  facet normal 0 0 1
    outer loop
      vertex 15 15 6
      vertex 0.943425 3.11006 6
      vertex 1.24372 3.00261 6
    endloop
  endfacet
  facet normal 0 0 1
    outer loop
      vertex 15 15 6
      vertex 0.634043 3.18755 6
      vertex 0.943425 3.11006 6
    endloop
  endfacet
  facet normal 0 0 1
    outer loop
      vertex 15 15 6
      vertex 0.318555 3.23435 6
      vertex 0.634043 3.18755 6
    endloop
  endfacet
  facet normal 0 0 1
    outer loop
      vertex 15 15 6
      vertex 0 3.25 6
      vertex 0.318555 3.23435 6
    endloop
  endfacet
  facet normal -0 0 1
    outer loop
      vertex -15 15 6
      vertex 0 3.25 6
      vertex 15 15 6
    endloop
  endfacet
  facet normal 0 0 1
    outer loop
      vertex 0 3.25 6
      vertex -15 15 6
      vertex -0.318555 3.23435 6
    endloop
  endfacet
  facet normal 0 0 1
    outer loop
      vertex -0.318555 3.23435 6
      vertex -15 15 6
      vertex -0.634043 3.18755 6
    endloop
  endfacet
  facet normal 0 0 1
    outer loop
      vertex -0.634043 3.18755 6
      vertex -15 15 6
      vertex -0.943425 3.11006 6
    endloop
  endfacet
  facet normal 0 0 1
    outer loop
      vertex -0.943425 3.11006 6
      vertex -15 15 6
      vertex -1.24372 3.00261 6
    endloop
  endfacet
  facet normal 0 0 1
    outer loop
      vertex -1.24372 3.00261 6
      vertex -15 15 6
      vertex -1.53204 2.86624 6
    endloop
  endfacet
  facet normal 0 0 1
    outer loop
      vertex -3.23435 0.318555 6
      vertex -15 15 6
      vertex -3.25 0 6
    endloop
  endfacet
  facet normal 0 0 1
    outer loop
      vertex -3.18755 0.634043 6
      vertex -15 15 6
      vertex -3.23435 0.318555 6
    endloop
  endfacet
  facet normal 0 0 1
    outer loop
      vertex -3.11006 0.943425 6
      vertex -15 15 6
      vertex -3.18755 0.634043 6
    endloop
  endfacet
  facet normal 0 0 1
    outer loop
      vertex -3.00261 1.24372 6
      vertex -15 15 6
      vertex -3.11006 0.943425 6
    endloop
  endfacet
  facet normal 0 0 1
    outer loop
      vertex -2.86624 1.53204 6
      vertex -15 15 6
      vertex -3.00261 1.24372 6
    endloop
  endfacet
  facet normal 0 0 1
    outer loop
      vertex -2.70228 1.8056 6
      vertex -15 15 6
      vertex -2.86624 1.53204 6
    endloop
  endfacet
  facet normal 0 0 1
    outer loop
      vertex -2.51228 2.06178 6
      vertex -15 15 6
      vertex -2.70228 1.8056 6
    endloop
  endfacet
  facet normal 0 0 1
    outer loop
      vertex -2.2981 2.2981 6
      vertex -15 15 6
      vertex -2.51228 2.06178 6
    endloop
  endfacet
  facet normal 0 0 1
    outer loop
      vertex -2.06178 2.51228 6
      vertex -15 15 6
      vertex -2.2981 2.2981 6
    endloop
  endfacet
  facet normal 0 0 1
    outer loop
      vertex -1.8056 2.70228 6
      vertex -15 15 6
      vertex -2.06178 2.51228 6
    endloop
  endfacet
  facet normal 0 0 1
    outer loop
      vertex -1.53204 2.86624 6
      vertex -15 15 6
      vertex -1.8056 2.70228 6
    endloop
  endfacet
  facet normal -0 0 1
    outer loop
      vertex 3.23435 -0.318555 6
      vertex 15 -15 6
      vertex 3.25 0 6
    endloop
  endfacet
  facet normal -0 0 1
    outer loop
      vertex 3.18755 -0.634043 6
      vertex 15 -15 6
      vertex 3.23435 -0.318555 6
    endloop
  endfacet
  facet normal -0 0 1
    outer loop
      vertex 3.11006 -0.943425 6
      vertex 15 -15 6
      vertex 3.18755 -0.634043 6
    endloop
  endfacet
  facet normal -0 0 1
    outer loop
      vertex 3.00261 -1.24372 6
      vertex 15 -15 6
      vertex 3.11006 -0.943425 6
    endloop
  endfacet
  facet normal -0 0 1
    outer loop
      vertex 2.86624 -1.53204 6
      vertex 15 -15 6
      vertex 3.00261 -1.24372 6
    endloop
  endfacet
  facet normal -0 0 1
    outer loop
      vertex 2.70228 -1.8056 6
      vertex 15 -15 6
      vertex 2.86624 -1.53204 6
    endloop
  endfacet
  facet normal -0 0 1
    outer loop
      vertex 2.51228 -2.06178 6
      vertex 15 -15 6
      vertex 2.70228 -1.8056 6
    endloop
  endfacet
  facet normal -0 0 1
    outer loop
      vertex 2.2981 -2.2981 6
      vertex 15 -15 6
      vertex 2.51228 -2.06178 6
    endloop
  endfacet
  facet normal -0 0 1
    outer loop
      vertex 2.06178 -2.51228 6
      vertex 15 -15 6
      vertex 2.2981 -2.2981 6
    endloop
  endfacet
  facet normal -0 0 1
    outer loop
      vertex 1.8056 -2.70228 6
      vertex 15 -15 6
      vertex 2.06178 -2.51228 6
    endloop
  endfacet
  facet normal -0 0 1
    outer loop
      vertex 1.53204 -2.86624 6
      vertex 15 -15 6
      vertex 1.8056 -2.70228 6
    endloop
  endfacet
  facet normal -0 0 1
    outer loop
      vertex 1.24372 -3.00261 6
      vertex 15 -15 6
      vertex 1.53204 -2.86624 6
    endloop
  endfacet
  facet normal -0 0 1
    outer loop
      vertex 0.943425 -3.11006 6
      vertex 15 -15 6
      vertex 1.24372 -3.00261 6
    endloop
  endfacet
  facet normal -0 0 1
    outer loop
      vertex 0.634043 -3.18755 6
      vertex 15 -15 6
      vertex 0.943425 -3.11006 6
    endloop
  endfacet
  facet normal -0 0 1
    outer loop
      vertex 0.318555 -3.23435 6
      vertex 15 -15 6
      vertex 0.634043 -3.18755 6
    endloop
  endfacet
  facet normal -0 0 1
    outer loop
      vertex 0 -3.25 6
      vertex 15 -15 6
      vertex 0.318555 -3.23435 6
    endloop
  endfacet
  facet normal 0 0 1
    outer loop
      vertex -15 -15 6
      vertex 0 -3.25 6
      vertex -0.318555 -3.23435 6
    endloop
  endfacet
  facet normal 0 0 1
    outer loop
      vertex -15 -15 6
      vertex -0.318555 -3.23435 6
      vertex -0.634043 -3.18755 6
    endloop
  endfacet
  facet normal 0 0 1
    outer loop
      vertex -15 -15 6
      vertex -0.634043 -3.18755 6
      vertex -0.943425 -3.11006 6
    endloop
  endfacet
  facet normal 0 0 1
    outer loop
      vertex -15 -15 6
      vertex -0.943425 -3.11006 6
      vertex -1.24372 -3.00261 6
    endloop
  endfacet
  facet normal 0 0 1
    outer loop
      vertex -15 -15 6
      vertex -1.24372 -3.00261 6
      vertex -1.53204 -2.86624 6
    endloop
  endfacet
  facet normal 0 0 1
    outer loop
      vertex -15 -15 6
      vertex -1.53204 -2.86624 6
      vertex -1.8056 -2.70228 6
    endloop
  endfacet
  facet normal 0 0 1
    outer loop
      vertex -15 -15 6
      vertex -3.25 0 6
      vertex -15 15 6
    endloop
  endfacet
  facet normal 0 0 1
    outer loop
      vertex -3.25 0 6
      vertex -15 -15 6
      vertex -3.23435 -0.318555 6
    endloop
  endfacet
  facet normal 0 0 1
    outer loop
      vertex -3.23435 -0.318555 6
      vertex -15 -15 6
      vertex -3.18755 -0.634043 6
    endloop
  endfacet
  facet normal 0 0 1
    outer loop
      vertex -3.18755 -0.634043 6
      vertex -15 -15 6
      vertex -3.11006 -0.943425 6
    endloop
  endfacet
  facet normal 0 0 1
    outer loop
      vertex -3.11006 -0.943425 6
      vertex -15 -15 6
      vertex -3.00261 -1.24372 6
    endloop
  endfacet
  facet normal 0 0 1
    outer loop
      vertex -3.00261 -1.24372 6
      vertex -15 -15 6
      vertex -2.86624 -1.53204 6
    endloop
  endfacet
  facet normal 0 0 1
    outer loop
      vertex 0 -3.25 6
      vertex -15 -15 6
      vertex 15 -15 6
    endloop
  endfacet
  facet normal 0 0 1
    outer loop
      vertex -2.06178 -2.51228 6
      vertex -15 -15 6
      vertex -1.8056 -2.70228 6
    endloop
  endfacet
  facet normal 0 0 1
    outer loop
      vertex -2.2981 -2.2981 6
      vertex -15 -15 6
      vertex -2.06178 -2.51228 6
    endloop
  endfacet
  facet normal 0 0 1
    outer loop
      vertex -2.51228 -2.06178 6
      vertex -15 -15 6
      vertex -2.2981 -2.2981 6
    endloop
  endfacet
  facet normal 0 0 1
    outer loop
      vertex -2.70228 -1.8056 6
      vertex -15 -15 6
      vertex -2.51228 -2.06178 6
    endloop
  endfacet
  facet normal 0 0 1
    outer loop
      vertex -2.86624 -1.53204 6
      vertex -15 -15 6
      vertex -2.70228 -1.8056 6
    endloop
  endfacet
  facet normal 0 0 -1
    outer loop
      vertex 15 -15 0
      vertex 3.25 0 0
      vertex 15 15 0
    endloop
  endfacet
  facet normal 0 0 -1
    outer loop
      vertex 15 -15 0
      vertex 3.23435 -0.318555 0
      vertex 3.25 0 0
    endloop
  endfacet
  facet normal 0 0 -1
    outer loop
      vertex 15 -15 0
      vertex 3.18755 -0.634043 0
      vertex 3.23435 -0.318555 0
    endloop
  endfacet
  facet normal 0 0 -1
    outer loop
      vertex 15 -15 0
      vertex 3.11006 -0.943425 0
      vertex 3.18755 -0.634043 0
    endloop
  endfacet
  facet normal 0 0 -1
    outer loop
      vertex 15 -15 0
      vertex 3.00261 -1.24372 0
      vertex 3.11006 -0.943425 0
    endloop
  endfacet
  facet normal 0 0 -1
    outer loop
      vertex 15 -15 0
      vertex 2.86624 -1.53204 0
      vertex 3.00261 -1.24372 0
    endloop
  endfacet
  facet normal 0 0 -1
    outer loop
      vertex 15 -15 0
      vertex 2.70228 -1.8056 0
      vertex 2.86624 -1.53204 0
    endloop
  endfacet
  facet normal 0 0 -1
    outer loop
      vertex 15 -15 0
      vertex 2.51228 -2.06178 0
      vertex 2.70228 -1.8056 0
    endloop
  endfacet
  facet normal 0 0 -1
    outer loop
      vertex 15 -15 0
      vertex 2.2981 -2.2981 0
      vertex 2.51228 -2.06178 0
    endloop
  endfacet
  facet normal 0 0 -1
    outer loop
      vertex 15 -15 0
      vertex 2.06178 -2.51228 0
      vertex 2.2981 -2.2981 0
    endloop
  endfacet
  facet normal 0 0 -1
    outer loop
      vertex 15 -15 0
      vertex 1.8056 -2.70228 0
      vertex 2.06178 -2.51228 0
    endloop
  endfacet
  facet normal 0 0 -1
    outer loop
      vertex 15 -15 0
      vertex 1.53204 -2.86624 0
      vertex 1.8056 -2.70228 0
    endloop
  endfacet
  facet normal 0 0 -1
    outer loop
      vertex 15 -15 0
      vertex 1.24372 -3.00261 0
      vertex 1.53204 -2.86624 0
    endloop
  endfacet
  facet normal 0 0 -1
    outer loop
      vertex 15 -15 0
      vertex 0.943425 -3.11006 0
      vertex 1.24372 -3.00261 0
    endloop
  endfacet
  facet normal 0 0 -1
    outer loop
      vertex 15 -15 0
      vertex 0.634043 -3.18755 0
      vertex 0.943425 -3.11006 0
    endloop
  endfacet
  facet normal 0 0 -1
    outer loop
      vertex 15 -15 0
      vertex 0.318555 -3.23435 0
      vertex 0.634043 -3.18755 0
    endloop
  endfacet
  facet normal 0 0 -1
    outer loop
      vertex 15 -15 0
      vertex 0 -3.25 0
      vertex 0.318555 -3.23435 0
    endloop
  endfacet
  facet normal 0 0 -1
    outer loop
      vertex -15 -15 0
      vertex 0 -3.25 0
      vertex 15 -15 0
    endloop
  endfacet
  facet normal -0 0 -1
    outer loop
      vertex 0 -3.25 0
      vertex -15 -15 0
      vertex -0.318555 -3.23435 0
    endloop
  endfacet
  facet normal -0 0 -1
    outer loop
      vertex -0.318555 -3.23435 0
      vertex -15 -15 0
      vertex -0.634043 -3.18755 0
    endloop
  endfacet
  facet normal -0 0 -1
    outer loop
      vertex -0.634043 -3.18755 0
      vertex -15 -15 0
      vertex -0.943425 -3.11006 0
    endloop
  endfacet
  facet normal -0 0 -1
    outer loop
      vertex -0.943425 -3.11006 0
      vertex -15 -15 0
      vertex -1.24372 -3.00261 0
    endloop
  endfacet
  facet normal -0 0 -1
    outer loop
      vertex -1.24372 -3.00261 0
      vertex -15 -15 0
      vertex -1.53204 -2.86624 0
    endloop
  endfacet
  facet normal -0 0 -1
    outer loop
      vertex -3.23435 -0.318555 0
      vertex -15 -15 0
      vertex -3.25 0 0
    endloop
  endfacet
  facet normal -0 0 -1
    outer loop
      vertex -3.18755 -0.634043 0
      vertex -15 -15 0
      vertex -3.23435 -0.318555 0
    endloop
  endfacet
  facet normal -0 0 -1
    outer loop
      vertex -3.11006 -0.943425 0
      vertex -15 -15 0
      vertex -3.18755 -0.634043 0
    endloop
  endfacet
  facet normal -0 0 -1
    outer loop
      vertex -3.00261 -1.24372 0
      vertex -15 -15 0
      vertex -3.11006 -0.943425 0
    endloop
  endfacet
  facet normal -0 0 -1
    outer loop
      vertex -2.86624 -1.53204 0
      vertex -15 -15 0
      vertex -3.00261 -1.24372 0
    endloop
  endfacet
  facet normal -0 0 -1
    outer loop
      vertex -2.70228 -1.8056 0
      vertex -15 -15 0
      vertex -2.86624 -1.53204 0
    endloop
  endfacet
  facet normal -0 0 -1
    outer loop
      vertex -2.51228 -2.06178 0
      vertex -15 -15 0
      vertex -2.70228 -1.8056 0
    endloop
  endfacet
  facet normal -0 0 -1
    outer loop
      vertex -2.2981 -2.2981 0
      vertex -15 -15 0
      vertex -2.51228 -2.06178 0
    endloop
  endfacet
  facet normal -0 0 -1
    outer loop
      vertex -2.06178 -2.51228 0
      vertex -15 -15 0
      vertex -2.2981 -2.2981 0
    endloop
  endfacet
  facet normal -0 0 -1
    outer loop
      vertex -1.8056 -2.70228 0
      vertex -15 -15 0
      vertex -2.06178 -2.51228 0
    endloop
  endfacet
  facet normal -0 0 -1
    outer loop
      vertex -1.53204 -2.86624 0
      vertex -15 -15 0
      vertex -1.8056 -2.70228 0
    endloop
  endfacet
  facet normal 0 0 -1
    outer loop
      vertex 3.23435 0.318555 0
      vertex 15 15 0
      vertex 3.25 0 0
    endloop
  endfacet
  facet normal 0 0 -1
    outer loop
      vertex 3.18755 0.634043 0
      vertex 15 15 0
      vertex 3.23435 0.318555 0
    endloop
  endfacet
  facet normal 0 0 -1
    outer loop
      vertex 3.11006 0.943425 0
      vertex 15 15 0
      vertex 3.18755 0.634043 0
    endloop
  endfacet
  facet normal 0 0 -1
    outer loop
      vertex 3.00261 1.24372 0
      vertex 15 15 0
      vertex 3.11006 0.943425 0
    endloop
  endfacet
  facet normal 0 0 -1
    outer loop
      vertex 2.86624 1.53204 0
      vertex 15 15 0
      vertex 3.00261 1.24372 0
    endloop
  endfacet
  facet normal 0 0 -1
    outer loop
      vertex 2.70228 1.8056 0
      vertex 15 15 0
      vertex 2.86624 1.53204 0
    endloop
  endfacet
  facet normal 0 0 -1
    outer loop
      vertex 2.51228 2.06178 0
      vertex 15 15 0
      vertex 2.70228 1.8056 0
    endloop
  endfacet
  facet normal 0 0 -1
    outer loop
      vertex 2.2981 2.2981 0
      vertex 15 15 0
      vertex 2.51228 2.06178 0
    endloop
  endfacet
  facet normal 0 0 -1
    outer loop
      vertex 2.06178 2.51228 0
      vertex 15 15 0
      vertex 2.2981 2.2981 0
    endloop
  endfacet
  facet normal 0 0 -1
    outer loop
      vertex 1.8056 2.70228 0
      vertex 15 15 0
      vertex 2.06178 2.51228 0
    endloop
  endfacet
  facet normal 0 0 -1
    outer loop
      vertex 1.53204 2.86624 0
      vertex 15 15 0
      vertex 1.8056 2.70228 0
    endloop
  endfacet
  facet normal 0 0 -1
    outer loop
      vertex 1.24372 3.00261 0
      vertex 15 15 0
      vertex 1.53204 2.86624 0
    endloop
  endfacet
  facet normal 0 0 -1
    outer loop
      vertex 0.943425 3.11006 0
      vertex 15 15 0
      vertex 1.24372 3.00261 0
    endloop
  endfacet
  facet normal 0 0 -1
    outer loop
      vertex 0.634043 3.18755 0
      vertex 15 15 0
      vertex 0.943425 3.11006 0
    endloop
  endfacet
  facet normal 0 0 -1
    outer loop
      vertex 0.318555 3.23435 0
      vertex 15 15 0
      vertex 0.634043 3.18755 0
    endloop
  endfacet
  facet normal 0 0 -1
    outer loop
      vertex 0 3.25 0
      vertex 15 15 0
      vertex 0.318555 3.23435 0
    endloop
  endfacet
  facet normal 0 0 -1
    outer loop
      vertex -15 15 0
      vertex 0 3.25 0
      vertex -0.318555 3.23435 0
    endloop
  endfacet
  facet normal 0 0 -1
    outer loop
      vertex -15 15 0
      vertex -0.318555 3.23435 0
      vertex -0.634043 3.18755 0
    endloop
  endfacet
  facet normal 0 0 -1
    outer loop
      vertex -15 15 0
      vertex -0.634043 3.18755 0
      vertex -0.943425 3.11006 0
    endloop
  endfacet
  facet normal 0 0 -1
    outer loop
      vertex -15 15 0
      vertex -0.943425 3.11006 0
      vertex -1.24372 3.00261 0
    endloop
  endfacet
  facet normal 0 0 -1
    outer loop
      vertex -15 15 0
      vertex -1.24372 3.00261 0
      vertex -1.53204 2.86624 0
    endloop
  endfacet
  facet normal 0 0 -1
    outer loop
      vertex -15 15 0
      vertex -1.53204 2.86624 0
      vertex -1.8056 2.70228 0
    endloop
  endfacet
  facet normal 0 0 -1
    outer loop
      vertex -15 15 0
      vertex -3.25 0 0
      vertex -15 -15 0
    endloop
  endfacet
  facet normal 0 0 -1
    outer loop
      vertex -3.25 0 0
      vertex -15 15 0
      vertex -3.23435 0.318555 0
    endloop
  endfacet
  facet normal 0 0 -1
    outer loop
      vertex -3.23435 0.318555 0
      vertex -15 15 0
      vertex -3.18755 0.634043 0
    endloop
  endfacet
  facet normal 0 0 -1
    outer loop
      vertex -3.18755 0.634043 0
      vertex -15 15 0
      vertex -3.11006 0.943425 0
    endloop
  endfacet
  facet normal 0 0 -1
    outer loop
      vertex -3.11006 0.943425 0
      vertex -15 15 0
      vertex -3.00261 1.24372 0
    endloop
  endfacet
  facet normal 0 0 -1
    outer loop
      vertex -3.00261 1.24372 0
      vertex -15 15 0
      vertex -2.86624 1.53204 0
    endloop
  endfacet
  facet normal 0 0 -1
    outer loop
      vertex 0 3.25 0
      vertex -15 15 0
      vertex 15 15 0
    endloop
  endfacet
  facet normal 0 0 -1
    outer loop
      vertex -2.06178 2.51228 0
      vertex -15 15 0
      vertex -1.8056 2.70228 0
    endloop
  endfacet
  facet normal 0 0 -1
    outer loop
      vertex -2.2981 2.2981 0
      vertex -15 15 0
      vertex -2.06178 2.51228 0
    endloop
  endfacet
  facet normal 0 0 -1
    outer loop
      vertex -2.51228 2.06178 0
      vertex -15 15 0
      vertex -2.2981 2.2981 0
    endloop
  endfacet
  facet normal 0 0 -1
    outer loop
      vertex -2.70228 1.8056 0
      vertex -15 15 0
      vertex -2.51228 2.06178 0
    endloop
  endfacet
  facet normal 0 0 -1
    outer loop
      vertex -2.86624 1.53204 0
      vertex -15 15 0
      vertex -2.70228 1.8056 0
    endloop
  endfacet
  facet normal -1 0 0
    outer loop
      vertex -15 -15 0
      vertex -15 15 6
      vertex -15 15 0
    endloop
  endfacet
  facet normal -1 -0 0
    outer loop
      vertex -15 15 6
      vertex -15 -15 0
      vertex -15 -15 6
    endloop
  endfacet
  facet normal 0 1 -0
    outer loop
      vertex 15 15 0
      vertex -15 15 6
      vertex 15 15 6
    endloop
  endfacet
  facet normal 0 1 0
    outer loop
      vertex -15 15 6
      vertex 15 15 0
      vertex -15 15 0
    endloop
  endfacet
  facet normal 0 -1 0
    outer loop
      vertex -15 -15 0
      vertex 15 -15 6
      vertex -15 -15 6
    endloop
  endfacet
  facet normal 0 -1 -0
    outer loop
      vertex 15 -15 6
      vertex -15 -15 0
      vertex 15 -15 0
    endloop
  endfacet
  facet normal -0.989176 -0.146736 0
    outer loop
      vertex 3.23435 0.318555 0
      vertex 3.18755 0.634043 6
      vertex 3.18755 0.634043 0
    endloop
  endfacet
  facet normal -0.989176 -0.146736 0
    outer loop
      vertex 3.18755 0.634043 6
      vertex 3.23435 0.318555 0
      vertex 3.23435 0.318555 6
    endloop
  endfacet
  facet normal -0.998795 -0.0490689 0
    outer loop
      vertex 3.25 0 0
      vertex 3.23435 0.318555 6
      vertex 3.23435 0.318555 0
    endloop
  endfacet
  facet normal -0.998795 -0.0490689 0
    outer loop
      vertex 3.23435 0.318555 6
      vertex 3.25 0 0
      vertex 3.25 0 6
    endloop
  endfacet
  facet normal -0.970036 -0.242962 0
    outer loop
      vertex 3.18755 0.634043 0
      vertex 3.11006 0.943425 6
      vertex 3.11006 0.943425 0
    endloop
  endfacet
  facet normal -0.970036 -0.242962 0
    outer loop
      vertex 3.11006 0.943425 6
      vertex 3.18755 0.634043 0
      vertex 3.18755 0.634043 6
    endloop
  endfacet
  facet normal -0.336897 0.941541 0
    outer loop
      vertex 1.24372 -3.00261 0
      vertex 0.943425 -3.11006 6
      vertex 1.24372 -3.00261 6
    endloop
  endfacet
  facet normal -0.336897 0.941541 0
    outer loop
      vertex 0.943425 -3.11006 6
      vertex 1.24372 -3.00261 0
      vertex 0.943425 -3.11006 0
    endloop
  endfacet
  facet normal -0.671545 -0.740964 0
    outer loop
      vertex 2.06178 2.51228 0
      vertex 2.2981 2.2981 6
      vertex 2.06178 2.51228 6
    endloop
  endfacet
  facet normal -0.671545 -0.740964 -0
    outer loop
      vertex 2.2981 2.2981 6
      vertex 2.06178 2.51228 0
      vertex 2.2981 2.2981 0
    endloop
  endfacet
  facet normal 0.857736 -0.51409 0
    outer loop
      vertex -2.86624 1.53204 6
      vertex -2.70228 1.8056 0
      vertex -2.70228 1.8056 6
    endloop
  endfacet
  facet normal 0.857736 -0.51409 0
    outer loop
      vertex -2.70228 1.8056 0
      vertex -2.86624 1.53204 6
      vertex -2.86624 1.53204 0
    endloop
  endfacet
  facet normal 0.146736 0.989176 -0
    outer loop
      vertex -0.318555 -3.23435 0
      vertex -0.634043 -3.18755 6
      vertex -0.318555 -3.23435 6
    endloop
  endfacet
  facet normal 0.146736 0.989176 0
    outer loop
      vertex -0.634043 -3.18755 6
      vertex -0.318555 -3.23435 0
      vertex -0.634043 -3.18755 0
    endloop
  endfacet
  facet normal -0.941541 -0.336897 0
    outer loop
      vertex 3.11006 0.943425 0
      vertex 3.00261 1.24372 6
      vertex 3.00261 1.24372 0
    endloop
  endfacet
  facet normal -0.941541 -0.336897 0
    outer loop
      vertex 3.00261 1.24372 6
      vertex 3.11006 0.943425 0
      vertex 3.11006 0.943425 6
    endloop
  endfacet
  facet normal 0.0490689 -0.998795 0
    outer loop
      vertex -0.318555 3.23435 0
      vertex 0 3.25 6
      vertex -0.318555 3.23435 6
    endloop
  endfacet
  facet normal 0.0490689 -0.998795 0
    outer loop
      vertex 0 3.25 6
      vertex -0.318555 3.23435 0
      vertex 0 3.25 0
    endloop
  endfacet
  facet normal -0.0490689 0.998795 0
    outer loop
      vertex 0.318555 -3.23435 0
      vertex 0 -3.25 6
      vertex 0.318555 -3.23435 6
    endloop
  endfacet
  facet normal -0.0490689 0.998795 0
    outer loop
      vertex 0 -3.25 6
      vertex 0.318555 -3.23435 0
      vertex 0 -3.25 0
    endloop
  endfacet
  facet normal 0.903983 0.427567 0
    outer loop
      vertex -2.86624 -1.53204 6
      vertex -3.00261 -1.24372 0
      vertex -3.00261 -1.24372 6
    endloop
  endfacet
  facet normal 0.903983 0.427567 0
    outer loop
      vertex -3.00261 -1.24372 0
      vertex -2.86624 -1.53204 6
      vertex -2.86624 -1.53204 0
    endloop
  endfacet
  facet normal 0.595707 0.803202 -0
    outer loop
      vertex -1.8056 -2.70228 0
      vertex -2.06178 -2.51228 6
      vertex -1.8056 -2.70228 6
    endloop
  endfacet
  facet normal 0.595707 0.803202 0
    outer loop
      vertex -2.06178 -2.51228 6
      vertex -1.8056 -2.70228 0
      vertex -2.06178 -2.51228 0
    endloop
  endfacet
  facet normal 0.803202 -0.595707 0
    outer loop
      vertex -2.70228 1.8056 6
      vertex -2.51228 2.06178 0
      vertex -2.51228 2.06178 6
    endloop
  endfacet
  facet normal 0.803202 -0.595707 0
    outer loop
      vertex -2.51228 2.06178 0
      vertex -2.70228 1.8056 6
      vertex -2.70228 1.8056 0
    endloop
  endfacet
  facet normal -0.970036 0.242962 0
    outer loop
      vertex 3.11006 -0.943425 0
      vertex 3.18755 -0.634043 6
      vertex 3.18755 -0.634043 0
    endloop
  endfacet
  facet normal -0.970036 0.242962 0
    outer loop
      vertex 3.18755 -0.634043 6
      vertex 3.11006 -0.943425 0
      vertex 3.11006 -0.943425 6
    endloop
  endfacet
  facet normal -0.51409 0.857736 0
    outer loop
      vertex 1.8056 -2.70228 0
      vertex 1.53204 -2.86624 6
      vertex 1.8056 -2.70228 6
    endloop
  endfacet
  facet normal -0.51409 0.857736 0
    outer loop
      vertex 1.53204 -2.86624 6
      vertex 1.8056 -2.70228 0
      vertex 1.53204 -2.86624 0
    endloop
  endfacet
  facet normal -0.857736 -0.51409 0
    outer loop
      vertex 2.86624 1.53204 0
      vertex 2.70228 1.8056 6
      vertex 2.70228 1.8056 0
    endloop
  endfacet
  facet normal -0.857736 -0.51409 0
    outer loop
      vertex 2.70228 1.8056 6
      vertex 2.86624 1.53204 0
      vertex 2.86624 1.53204 6
    endloop
  endfacet
  facet normal 0.998795 0.0490689 0
    outer loop
      vertex -3.23435 -0.318555 6
      vertex -3.25 0 0
      vertex -3.25 0 6
    endloop
  endfacet
  facet normal 0.998795 0.0490689 0
    outer loop
      vertex -3.25 0 0
      vertex -3.23435 -0.318555 6
      vertex -3.23435 -0.318555 0
    endloop
  endfacet
  facet normal -0.903983 -0.427567 0
    outer loop
      vertex 3.00261 1.24372 0
      vertex 2.86624 1.53204 6
      vertex 2.86624 1.53204 0
    endloop
  endfacet
  facet normal -0.903983 -0.427567 0
    outer loop
      vertex 2.86624 1.53204 6
      vertex 3.00261 1.24372 0
      vertex 3.00261 1.24372 6
    endloop
  endfacet
  facet normal -0.941541 0.336897 0
    outer loop
      vertex 3.00261 -1.24372 0
      vertex 3.11006 -0.943425 6
      vertex 3.11006 -0.943425 0
    endloop
  endfacet
  facet normal -0.941541 0.336897 0
    outer loop
      vertex 3.11006 -0.943425 6
      vertex 3.00261 -1.24372 0
      vertex 3.00261 -1.24372 6
    endloop
  endfacet
  facet normal 0.427567 0.903983 -0
    outer loop
      vertex -1.24372 -3.00261 0
      vertex -1.53204 -2.86624 6
      vertex -1.24372 -3.00261 6
    endloop
  endfacet
  facet normal 0.427567 0.903983 0
    outer loop
      vertex -1.53204 -2.86624 6
      vertex -1.24372 -3.00261 0
      vertex -1.53204 -2.86624 0
    endloop
  endfacet
  facet normal 0.970036 0.242962 0
    outer loop
      vertex -3.11006 -0.943425 6
      vertex -3.18755 -0.634043 0
      vertex -3.18755 -0.634043 6
    endloop
  endfacet
  facet normal 0.970036 0.242962 0
    outer loop
      vertex -3.18755 -0.634043 0
      vertex -3.11006 -0.943425 6
      vertex -3.11006 -0.943425 0
    endloop
  endfacet
  facet normal 0.740964 -0.671545 0
    outer loop
      vertex -2.51228 2.06178 6
      vertex -2.2981 2.2981 0
      vertex -2.2981 2.2981 6
    endloop
  endfacet
  facet normal 0.740964 -0.671545 0
    outer loop
      vertex -2.2981 2.2981 0
      vertex -2.51228 2.06178 6
      vertex -2.51228 2.06178 0
    endloop
  endfacet
  facet normal 0.242962 0.970036 -0
    outer loop
      vertex -0.634043 -3.18755 0
      vertex -0.943425 -3.11006 6
      vertex -0.634043 -3.18755 6
    endloop
  endfacet
  facet normal 0.242962 0.970036 0
    outer loop
      vertex -0.943425 -3.11006 6
      vertex -0.634043 -3.18755 0
      vertex -0.943425 -3.11006 0
    endloop
  endfacet
  facet normal 0.51409 -0.857736 0
    outer loop
      vertex -1.8056 2.70228 0
      vertex -1.53204 2.86624 6
      vertex -1.8056 2.70228 6
    endloop
  endfacet
  facet normal 0.51409 -0.857736 0
    outer loop
      vertex -1.53204 2.86624 6
      vertex -1.8056 2.70228 0
      vertex -1.53204 2.86624 0
    endloop
  endfacet
  facet normal -0.803202 -0.595707 0
    outer loop
      vertex 2.70228 1.8056 0
      vertex 2.51228 2.06178 6
      vertex 2.51228 2.06178 0
    endloop
  endfacet
  facet normal -0.803202 -0.595707 0
    outer loop
      vertex 2.51228 2.06178 6
      vertex 2.70228 1.8056 0
      vertex 2.70228 1.8056 6
    endloop
  endfacet
  facet normal 0.146736 -0.989176 0
    outer loop
      vertex -0.634043 3.18755 0
      vertex -0.318555 3.23435 6
      vertex -0.634043 3.18755 6
    endloop
  endfacet
  facet normal 0.146736 -0.989176 0
    outer loop
      vertex -0.318555 3.23435 6
      vertex -0.634043 3.18755 0
      vertex -0.318555 3.23435 0
    endloop
  endfacet
  facet normal -0.427567 0.903983 0
    outer loop
      vertex 1.53204 -2.86624 0
      vertex 1.24372 -3.00261 6
      vertex 1.53204 -2.86624 6
    endloop
  endfacet
  facet normal -0.427567 0.903983 0
    outer loop
      vertex 1.24372 -3.00261 6
      vertex 1.53204 -2.86624 0
      vertex 1.24372 -3.00261 0
    endloop
  endfacet
  facet normal 0.671545 -0.740964 0
    outer loop
      vertex -2.2981 2.2981 0
      vertex -2.06178 2.51228 6
      vertex -2.2981 2.2981 6
    endloop
  endfacet
  facet normal 0.671545 -0.740964 0
    outer loop
      vertex -2.06178 2.51228 6
      vertex -2.2981 2.2981 0
      vertex -2.06178 2.51228 0
    endloop
  endfacet
  facet normal -0.857736 0.51409 0
    outer loop
      vertex 2.70228 -1.8056 0
      vertex 2.86624 -1.53204 6
      vertex 2.86624 -1.53204 0
    endloop
  endfacet
  facet normal -0.857736 0.51409 0
    outer loop
      vertex 2.86624 -1.53204 6
      vertex 2.70228 -1.8056 0
      vertex 2.70228 -1.8056 6
    endloop
  endfacet
  facet normal 0.595707 -0.803202 0
    outer loop
      vertex -2.06178 2.51228 0
      vertex -1.8056 2.70228 6
      vertex -2.06178 2.51228 6
    endloop
  endfacet
  facet normal 0.595707 -0.803202 0
    outer loop
      vertex -1.8056 2.70228 6
      vertex -2.06178 2.51228 0
      vertex -1.8056 2.70228 0
    endloop
  endfacet
  facet normal -0.336897 -0.941541 0
    outer loop
      vertex 0.943425 3.11006 0
      vertex 1.24372 3.00261 6
      vertex 0.943425 3.11006 6
    endloop
  endfacet
  facet normal -0.336897 -0.941541 -0
    outer loop
      vertex 1.24372 3.00261 6
      vertex 0.943425 3.11006 0
      vertex 1.24372 3.00261 0
    endloop
  endfacet
  facet normal -0.998795 0.0490689 0
    outer loop
      vertex 3.23435 -0.318555 0
      vertex 3.25 0 6
      vertex 3.25 0 0
    endloop
  endfacet
  facet normal -0.998795 0.0490689 0
    outer loop
      vertex 3.25 0 6
      vertex 3.23435 -0.318555 0
      vertex 3.23435 -0.318555 6
    endloop
  endfacet
  facet normal 0.941541 0.336897 0
    outer loop
      vertex -3.00261 -1.24372 6
      vertex -3.11006 -0.943425 0
      vertex -3.11006 -0.943425 6
    endloop
  endfacet
  facet normal 0.941541 0.336897 0
    outer loop
      vertex -3.11006 -0.943425 0
      vertex -3.00261 -1.24372 6
      vertex -3.00261 -1.24372 0
    endloop
  endfacet
  facet normal -0.51409 -0.857736 0
    outer loop
      vertex 1.53204 2.86624 0
      vertex 1.8056 2.70228 6
      vertex 1.53204 2.86624 6
    endloop
  endfacet
  facet normal -0.51409 -0.857736 -0
    outer loop
      vertex 1.8056 2.70228 6
      vertex 1.53204 2.86624 0
      vertex 1.8056 2.70228 0
    endloop
  endfacet
  facet normal -0.595707 -0.803202 0
    outer loop
      vertex 1.8056 2.70228 0
      vertex 2.06178 2.51228 6
      vertex 1.8056 2.70228 6
    endloop
  endfacet
  facet normal -0.595707 -0.803202 -0
    outer loop
      vertex 2.06178 2.51228 6
      vertex 1.8056 2.70228 0
      vertex 2.06178 2.51228 0
    endloop
  endfacet
  facet normal -0.146736 0.989176 0
    outer loop
      vertex 0.634043 -3.18755 0
      vertex 0.318555 -3.23435 6
      vertex 0.634043 -3.18755 6
    endloop
  endfacet
  facet normal -0.146736 0.989176 0
    outer loop
      vertex 0.318555 -3.23435 6
      vertex 0.634043 -3.18755 0
      vertex 0.318555 -3.23435 0
    endloop
  endfacet
  facet normal -0.740964 0.671545 0
    outer loop
      vertex 2.2981 -2.2981 0
      vertex 2.51228 -2.06178 6
      vertex 2.51228 -2.06178 0
    endloop
  endfacet
  facet normal -0.740964 0.671545 0
    outer loop
      vertex 2.51228 -2.06178 6
      vertex 2.2981 -2.2981 0
      vertex 2.2981 -2.2981 6
    endloop
  endfacet
  facet normal -0.803202 0.595707 0
    outer loop
      vertex 2.51228 -2.06178 0
      vertex 2.70228 -1.8056 6
      vertex 2.70228 -1.8056 0
    endloop
  endfacet
  facet normal -0.803202 0.595707 0
    outer loop
      vertex 2.70228 -1.8056 6
      vertex 2.51228 -2.06178 0
      vertex 2.51228 -2.06178 6
    endloop
  endfacet
  facet normal -0.242962 0.970036 0
    outer loop
      vertex 0.943425 -3.11006 0
      vertex 0.634043 -3.18755 6
      vertex 0.943425 -3.11006 6
    endloop
  endfacet
  facet normal -0.242962 0.970036 0
    outer loop
      vertex 0.634043 -3.18755 6
      vertex 0.943425 -3.11006 0
      vertex 0.634043 -3.18755 0
    endloop
  endfacet
  facet normal -0.903983 0.427567 0
    outer loop
      vertex 2.86624 -1.53204 0
      vertex 3.00261 -1.24372 6
      vertex 3.00261 -1.24372 0
    endloop
  endfacet
  facet normal -0.903983 0.427567 0
    outer loop
      vertex 3.00261 -1.24372 6
      vertex 2.86624 -1.53204 0
      vertex 2.86624 -1.53204 6
    endloop
  endfacet
  facet normal 0.242962 -0.970036 0
    outer loop
      vertex -0.943425 3.11006 0
      vertex -0.634043 3.18755 6
      vertex -0.943425 3.11006 6
    endloop
  endfacet
  facet normal 0.242962 -0.970036 0
    outer loop
      vertex -0.634043 3.18755 6
      vertex -0.943425 3.11006 0
      vertex -0.634043 3.18755 0
    endloop
  endfacet
  facet normal 0.941541 -0.336897 0
    outer loop
      vertex -3.11006 0.943425 6
      vertex -3.00261 1.24372 0
      vertex -3.00261 1.24372 6
    endloop
  endfacet
  facet normal 0.941541 -0.336897 0
    outer loop
      vertex -3.00261 1.24372 0
      vertex -3.11006 0.943425 6
      vertex -3.11006 0.943425 0
    endloop
  endfacet
  facet normal 0.427567 -0.903983 0
    outer loop
      vertex -1.53204 2.86624 0
      vertex -1.24372 3.00261 6
      vertex -1.53204 2.86624 6
    endloop
  endfacet
  facet normal 0.427567 -0.903983 0
    outer loop
      vertex -1.24372 3.00261 6
      vertex -1.53204 2.86624 0
      vertex -1.24372 3.00261 0
    endloop
  endfacet
  facet normal 0.989176 -0.146736 0
    outer loop
      vertex -3.23435 0.318555 6
      vertex -3.18755 0.634043 0
      vertex -3.18755 0.634043 6
    endloop
  endfacet
  facet normal 0.989176 -0.146736 0
    outer loop
      vertex -3.18755 0.634043 0
      vertex -3.23435 0.318555 6
      vertex -3.23435 0.318555 0
    endloop
  endfacet
  facet normal 0.970036 -0.242962 0
    outer loop
      vertex -3.18755 0.634043 6
      vertex -3.11006 0.943425 0
      vertex -3.11006 0.943425 6
    endloop
  endfacet
  facet normal 0.970036 -0.242962 0
    outer loop
      vertex -3.11006 0.943425 0
      vertex -3.18755 0.634043 6
      vertex -3.18755 0.634043 0
    endloop
  endfacet
  facet normal -0.427567 -0.903983 0
    outer loop
      vertex 1.24372 3.00261 0
      vertex 1.53204 2.86624 6
      vertex 1.24372 3.00261 6
    endloop
  endfacet
  facet normal -0.427567 -0.903983 -0
    outer loop
      vertex 1.53204 2.86624 6
      vertex 1.24372 3.00261 0
      vertex 1.53204 2.86624 0
    endloop
  endfacet
  facet normal -0.989176 0.146736 0
    outer loop
      vertex 3.18755 -0.634043 0
      vertex 3.23435 -0.318555 6
      vertex 3.23435 -0.318555 0
    endloop
  endfacet
  facet normal -0.989176 0.146736 0
    outer loop
      vertex 3.23435 -0.318555 6
      vertex 3.18755 -0.634043 0
      vertex 3.18755 -0.634043 6
    endloop
  endfacet
  facet normal -0.146736 -0.989176 0
    outer loop
      vertex 0.318555 3.23435 0
      vertex 0.634043 3.18755 6
      vertex 0.318555 3.23435 6
    endloop
  endfacet
  facet normal -0.146736 -0.989176 -0
    outer loop
      vertex 0.634043 3.18755 6
      vertex 0.318555 3.23435 0
      vertex 0.634043 3.18755 0
    endloop
  endfacet
  facet normal -0.0490689 -0.998795 0
    outer loop
      vertex 0 3.25 0
      vertex 0.318555 3.23435 6
      vertex 0 3.25 6
    endloop
  endfacet
  facet normal -0.0490689 -0.998795 -0
    outer loop
      vertex 0.318555 3.23435 6
      vertex 0 3.25 0
      vertex 0.318555 3.23435 0
    endloop
  endfacet
  facet normal 0.740964 0.671545 0
    outer loop
      vertex -2.2981 -2.2981 6
      vertex -2.51228 -2.06178 0
      vertex -2.51228 -2.06178 6
    endloop
  endfacet
  facet normal 0.740964 0.671545 0
    outer loop
      vertex -2.51228 -2.06178 0
      vertex -2.2981 -2.2981 6
      vertex -2.2981 -2.2981 0
    endloop
  endfacet
  facet normal 0.857736 0.51409 0
    outer loop
      vertex -2.70228 -1.8056 6
      vertex -2.86624 -1.53204 0
      vertex -2.86624 -1.53204 6
    endloop
  endfacet
  facet normal 0.857736 0.51409 0
    outer loop
      vertex -2.86624 -1.53204 0
      vertex -2.70228 -1.8056 6
      vertex -2.70228 -1.8056 0
    endloop
  endfacet
  facet normal 0.336897 -0.941541 0
    outer loop
      vertex -1.24372 3.00261 0
      vertex -0.943425 3.11006 6
      vertex -1.24372 3.00261 6
    endloop
  endfacet
  facet normal 0.336897 -0.941541 0
    outer loop
      vertex -0.943425 3.11006 6
      vertex -1.24372 3.00261 0
      vertex -0.943425 3.11006 0
    endloop
  endfacet
  facet normal 0.51409 0.857736 -0
    outer loop
      vertex -1.53204 -2.86624 0
      vertex -1.8056 -2.70228 6
      vertex -1.53204 -2.86624 6
    endloop
  endfacet
  facet normal 0.51409 0.857736 0
    outer loop
      vertex -1.8056 -2.70228 6
      vertex -1.53204 -2.86624 0
      vertex -1.8056 -2.70228 0
    endloop
  endfacet
  facet normal -0.595707 0.803202 0
    outer loop
      vertex 2.06178 -2.51228 0
      vertex 1.8056 -2.70228 6
      vertex 2.06178 -2.51228 6
    endloop
  endfacet
  facet normal -0.595707 0.803202 0
    outer loop
      vertex 1.8056 -2.70228 6
      vertex 2.06178 -2.51228 0
      vertex 1.8056 -2.70228 0
    endloop
  endfacet
  facet normal 0.903983 -0.427567 0
    outer loop
      vertex -3.00261 1.24372 6
      vertex -2.86624 1.53204 0
      vertex -2.86624 1.53204 6
    endloop
  endfacet
  facet normal 0.903983 -0.427567 0
    outer loop
      vertex -2.86624 1.53204 0
      vertex -3.00261 1.24372 6
      vertex -3.00261 1.24372 0
    endloop
  endfacet
  facet normal 0.803202 0.595707 0
    outer loop
      vertex -2.51228 -2.06178 6
      vertex -2.70228 -1.8056 0
      vertex -2.70228 -1.8056 6
    endloop
  endfacet
  facet normal 0.803202 0.595707 0
    outer loop
      vertex -2.70228 -1.8056 0
      vertex -2.51228 -2.06178 6
      vertex -2.51228 -2.06178 0
    endloop
  endfacet
  facet normal 0.989176 0.146736 0
    outer loop
      vertex -3.18755 -0.634043 6
      vertex -3.23435 -0.318555 0
      vertex -3.23435 -0.318555 6
    endloop
  endfacet
  facet normal 0.989176 0.146736 0
    outer loop
      vertex -3.23435 -0.318555 0
      vertex -3.18755 -0.634043 6
      vertex -3.18755 -0.634043 0
    endloop
  endfacet
  facet normal -0.740964 -0.671545 0
    outer loop
      vertex 2.51228 2.06178 0
      vertex 2.2981 2.2981 6
      vertex 2.2981 2.2981 0
    endloop
  endfacet
  facet normal -0.740964 -0.671545 0
    outer loop
      vertex 2.2981 2.2981 6
      vertex 2.51228 2.06178 0
      vertex 2.51228 2.06178 6
    endloop
  endfacet
  facet normal -0.242962 -0.970036 0
    outer loop
      vertex 0.634043 3.18755 0
      vertex 0.943425 3.11006 6
      vertex 0.634043 3.18755 6
    endloop
  endfacet
  facet normal -0.242962 -0.970036 -0
    outer loop
      vertex 0.943425 3.11006 6
      vertex 0.634043 3.18755 0
      vertex 0.943425 3.11006 0
    endloop
  endfacet
  facet normal 0.671545 0.740964 -0
    outer loop
      vertex -2.06178 -2.51228 0
      vertex -2.2981 -2.2981 6
      vertex -2.06178 -2.51228 6
    endloop
  endfacet
  facet normal 0.671545 0.740964 0
    outer loop
      vertex -2.2981 -2.2981 6
      vertex -2.06178 -2.51228 0
      vertex -2.2981 -2.2981 0
    endloop
  endfacet
  facet normal 0.0490689 0.998795 -0
    outer loop
      vertex 0 -3.25 0
      vertex -0.318555 -3.23435 6
      vertex 0 -3.25 6
    endloop
  endfacet
  facet normal 0.0490689 0.998795 0
    outer loop
      vertex -0.318555 -3.23435 6
      vertex 0 -3.25 0
      vertex -0.318555 -3.23435 0
    endloop
  endfacet
  facet normal 0.998795 -0.0490689 0
    outer loop
      vertex -3.25 0 6
      vertex -3.23435 0.318555 0
      vertex -3.23435 0.318555 6
    endloop
  endfacet
  facet normal 0.998795 -0.0490689 0
    outer loop
      vertex -3.23435 0.318555 0
      vertex -3.25 0 6
      vertex -3.25 0 0
    endloop
  endfacet
  facet normal 0.336897 0.941541 -0
    outer loop
      vertex -0.943425 -3.11006 0
      vertex -1.24372 -3.00261 6
      vertex -0.943425 -3.11006 6
    endloop
  endfacet
  facet normal 0.336897 0.941541 0
    outer loop
      vertex -1.24372 -3.00261 6
      vertex -0.943425 -3.11006 0
      vertex -1.24372 -3.00261 0
    endloop
  endfacet
  facet normal -0.671545 0.740964 0
    outer loop
      vertex 2.2981 -2.2981 0
      vertex 2.06178 -2.51228 6
      vertex 2.2981 -2.2981 6
    endloop
  endfacet
  facet normal -0.671545 0.740964 0
    outer loop
      vertex 2.06178 -2.51228 6
      vertex 2.2981 -2.2981 0
      vertex 2.06178 -2.51228 0
    endloop
  endfacet
  facet normal -0.970027 0.242998 0
    outer loop
      vertex -2.94236 0.585271 0
      vertex -2.87082 0.870853 14
      vertex -2.87082 0.870853 0
    endloop
  endfacet
  facet normal -0.970027 0.242998 0
    outer loop
      vertex -2.87082 0.870853 14
      vertex -2.94236 0.585271 0
      vertex -2.94236 0.585271 14
    endloop
  endfacet
  facet normal 0.146703 0.989181 -0
    outer loop
      vertex 0.585271 2.94236 0
      vertex 0.294051 2.98555 14
      vertex 0.585271 2.94236 14
    endloop
  endfacet
  facet normal 0.146703 0.989181 0
    outer loop
      vertex 0.294051 2.98555 14
      vertex 0.585271 2.94236 0
      vertex 0.294051 2.98555 0
    endloop
  endfacet
  facet normal -0.514091 0.857736 0
    outer loop
      vertex -1.41419 2.64576 0
      vertex -1.66671 2.49441 14
      vertex -1.41419 2.64576 14
    endloop
  endfacet
  facet normal -0.514091 0.857736 0
    outer loop
      vertex -1.66671 2.49441 14
      vertex -1.41419 2.64576 0
      vertex -1.66671 2.49441 0
    endloop
  endfacet
  facet normal -0.903983 0.427569 0
    outer loop
      vertex -2.77164 1.14805 0
      vertex -2.64576 1.41419 14
      vertex -2.64576 1.41419 0
    endloop
  endfacet
  facet normal -0.903983 0.427569 0
    outer loop
      vertex -2.64576 1.41419 14
      vertex -2.77164 1.14805 0
      vertex -2.77164 1.14805 14
    endloop
  endfacet
  facet normal -0.0490819 -0.998795 0
    outer loop
      vertex -0.294051 -2.98555 0
      vertex 0 -3 14
      vertex -0.294051 -2.98555 14
    endloop
  endfacet
  facet normal -0.0490819 -0.998795 -0
    outer loop
      vertex 0 -3 14
      vertex -0.294051 -2.98555 0
      vertex 0 -3 0
    endloop
  endfacet
  facet normal 0.857736 -0.514091 0
    outer loop
      vertex 2.49441 -1.66671 14
      vertex 2.64576 -1.41419 0
      vertex 2.64576 -1.41419 14
    endloop
  endfacet
  facet normal 0.857736 -0.514091 0
    outer loop
      vertex 2.64576 -1.41419 0
      vertex 2.49441 -1.66671 14
      vertex 2.49441 -1.66671 0
    endloop
  endfacet
  facet normal 0.803204 0.595703 0
    outer loop
      vertex 2.49441 1.66671 14
      vertex 2.31903 1.90318 0
      vertex 2.31903 1.90318 14
    endloop
  endfacet
  facet normal 0.803204 0.595703 0
    outer loop
      vertex 2.31903 1.90318 0
      vertex 2.49441 1.66671 14
      vertex 2.49441 1.66671 0
    endloop
  endfacet
  facet normal -0.336882 -0.941547 0
    outer loop
      vertex -1.14805 -2.77164 0
      vertex -0.870853 -2.87082 14
      vertex -1.14805 -2.77164 14
    endloop
  endfacet
  facet normal -0.336882 -0.941547 -0
    outer loop
      vertex -0.870853 -2.87082 14
      vertex -1.14805 -2.77164 0
      vertex -0.870853 -2.87082 0
    endloop
  endfacet
  facet normal -0.998795 -0.0490819 0
    outer loop
      vertex -2.98555 -0.294051 0
      vertex -3 0 14
      vertex -3 0 0
    endloop
  endfacet
  facet normal -0.998795 -0.0490819 0
    outer loop
      vertex -3 0 14
      vertex -2.98555 -0.294051 0
      vertex -2.98555 -0.294051 14
    endloop
  endfacet
  facet normal 0.242998 0.970027 -0
    outer loop
      vertex 0.870853 2.87082 0
      vertex 0.585271 2.94236 14
      vertex 0.870853 2.87082 14
    endloop
  endfacet
  facet normal 0.242998 0.970027 0
    outer loop
      vertex 0.585271 2.94236 14
      vertex 0.870853 2.87082 0
      vertex 0.585271 2.94236 0
    endloop
  endfacet
  facet normal -0.336882 0.941547 0
    outer loop
      vertex -0.870853 2.87082 0
      vertex -1.14805 2.77164 14
      vertex -0.870853 2.87082 14
    endloop
  endfacet
  facet normal -0.336882 0.941547 0
    outer loop
      vertex -1.14805 2.77164 14
      vertex -0.870853 2.87082 0
      vertex -1.14805 2.77164 0
    endloop
  endfacet
  facet normal 0.989181 0.146703 0
    outer loop
      vertex 2.98555 0.294051 14
      vertex 2.94236 0.585271 0
      vertex 2.94236 0.585271 14
    endloop
  endfacet
  facet normal 0.989181 0.146703 0
    outer loop
      vertex 2.94236 0.585271 0
      vertex 2.98555 0.294051 14
      vertex 2.98555 0.294051 0
    endloop
  endfacet
  facet normal -0.671558 -0.740952 0
    outer loop
      vertex -2.12132 -2.12132 0
      vertex -1.90318 -2.31903 14
      vertex -2.12132 -2.12132 14
    endloop
  endfacet
  facet normal -0.671558 -0.740952 -0
    outer loop
      vertex -1.90318 -2.31903 14
      vertex -2.12132 -2.12132 0
      vertex -1.90318 -2.31903 0
    endloop
  endfacet
  facet normal -0.970027 -0.242998 0
    outer loop
      vertex -2.87082 -0.870853 0
      vertex -2.94236 -0.585271 14
      vertex -2.94236 -0.585271 0
    endloop
  endfacet
  facet normal -0.970027 -0.242998 0
    outer loop
      vertex -2.94236 -0.585271 14
      vertex -2.87082 -0.870853 0
      vertex -2.87082 -0.870853 14
    endloop
  endfacet
  facet normal 0.903983 -0.427569 0
    outer loop
      vertex 2.64576 -1.41419 14
      vertex 2.77164 -1.14805 0
      vertex 2.77164 -1.14805 14
    endloop
  endfacet
  facet normal 0.903983 -0.427569 0
    outer loop
      vertex 2.77164 -1.14805 0
      vertex 2.64576 -1.41419 14
      vertex 2.64576 -1.41419 0
    endloop
  endfacet
  facet normal -0.671558 0.740952 0
    outer loop
      vertex -1.90318 2.31903 0
      vertex -2.12132 2.12132 14
      vertex -1.90318 2.31903 14
    endloop
  endfacet
  facet normal -0.671558 0.740952 0
    outer loop
      vertex -2.12132 2.12132 14
      vertex -1.90318 2.31903 0
      vertex -2.12132 2.12132 0
    endloop
  endfacet
  facet normal -0.595703 -0.803204 0
    outer loop
      vertex -1.90318 -2.31903 0
      vertex -1.66671 -2.49441 14
      vertex -1.90318 -2.31903 14
    endloop
  endfacet
  facet normal -0.595703 -0.803204 -0
    outer loop
      vertex -1.66671 -2.49441 14
      vertex -1.90318 -2.31903 0
      vertex -1.66671 -2.49441 0
    endloop
  endfacet
  facet normal 0.970027 0.242998 0
    outer loop
      vertex 2.94236 0.585271 14
      vertex 2.87082 0.870853 0
      vertex 2.87082 0.870853 14
    endloop
  endfacet
  facet normal 0.970027 0.242998 0
    outer loop
      vertex 2.87082 0.870853 0
      vertex 2.94236 0.585271 14
      vertex 2.94236 0.585271 0
    endloop
  endfacet
  facet normal 0.998795 0.0490819 0
    outer loop
      vertex 3 0 14
      vertex 2.98555 0.294051 0
      vertex 2.98555 0.294051 14
    endloop
  endfacet
  facet normal 0.998795 0.0490819 0
    outer loop
      vertex 2.98555 0.294051 0
      vertex 3 0 14
      vertex 3 0 0
    endloop
  endfacet
  facet normal 0.941547 0.336882 0
    outer loop
      vertex 2.87082 0.870853 14
      vertex 2.77164 1.14805 0
      vertex 2.77164 1.14805 14
    endloop
  endfacet
  facet normal 0.941547 0.336882 0
    outer loop
      vertex 2.77164 1.14805 0
      vertex 2.87082 0.870853 14
      vertex 2.87082 0.870853 0
    endloop
  endfacet
  facet normal -0.998795 0.0490819 0
    outer loop
      vertex -3 0 0
      vertex -2.98555 0.294051 14
      vertex -2.98555 0.294051 0
    endloop
  endfacet
  facet normal -0.998795 0.0490819 0
    outer loop
      vertex -2.98555 0.294051 14
      vertex -3 0 0
      vertex -3 0 14
    endloop
  endfacet
  facet normal 0.989181 -0.146703 0
    outer loop
      vertex 2.94236 -0.585271 14
      vertex 2.98555 -0.294051 0
      vertex 2.98555 -0.294051 14
    endloop
  endfacet
  facet normal 0.989181 -0.146703 0
    outer loop
      vertex 2.98555 -0.294051 0
      vertex 2.94236 -0.585271 14
      vertex 2.94236 -0.585271 0
    endloop
  endfacet
  facet normal -0.514091 -0.857736 0
    outer loop
      vertex -1.66671 -2.49441 0
      vertex -1.41419 -2.64576 14
      vertex -1.66671 -2.49441 14
    endloop
  endfacet
  facet normal -0.514091 -0.857736 -0
    outer loop
      vertex -1.41419 -2.64576 14
      vertex -1.66671 -2.49441 0
      vertex -1.41419 -2.64576 0
    endloop
  endfacet
  facet normal 0.740952 0.671558 0
    outer loop
      vertex 2.31903 1.90318 14
      vertex 2.12132 2.12132 0
      vertex 2.12132 2.12132 14
    endloop
  endfacet
  facet normal 0.740952 0.671558 0
    outer loop
      vertex 2.12132 2.12132 0
      vertex 2.31903 1.90318 14
      vertex 2.31903 1.90318 0
    endloop
  endfacet
  facet normal 0.998795 -0.0490819 0
    outer loop
      vertex 2.98555 -0.294051 14
      vertex 3 0 0
      vertex 3 0 14
    endloop
  endfacet
  facet normal 0.998795 -0.0490819 0
    outer loop
      vertex 3 0 0
      vertex 2.98555 -0.294051 14
      vertex 2.98555 -0.294051 0
    endloop
  endfacet
  facet normal 0.0490819 0.998795 -0
    outer loop
      vertex 0.294051 2.98555 0
      vertex 0 3 14
      vertex 0.294051 2.98555 14
    endloop
  endfacet
  facet normal 0.0490819 0.998795 0
    outer loop
      vertex 0 3 14
      vertex 0.294051 2.98555 0
      vertex 0 3 0
    endloop
  endfacet
  facet normal 0.671558 0.740952 -0
    outer loop
      vertex 2.12132 2.12132 0
      vertex 1.90318 2.31903 14
      vertex 2.12132 2.12132 14
    endloop
  endfacet
  facet normal 0.671558 0.740952 0
    outer loop
      vertex 1.90318 2.31903 14
      vertex 2.12132 2.12132 0
      vertex 1.90318 2.31903 0
    endloop
  endfacet
  facet normal 0.857736 0.514091 0
    outer loop
      vertex 2.64576 1.41419 14
      vertex 2.49441 1.66671 0
      vertex 2.49441 1.66671 14
    endloop
  endfacet
  facet normal 0.857736 0.514091 0
    outer loop
      vertex 2.49441 1.66671 0
      vertex 2.64576 1.41419 14
      vertex 2.64576 1.41419 0
    endloop
  endfacet
  facet normal 0.146703 -0.989181 0
    outer loop
      vertex 0.294051 -2.98555 0
      vertex 0.585271 -2.94236 14
      vertex 0.294051 -2.98555 14
    endloop
  endfacet
  facet normal 0.146703 -0.989181 0
    outer loop
      vertex 0.585271 -2.94236 14
      vertex 0.294051 -2.98555 0
      vertex 0.585271 -2.94236 0
    endloop
  endfacet
  facet normal 0.970027 -0.242998 0
    outer loop
      vertex 2.87082 -0.870853 14
      vertex 2.94236 -0.585271 0
      vertex 2.94236 -0.585271 14
    endloop
  endfacet
  facet normal 0.970027 -0.242998 0
    outer loop
      vertex 2.94236 -0.585271 0
      vertex 2.87082 -0.870853 14
      vertex 2.87082 -0.870853 0
    endloop
  endfacet
  facet normal 0.803204 -0.595703 0
    outer loop
      vertex 2.31903 -1.90318 14
      vertex 2.49441 -1.66671 0
      vertex 2.49441 -1.66671 14
    endloop
  endfacet
  facet normal 0.803204 -0.595703 0
    outer loop
      vertex 2.49441 -1.66671 0
      vertex 2.31903 -1.90318 14
      vertex 2.31903 -1.90318 0
    endloop
  endfacet
  facet normal -0.740952 -0.671558 0
    outer loop
      vertex -2.12132 -2.12132 0
      vertex -2.31903 -1.90318 14
      vertex -2.31903 -1.90318 0
    endloop
  endfacet
  facet normal -0.740952 -0.671558 0
    outer loop
      vertex -2.31903 -1.90318 14
      vertex -2.12132 -2.12132 0
      vertex -2.12132 -2.12132 14
    endloop
  endfacet
  facet normal -0.803204 -0.595703 0
    outer loop
      vertex -2.31903 -1.90318 0
      vertex -2.49441 -1.66671 14
      vertex -2.49441 -1.66671 0
    endloop
  endfacet
  facet normal -0.803204 -0.595703 0
    outer loop
      vertex -2.49441 -1.66671 14
      vertex -2.31903 -1.90318 0
      vertex -2.31903 -1.90318 14
    endloop
  endfacet
  facet normal -0.903983 -0.427569 0
    outer loop
      vertex -2.64576 -1.41419 0
      vertex -2.77164 -1.14805 14
      vertex -2.77164 -1.14805 0
    endloop
  endfacet
  facet normal -0.903983 -0.427569 0
    outer loop
      vertex -2.77164 -1.14805 14
      vertex -2.64576 -1.41419 0
      vertex -2.64576 -1.41419 14
    endloop
  endfacet
  facet normal 0 0 -1
    outer loop
      vertex 2.98555 -0.294051 0
      vertex 2.98555 0.294051 0
      vertex 3 0 0
    endloop
  endfacet
  facet normal 0 0 -1
    outer loop
      vertex 2.94236 -0.585271 0
      vertex 2.98555 0.294051 0
      vertex 2.98555 -0.294051 0
    endloop
  endfacet
  facet normal 0 0 -1
    outer loop
      vertex 2.94236 -0.585271 0
      vertex 2.94236 0.585271 0
      vertex 2.98555 0.294051 0
    endloop
  endfacet
  facet normal 0 0 -1
    outer loop
      vertex 2.87082 -0.870853 0
      vertex 2.94236 0.585271 0
      vertex 2.94236 -0.585271 0
    endloop
  endfacet
  facet normal 0 0 -1
    outer loop
      vertex 2.87082 -0.870853 0
      vertex 2.87082 0.870853 0
      vertex 2.94236 0.585271 0
    endloop
  endfacet
  facet normal 0 0 -1
    outer loop
      vertex 2.77164 -1.14805 0
      vertex 2.87082 0.870853 0
      vertex 2.87082 -0.870853 0
    endloop
  endfacet
  facet normal 0 0 -1
    outer loop
      vertex 2.77164 -1.14805 0
      vertex 2.77164 1.14805 0
      vertex 2.87082 0.870853 0
    endloop
  endfacet
  facet normal 0 0 -1
    outer loop
      vertex 2.64576 -1.41419 0
      vertex 2.77164 1.14805 0
      vertex 2.77164 -1.14805 0
    endloop
  endfacet
  facet normal 0 0 -1
    outer loop
      vertex 2.64576 -1.41419 0
      vertex 2.64576 1.41419 0
      vertex 2.77164 1.14805 0
    endloop
  endfacet
  facet normal 0 0 -1
    outer loop
      vertex 2.49441 -1.66671 0
      vertex 2.64576 1.41419 0
      vertex 2.64576 -1.41419 0
    endloop
  endfacet
  facet normal 0 0 -1
    outer loop
      vertex 2.49441 -1.66671 0
      vertex 2.49441 1.66671 0
      vertex 2.64576 1.41419 0
    endloop
  endfacet
  facet normal 0 0 -1
    outer loop
      vertex 2.31903 -1.90318 0
      vertex 2.49441 1.66671 0
      vertex 2.49441 -1.66671 0
    endloop
  endfacet
  facet normal 0 0 -1
    outer loop
      vertex 2.31903 -1.90318 0
      vertex 2.31903 1.90318 0
      vertex 2.49441 1.66671 0
    endloop
  endfacet
  facet normal 0 0 -1
    outer loop
      vertex 2.12132 -2.12132 0
      vertex 2.31903 1.90318 0
      vertex 2.31903 -1.90318 0
    endloop
  endfacet
  facet normal 0 0 -1
    outer loop
      vertex 2.12132 -2.12132 0
      vertex 2.12132 2.12132 0
      vertex 2.31903 1.90318 0
    endloop
  endfacet
  facet normal 0 0 -1
    outer loop
      vertex 1.90318 -2.31903 0
      vertex 2.12132 2.12132 0
      vertex 2.12132 -2.12132 0
    endloop
  endfacet
  facet normal 0 0 -1
    outer loop
      vertex 1.90318 -2.31903 0
      vertex 1.90318 2.31903 0
      vertex 2.12132 2.12132 0
    endloop
  endfacet
  facet normal 0 0 -1
    outer loop
      vertex 1.66671 -2.49441 0
      vertex 1.90318 2.31903 0
      vertex 1.90318 -2.31903 0
    endloop
  endfacet
  facet normal 0 0 -1
    outer loop
      vertex 1.66671 -2.49441 0
      vertex 1.66671 2.49441 0
      vertex 1.90318 2.31903 0
    endloop
  endfacet
  facet normal 0 0 -1
    outer loop
      vertex 1.41419 -2.64576 0
      vertex 1.66671 2.49441 0
      vertex 1.66671 -2.49441 0
    endloop
  endfacet
  facet normal 0 0 -1
    outer loop
      vertex 1.41419 -2.64576 0
      vertex 1.41419 2.64576 0
      vertex 1.66671 2.49441 0
    endloop
  endfacet
  facet normal 0 0 -1
    outer loop
      vertex 1.14805 -2.77164 0
      vertex 1.41419 2.64576 0
      vertex 1.41419 -2.64576 0
    endloop
  endfacet
  facet normal 0 0 -1
    outer loop
      vertex 1.14805 -2.77164 0
      vertex 1.14805 2.77164 0
      vertex 1.41419 2.64576 0
    endloop
  endfacet
  facet normal 0 0 -1
    outer loop
      vertex 0.870853 -2.87082 0
      vertex 1.14805 2.77164 0
      vertex 1.14805 -2.77164 0
    endloop
  endfacet
  facet normal 0 0 -1
    outer loop
      vertex 0.870853 -2.87082 0
      vertex 0.870853 2.87082 0
      vertex 1.14805 2.77164 0
    endloop
  endfacet
  facet normal 0 0 -1
    outer loop
      vertex 0.585271 -2.94236 0
      vertex 0.870853 2.87082 0
      vertex 0.870853 -2.87082 0
    endloop
  endfacet
  facet normal 0 0 -1
    outer loop
      vertex 0.585271 -2.94236 0
      vertex 0.585271 2.94236 0
      vertex 0.870853 2.87082 0
    endloop
  endfacet
  facet normal 0 0 -1
    outer loop
      vertex 0.294051 -2.98555 0
      vertex 0.585271 2.94236 0
      vertex 0.585271 -2.94236 0
    endloop
  endfacet
  facet normal 0 0 -1
    outer loop
      vertex 0.294051 -2.98555 0
      vertex 0.294051 2.98555 0
      vertex 0.585271 2.94236 0
    endloop
  endfacet
  facet normal 0 0 -1
    outer loop
      vertex 0 -3 0
      vertex 0.294051 2.98555 0
      vertex 0.294051 -2.98555 0
    endloop
  endfacet
  facet normal 0 0 -1
    outer loop
      vertex 0 -3 0
      vertex 0 3 0
      vertex 0.294051 2.98555 0
    endloop
  endfacet
  facet normal 0 0 -1
    outer loop
      vertex -0.294051 -2.98555 0
      vertex 0 3 0
      vertex 0 -3 0
    endloop
  endfacet
  facet normal 0 0 -1
    outer loop
      vertex -0.294051 -2.98555 0
      vertex -0.294051 2.98555 0
      vertex 0 3 0
    endloop
  endfacet
  facet normal 0 0 -1
    outer loop
      vertex -0.585271 -2.94236 0
      vertex -0.294051 2.98555 0
      vertex -0.294051 -2.98555 0
    endloop
  endfacet
  facet normal 0 0 -1
    outer loop
      vertex -0.585271 -2.94236 0
      vertex -0.585271 2.94236 0
      vertex -0.294051 2.98555 0
    endloop
  endfacet
  facet normal 0 0 -1
    outer loop
      vertex -0.870853 -2.87082 0
      vertex -0.585271 2.94236 0
      vertex -0.585271 -2.94236 0
    endloop
  endfacet
  facet normal 0 0 -1
    outer loop
      vertex -0.870853 -2.87082 0
      vertex -0.870853 2.87082 0
      vertex -0.585271 2.94236 0
    endloop
  endfacet
  facet normal 0 0 -1
    outer loop
      vertex -1.14805 -2.77164 0
      vertex -0.870853 2.87082 0
      vertex -0.870853 -2.87082 0
    endloop
  endfacet
  facet normal 0 0 -1
    outer loop
      vertex -1.14805 -2.77164 0
      vertex -1.14805 2.77164 0
      vertex -0.870853 2.87082 0
    endloop
  endfacet
  facet normal 0 0 -1
    outer loop
      vertex -1.41419 -2.64576 0
      vertex -1.14805 2.77164 0
      vertex -1.14805 -2.77164 0
    endloop
  endfacet
  facet normal 0 0 -1
    outer loop
      vertex -1.41419 -2.64576 0
      vertex -1.41419 2.64576 0
      vertex -1.14805 2.77164 0
    endloop
  endfacet
  facet normal 0 0 -1
    outer loop
      vertex -1.66671 -2.49441 0
      vertex -1.41419 2.64576 0
      vertex -1.41419 -2.64576 0
    endloop
  endfacet
  facet normal 0 0 -1
    outer loop
      vertex -1.66671 -2.49441 0
      vertex -1.66671 2.49441 0
      vertex -1.41419 2.64576 0
    endloop
  endfacet
  facet normal 0 0 -1
    outer loop
      vertex -1.90318 -2.31903 0
      vertex -1.66671 2.49441 0
      vertex -1.66671 -2.49441 0
    endloop
  endfacet
  facet normal 0 0 -1
    outer loop
      vertex -1.90318 -2.31903 0
      vertex -1.90318 2.31903 0
      vertex -1.66671 2.49441 0
    endloop
  endfacet
  facet normal 0 0 -1
    outer loop
      vertex -2.12132 -2.12132 0
      vertex -1.90318 2.31903 0
      vertex -1.90318 -2.31903 0
    endloop
  endfacet
  facet normal 0 0 -1
    outer loop
      vertex -2.12132 -2.12132 0
      vertex -2.12132 2.12132 0
      vertex -1.90318 2.31903 0
    endloop
  endfacet
  facet normal 0 0 -1
    outer loop
      vertex -2.31903 -1.90318 0
      vertex -2.12132 2.12132 0
      vertex -2.12132 -2.12132 0
    endloop
  endfacet
  facet normal 0 0 -1
    outer loop
      vertex -2.31903 -1.90318 0
      vertex -2.31903 1.90318 0
      vertex -2.12132 2.12132 0
    endloop
  endfacet
  facet normal 0 0 -1
    outer loop
      vertex -2.49441 -1.66671 0
      vertex -2.31903 1.90318 0
      vertex -2.31903 -1.90318 0
    endloop
  endfacet
  facet normal 0 0 -1
    outer loop
      vertex -2.49441 -1.66671 0
      vertex -2.49441 1.66671 0
      vertex -2.31903 1.90318 0
    endloop
  endfacet
  facet normal 0 0 -1
    outer loop
      vertex -2.64576 -1.41419 0
      vertex -2.49441 1.66671 0
      vertex -2.49441 -1.66671 0
    endloop
  endfacet
  facet normal 0 0 -1
    outer loop
      vertex -2.64576 -1.41419 0
      vertex -2.64576 1.41419 0
      vertex -2.49441 1.66671 0
    endloop
  endfacet
  facet normal 0 0 -1
    outer loop
      vertex -2.77164 -1.14805 0
      vertex -2.64576 1.41419 0
      vertex -2.64576 -1.41419 0
    endloop
  endfacet
  facet normal 0 0 -1
    outer loop
      vertex -2.77164 -1.14805 0
      vertex -2.77164 1.14805 0
      vertex -2.64576 1.41419 0
    endloop
  endfacet
  facet normal 0 0 -1
    outer loop
      vertex -2.87082 -0.870853 0
      vertex -2.77164 1.14805 0
      vertex -2.77164 -1.14805 0
    endloop
  endfacet
  facet normal 0 0 -1
    outer loop
      vertex -2.87082 -0.870853 0
      vertex -2.87082 0.870853 0
      vertex -2.77164 1.14805 0
    endloop
  endfacet
  facet normal 0 0 -1
    outer loop
      vertex -2.94236 -0.585271 0
      vertex -2.87082 0.870853 0
      vertex -2.87082 -0.870853 0
    endloop
  endfacet
  facet normal 0 0 -1
    outer loop
      vertex -2.94236 -0.585271 0
      vertex -2.94236 0.585271 0
      vertex -2.87082 0.870853 0
    endloop
  endfacet
  facet normal 0 0 -1
    outer loop
      vertex -2.98555 -0.294051 0
      vertex -2.94236 0.585271 0
      vertex -2.94236 -0.585271 0
    endloop
  endfacet
  facet normal 0 0 -1
    outer loop
      vertex -2.98555 -0.294051 0
      vertex -2.98555 0.294051 0
      vertex -2.94236 0.585271 0
    endloop
  endfacet
  facet normal 0 -0 -1
    outer loop
      vertex -2.98555 0.294051 0
      vertex -2.98555 -0.294051 0
      vertex -3 0 0
    endloop
  endfacet
  facet normal -0.989181 0.146703 0
    outer loop
      vertex -2.98555 0.294051 0
      vertex -2.94236 0.585271 14
      vertex -2.94236 0.585271 0
    endloop
  endfacet
  facet normal -0.989181 0.146703 0
    outer loop
      vertex -2.94236 0.585271 14
      vertex -2.98555 0.294051 0
      vertex -2.98555 0.294051 14
    endloop
  endfacet
  facet normal 0.514091 -0.857736 0
    outer loop
      vertex 1.41419 -2.64576 0
      vertex 1.66671 -2.49441 14
      vertex 1.41419 -2.64576 14
    endloop
  endfacet
  facet normal 0.514091 -0.857736 0
    outer loop
      vertex 1.66671 -2.49441 14
      vertex 1.41419 -2.64576 0
      vertex 1.66671 -2.49441 0
    endloop
  endfacet
  facet normal -0.0490819 0.998795 0
    outer loop
      vertex 0 3 0
      vertex -0.294051 2.98555 14
      vertex 0 3 14
    endloop
  endfacet
  facet normal -0.0490819 0.998795 0
    outer loop
      vertex -0.294051 2.98555 14
      vertex 0 3 0
      vertex -0.294051 2.98555 0
    endloop
  endfacet
  facet normal -0.146703 0.989181 0
    outer loop
      vertex -0.294051 2.98555 0
      vertex -0.585271 2.94236 14
      vertex -0.294051 2.98555 14
    endloop
  endfacet
  facet normal -0.146703 0.989181 0
    outer loop
      vertex -0.585271 2.94236 14
      vertex -0.294051 2.98555 0
      vertex -0.585271 2.94236 0
    endloop
  endfacet
  facet normal 0.595703 -0.803204 0
    outer loop
      vertex 1.66671 -2.49441 0
      vertex 1.90318 -2.31903 14
      vertex 1.66671 -2.49441 14
    endloop
  endfacet
  facet normal 0.595703 -0.803204 0
    outer loop
      vertex 1.90318 -2.31903 14
      vertex 1.66671 -2.49441 0
      vertex 1.90318 -2.31903 0
    endloop
  endfacet
  facet normal -0.941547 -0.336882 0
    outer loop
      vertex -2.77164 -1.14805 0
      vertex -2.87082 -0.870853 14
      vertex -2.87082 -0.870853 0
    endloop
  endfacet
  facet normal -0.941547 -0.336882 0
    outer loop
      vertex -2.87082 -0.870853 14
      vertex -2.77164 -1.14805 0
      vertex -2.77164 -1.14805 14
    endloop
  endfacet
  facet normal -0.242998 -0.970027 0
    outer loop
      vertex -0.870853 -2.87082 0
      vertex -0.585271 -2.94236 14
      vertex -0.870853 -2.87082 14
    endloop
  endfacet
  facet normal -0.242998 -0.970027 -0
    outer loop
      vertex -0.585271 -2.94236 14
      vertex -0.870853 -2.87082 0
      vertex -0.585271 -2.94236 0
    endloop
  endfacet
  facet normal 0.903983 0.427569 0
    outer loop
      vertex 2.77164 1.14805 14
      vertex 2.64576 1.41419 0
      vertex 2.64576 1.41419 14
    endloop
  endfacet
  facet normal 0.903983 0.427569 0
    outer loop
      vertex 2.64576 1.41419 0
      vertex 2.77164 1.14805 14
      vertex 2.77164 1.14805 0
    endloop
  endfacet
  facet normal 0.740952 -0.671558 0
    outer loop
      vertex 2.12132 -2.12132 14
      vertex 2.31903 -1.90318 0
      vertex 2.31903 -1.90318 14
    endloop
  endfacet
  facet normal 0.740952 -0.671558 0
    outer loop
      vertex 2.31903 -1.90318 0
      vertex 2.12132 -2.12132 14
      vertex 2.12132 -2.12132 0
    endloop
  endfacet
  facet normal 0.0490819 -0.998795 0
    outer loop
      vertex 0 -3 0
      vertex 0.294051 -2.98555 14
      vertex 0 -3 14
    endloop
  endfacet
  facet normal 0.0490819 -0.998795 0
    outer loop
      vertex 0.294051 -2.98555 14
      vertex 0 -3 0
      vertex 0.294051 -2.98555 0
    endloop
  endfacet
  facet normal 0.427569 0.903983 -0
    outer loop
      vertex 1.41419 2.64576 0
      vertex 1.14805 2.77164 14
      vertex 1.41419 2.64576 14
    endloop
  endfacet
  facet normal 0.427569 0.903983 0
    outer loop
      vertex 1.14805 2.77164 14
      vertex 1.41419 2.64576 0
      vertex 1.14805 2.77164 0
    endloop
  endfacet
  facet normal -0.595703 0.803204 0
    outer loop
      vertex -1.66671 2.49441 0
      vertex -1.90318 2.31903 14
      vertex -1.66671 2.49441 14
    endloop
  endfacet
  facet normal -0.595703 0.803204 0
    outer loop
      vertex -1.90318 2.31903 14
      vertex -1.66671 2.49441 0
      vertex -1.90318 2.31903 0
    endloop
  endfacet
  facet normal 0.514091 0.857736 -0
    outer loop
      vertex 1.66671 2.49441 0
      vertex 1.41419 2.64576 14
      vertex 1.66671 2.49441 14
    endloop
  endfacet
  facet normal 0.514091 0.857736 0
    outer loop
      vertex 1.41419 2.64576 14
      vertex 1.66671 2.49441 0
      vertex 1.41419 2.64576 0
    endloop
  endfacet
  facet normal 0.595703 0.803204 -0
    outer loop
      vertex 1.90318 2.31903 0
      vertex 1.66671 2.49441 14
      vertex 1.90318 2.31903 14
    endloop
  endfacet
  facet normal 0.595703 0.803204 0
    outer loop
      vertex 1.66671 2.49441 14
      vertex 1.90318 2.31903 0
      vertex 1.66671 2.49441 0
    endloop
  endfacet
  facet normal -0.242998 0.970027 0
    outer loop
      vertex -0.585271 2.94236 0
      vertex -0.870853 2.87082 14
      vertex -0.585271 2.94236 14
    endloop
  endfacet
  facet normal -0.242998 0.970027 0
    outer loop
      vertex -0.870853 2.87082 14
      vertex -0.585271 2.94236 0
      vertex -0.870853 2.87082 0
    endloop
  endfacet
  facet normal -0.941547 0.336882 0
    outer loop
      vertex -2.87082 0.870853 0
      vertex -2.77164 1.14805 14
      vertex -2.77164 1.14805 0
    endloop
  endfacet
  facet normal -0.941547 0.336882 0
    outer loop
      vertex -2.77164 1.14805 14
      vertex -2.87082 0.870853 0
      vertex -2.87082 0.870853 14
    endloop
  endfacet
  facet normal -0.427569 0.903983 0
    outer loop
      vertex -1.14805 2.77164 0
      vertex -1.41419 2.64576 14
      vertex -1.14805 2.77164 14
    endloop
  endfacet
  facet normal -0.427569 0.903983 0
    outer loop
      vertex -1.41419 2.64576 14
      vertex -1.14805 2.77164 0
      vertex -1.41419 2.64576 0
    endloop
  endfacet
  facet normal -0.989181 -0.146703 0
    outer loop
      vertex -2.94236 -0.585271 0
      vertex -2.98555 -0.294051 14
      vertex -2.98555 -0.294051 0
    endloop
  endfacet
  facet normal -0.989181 -0.146703 0
    outer loop
      vertex -2.98555 -0.294051 14
      vertex -2.94236 -0.585271 0
      vertex -2.94236 -0.585271 14
    endloop
  endfacet
  facet normal 0.941547 -0.336882 0
    outer loop
      vertex 2.77164 -1.14805 14
      vertex 2.87082 -0.870853 0
      vertex 2.87082 -0.870853 14
    endloop
  endfacet
  facet normal 0.941547 -0.336882 0
    outer loop
      vertex 2.87082 -0.870853 0
      vertex 2.77164 -1.14805 14
      vertex 2.77164 -1.14805 0
    endloop
  endfacet
  facet normal 0.427569 -0.903983 0
    outer loop
      vertex 1.14805 -2.77164 0
      vertex 1.41419 -2.64576 14
      vertex 1.14805 -2.77164 14
    endloop
  endfacet
  facet normal 0.427569 -0.903983 0
    outer loop
      vertex 1.41419 -2.64576 14
      vertex 1.14805 -2.77164 0
      vertex 1.41419 -2.64576 0
    endloop
  endfacet
  facet normal 0.336882 -0.941547 0
    outer loop
      vertex 0.870853 -2.87082 0
      vertex 1.14805 -2.77164 14
      vertex 0.870853 -2.87082 14
    endloop
  endfacet
  facet normal 0.336882 -0.941547 0
    outer loop
      vertex 1.14805 -2.77164 14
      vertex 0.870853 -2.87082 0
      vertex 1.14805 -2.77164 0
    endloop
  endfacet
  facet normal -0.427569 -0.903983 0
    outer loop
      vertex -1.41419 -2.64576 0
      vertex -1.14805 -2.77164 14
      vertex -1.41419 -2.64576 14
    endloop
  endfacet
  facet normal -0.427569 -0.903983 -0
    outer loop
      vertex -1.14805 -2.77164 14
      vertex -1.41419 -2.64576 0
      vertex -1.14805 -2.77164 0
    endloop
  endfacet
  facet normal 0.242998 -0.970027 0
    outer loop
      vertex 0.585271 -2.94236 0
      vertex 0.870853 -2.87082 14
      vertex 0.585271 -2.94236 14
    endloop
  endfacet
  facet normal 0.242998 -0.970027 0
    outer loop
      vertex 0.870853 -2.87082 14
      vertex 0.585271 -2.94236 0
      vertex 0.870853 -2.87082 0
    endloop
  endfacet
  facet normal -0.740952 0.671558 0
    outer loop
      vertex -2.31903 1.90318 0
      vertex -2.12132 2.12132 14
      vertex -2.12132 2.12132 0
    endloop
  endfacet
  facet normal -0.740952 0.671558 0
    outer loop
      vertex -2.12132 2.12132 14
      vertex -2.31903 1.90318 0
      vertex -2.31903 1.90318 14
    endloop
  endfacet
  facet normal 0 0 1
    outer loop
      vertex 2.98555 0.294051 14
      vertex 2.98555 -0.294051 14
      vertex 3 0 14
    endloop
  endfacet
  facet normal 0 0 1
    outer loop
      vertex 2.94236 0.585271 14
      vertex 2.98555 -0.294051 14
      vertex 2.98555 0.294051 14
    endloop
  endfacet
  facet normal 0 0 1
    outer loop
      vertex 2.94236 0.585271 14
      vertex 2.94236 -0.585271 14
      vertex 2.98555 -0.294051 14
    endloop
  endfacet
  facet normal 0 0 1
    outer loop
      vertex 2.87082 0.870853 14
      vertex 2.94236 -0.585271 14
      vertex 2.94236 0.585271 14
    endloop
  endfacet
  facet normal 0 0 1
    outer loop
      vertex 2.87082 0.870853 14
      vertex 2.87082 -0.870853 14
      vertex 2.94236 -0.585271 14
    endloop
  endfacet
  facet normal 0 0 1
    outer loop
      vertex 2.77164 1.14805 14
      vertex 2.87082 -0.870853 14
      vertex 2.87082 0.870853 14
    endloop
  endfacet
  facet normal 0 0 1
    outer loop
      vertex 2.77164 1.14805 14
      vertex 2.77164 -1.14805 14
      vertex 2.87082 -0.870853 14
    endloop
  endfacet
  facet normal 0 0 1
    outer loop
      vertex 2.64576 1.41419 14
      vertex 2.77164 -1.14805 14
      vertex 2.77164 1.14805 14
    endloop
  endfacet
  facet normal 0 0 1
    outer loop
      vertex 2.64576 1.41419 14
      vertex 2.64576 -1.41419 14
      vertex 2.77164 -1.14805 14
    endloop
  endfacet
  facet normal 0 0 1
    outer loop
      vertex 2.49441 1.66671 14
      vertex 2.64576 -1.41419 14
      vertex 2.64576 1.41419 14
    endloop
  endfacet
  facet normal 0 0 1
    outer loop
      vertex 2.49441 1.66671 14
      vertex 2.49441 -1.66671 14
      vertex 2.64576 -1.41419 14
    endloop
  endfacet
  facet normal 0 0 1
    outer loop
      vertex 2.31903 1.90318 14
      vertex 2.49441 -1.66671 14
      vertex 2.49441 1.66671 14
    endloop
  endfacet
  facet normal 0 0 1
    outer loop
      vertex 2.31903 1.90318 14
      vertex 2.31903 -1.90318 14
      vertex 2.49441 -1.66671 14
    endloop
  endfacet
  facet normal 0 0 1
    outer loop
      vertex 2.12132 2.12132 14
      vertex 2.31903 -1.90318 14
      vertex 2.31903 1.90318 14
    endloop
  endfacet
  facet normal 0 0 1
    outer loop
      vertex 2.12132 2.12132 14
      vertex 2.12132 -2.12132 14
      vertex 2.31903 -1.90318 14
    endloop
  endfacet
  facet normal 0 0 1
    outer loop
      vertex 1.90318 2.31903 14
      vertex 2.12132 -2.12132 14
      vertex 2.12132 2.12132 14
    endloop
  endfacet
  facet normal 0 0 1
    outer loop
      vertex 1.90318 2.31903 14
      vertex 1.90318 -2.31903 14
      vertex 2.12132 -2.12132 14
    endloop
  endfacet
  facet normal 0 0 1
    outer loop
      vertex 1.66671 2.49441 14
      vertex 1.90318 -2.31903 14
      vertex 1.90318 2.31903 14
    endloop
  endfacet
  facet normal 0 0 1
    outer loop
      vertex 1.66671 2.49441 14
      vertex 1.66671 -2.49441 14
      vertex 1.90318 -2.31903 14
    endloop
  endfacet
  facet normal 0 0 1
    outer loop
      vertex 1.41419 2.64576 14
      vertex 1.66671 -2.49441 14
      vertex 1.66671 2.49441 14
    endloop
  endfacet
  facet normal 0 0 1
    outer loop
      vertex 1.41419 2.64576 14
      vertex 1.41419 -2.64576 14
      vertex 1.66671 -2.49441 14
    endloop
  endfacet
  facet normal 0 0 1
    outer loop
      vertex 1.14805 2.77164 14
      vertex 1.41419 -2.64576 14
      vertex 1.41419 2.64576 14
    endloop
  endfacet
  facet normal 0 0 1
    outer loop
      vertex 1.14805 2.77164 14
      vertex 1.14805 -2.77164 14
      vertex 1.41419 -2.64576 14
    endloop
  endfacet
  facet normal 0 0 1
    outer loop
      vertex 0.870853 2.87082 14
      vertex 1.14805 -2.77164 14
      vertex 1.14805 2.77164 14
    endloop
  endfacet
  facet normal 0 0 1
    outer loop
      vertex 0.870853 2.87082 14
      vertex 0.870853 -2.87082 14
      vertex 1.14805 -2.77164 14
    endloop
  endfacet
  facet normal 0 0 1
    outer loop
      vertex 0.585271 2.94236 14
      vertex 0.870853 -2.87082 14
      vertex 0.870853 2.87082 14
    endloop
  endfacet
  facet normal 0 0 1
    outer loop
      vertex 0.585271 2.94236 14
      vertex 0.585271 -2.94236 14
      vertex 0.870853 -2.87082 14
    endloop
  endfacet
  facet normal 0 0 1
    outer loop
      vertex 0.294051 2.98555 14
      vertex 0.585271 -2.94236 14
      vertex 0.585271 2.94236 14
    endloop
  endfacet
  facet normal 0 0 1
    outer loop
      vertex 0.294051 2.98555 14
      vertex 0.294051 -2.98555 14
      vertex 0.585271 -2.94236 14
    endloop
  endfacet
  facet normal 0 0 1
    outer loop
      vertex 0 3 14
      vertex 0.294051 -2.98555 14
      vertex 0.294051 2.98555 14
    endloop
  endfacet
  facet normal 0 0 1
    outer loop
      vertex 0 3 14
      vertex 0 -3 14
      vertex 0.294051 -2.98555 14
    endloop
  endfacet
  facet normal -0 0 1
    outer loop
      vertex -0.294051 2.98555 14
      vertex 0 -3 14
      vertex 0 3 14
    endloop
  endfacet
  facet normal 0 0 1
    outer loop
      vertex -0.294051 2.98555 14
      vertex -0.294051 -2.98555 14
      vertex 0 -3 14
    endloop
  endfacet
  facet normal -0 0 1
    outer loop
      vertex -0.585271 2.94236 14
      vertex -0.294051 -2.98555 14
      vertex -0.294051 2.98555 14
    endloop
  endfacet
  facet normal 0 0 1
    outer loop
      vertex -0.585271 2.94236 14
      vertex -0.585271 -2.94236 14
      vertex -0.294051 -2.98555 14
    endloop
  endfacet
  facet normal -0 0 1
    outer loop
      vertex -0.870853 2.87082 14
      vertex -0.585271 -2.94236 14
      vertex -0.585271 2.94236 14
    endloop
  endfacet
  facet normal 0 0 1
    outer loop
      vertex -0.870853 2.87082 14
      vertex -0.870853 -2.87082 14
      vertex -0.585271 -2.94236 14
    endloop
  endfacet
  facet normal -0 0 1
    outer loop
      vertex -1.14805 2.77164 14
      vertex -0.870853 -2.87082 14
      vertex -0.870853 2.87082 14
    endloop
  endfacet
  facet normal 0 0 1
    outer loop
      vertex -1.14805 2.77164 14
      vertex -1.14805 -2.77164 14
      vertex -0.870853 -2.87082 14
    endloop
  endfacet
  facet normal -0 0 1
    outer loop
      vertex -1.41419 2.64576 14
      vertex -1.14805 -2.77164 14
      vertex -1.14805 2.77164 14
    endloop
  endfacet
  facet normal 0 0 1
    outer loop
      vertex -1.41419 2.64576 14
      vertex -1.41419 -2.64576 14
      vertex -1.14805 -2.77164 14
    endloop
  endfacet
  facet normal -0 0 1
    outer loop
      vertex -1.66671 2.49441 14
      vertex -1.41419 -2.64576 14
      vertex -1.41419 2.64576 14
    endloop
  endfacet
  facet normal 0 0 1
    outer loop
      vertex -1.66671 2.49441 14
      vertex -1.66671 -2.49441 14
      vertex -1.41419 -2.64576 14
    endloop
  endfacet
  facet normal -0 0 1
    outer loop
      vertex -1.90318 2.31903 14
      vertex -1.66671 -2.49441 14
      vertex -1.66671 2.49441 14
    endloop
  endfacet
  facet normal 0 0 1
    outer loop
      vertex -1.90318 2.31903 14
      vertex -1.90318 -2.31903 14
      vertex -1.66671 -2.49441 14
    endloop
  endfacet
  facet normal -0 0 1
    outer loop
      vertex -2.12132 2.12132 14
      vertex -1.90318 -2.31903 14
      vertex -1.90318 2.31903 14
    endloop
  endfacet
  facet normal 0 0 1
    outer loop
      vertex -2.12132 2.12132 14
      vertex -2.12132 -2.12132 14
      vertex -1.90318 -2.31903 14
    endloop
  endfacet
  facet normal -0 0 1
    outer loop
      vertex -2.31903 1.90318 14
      vertex -2.12132 -2.12132 14
      vertex -2.12132 2.12132 14
    endloop
  endfacet
  facet normal 0 0 1
    outer loop
      vertex -2.31903 1.90318 14
      vertex -2.31903 -1.90318 14
      vertex -2.12132 -2.12132 14
    endloop
  endfacet
  facet normal -0 0 1
    outer loop
      vertex -2.49441 1.66671 14
      vertex -2.31903 -1.90318 14
      vertex -2.31903 1.90318 14
    endloop
  endfacet
  facet normal 0 0 1
    outer loop
      vertex -2.49441 1.66671 14
      vertex -2.49441 -1.66671 14
      vertex -2.31903 -1.90318 14
    endloop
  endfacet
  facet normal -0 0 1
    outer loop
      vertex -2.64576 1.41419 14
      vertex -2.49441 -1.66671 14
      vertex -2.49441 1.66671 14
    endloop
  endfacet
  facet normal 0 0 1
    outer loop
      vertex -2.64576 1.41419 14
      vertex -2.64576 -1.41419 14
      vertex -2.49441 -1.66671 14
    endloop
  endfacet
  facet normal -0 0 1
    outer loop
      vertex -2.77164 1.14805 14
      vertex -2.64576 -1.41419 14
      vertex -2.64576 1.41419 14
    endloop
  endfacet
  facet normal 0 0 1
    outer loop
      vertex -2.77164 1.14805 14
      vertex -2.77164 -1.14805 14
      vertex -2.64576 -1.41419 14
    endloop
  endfacet
  facet normal -0 0 1
    outer loop
      vertex -2.87082 0.870853 14
      vertex -2.77164 -1.14805 14
      vertex -2.77164 1.14805 14
    endloop
  endfacet
  facet normal 0 0 1
    outer loop
      vertex -2.87082 0.870853 14
      vertex -2.87082 -0.870853 14
      vertex -2.77164 -1.14805 14
    endloop
  endfacet
  facet normal -0 0 1
    outer loop
      vertex -2.94236 0.585271 14
      vertex -2.87082 -0.870853 14
      vertex -2.87082 0.870853 14
    endloop
  endfacet
  facet normal 0 0 1
    outer loop
      vertex -2.94236 0.585271 14
      vertex -2.94236 -0.585271 14
      vertex -2.87082 -0.870853 14
    endloop
  endfacet
  facet normal -0 0 1
    outer loop
      vertex -2.98555 0.294051 14
      vertex -2.94236 -0.585271 14
      vertex -2.94236 0.585271 14
    endloop
  endfacet
  facet normal 0 0 1
    outer loop
      vertex -2.98555 0.294051 14
      vertex -2.98555 -0.294051 14
      vertex -2.94236 -0.585271 14
    endloop
  endfacet
  facet normal 0 -0 1
    outer loop
      vertex -2.98555 -0.294051 14
      vertex -2.98555 0.294051 14
      vertex -3 0 14
    endloop
  endfacet
  facet normal -0.857736 -0.514091 0
    outer loop
      vertex -2.49441 -1.66671 0
      vertex -2.64576 -1.41419 14
      vertex -2.64576 -1.41419 0
    endloop
  endfacet
  facet normal -0.857736 -0.514091 0
    outer loop
      vertex -2.64576 -1.41419 14
      vertex -2.49441 -1.66671 0
      vertex -2.49441 -1.66671 14
    endloop
  endfacet
  facet normal -0.146703 -0.989181 0
    outer loop
      vertex -0.585271 -2.94236 0
      vertex -0.294051 -2.98555 14
      vertex -0.585271 -2.94236 14
    endloop
  endfacet
  facet normal -0.146703 -0.989181 -0
    outer loop
      vertex -0.294051 -2.98555 14
      vertex -0.585271 -2.94236 0
      vertex -0.294051 -2.98555 0
    endloop
  endfacet
  facet normal 0.336882 0.941547 -0
    outer loop
      vertex 1.14805 2.77164 0
      vertex 0.870853 2.87082 14
      vertex 1.14805 2.77164 14
    endloop
  endfacet
  facet normal 0.336882 0.941547 0
    outer loop
      vertex 0.870853 2.87082 14
      vertex 1.14805 2.77164 0
      vertex 0.870853 2.87082 0
    endloop
  endfacet
  facet normal 0.671558 -0.740952 0
    outer loop
      vertex 1.90318 -2.31903 0
      vertex 2.12132 -2.12132 14
      vertex 1.90318 -2.31903 14
    endloop
  endfacet
  facet normal 0.671558 -0.740952 0
    outer loop
      vertex 2.12132 -2.12132 14
      vertex 1.90318 -2.31903 0
      vertex 2.12132 -2.12132 0
    endloop
  endfacet
  facet normal -0.857736 0.514091 0
    outer loop
      vertex -2.64576 1.41419 0
      vertex -2.49441 1.66671 14
      vertex -2.49441 1.66671 0
    endloop
  endfacet
  facet normal -0.857736 0.514091 0
    outer loop
      vertex -2.49441 1.66671 14
      vertex -2.64576 1.41419 0
      vertex -2.64576 1.41419 14
    endloop
  endfacet
  facet normal -0.803204 0.595703 0
    outer loop
      vertex -2.49441 1.66671 0
      vertex -2.31903 1.90318 14
      vertex -2.31903 1.90318 0
    endloop
  endfacet
  facet normal -0.803204 0.595703 0
    outer loop
      vertex -2.31903 1.90318 14
      vertex -2.49441 1.66671 0
      vertex -2.49441 1.66671 14
    endloop
  endfacet
endsolid OpenSCAD_Model
