solid OpenSCAD_Model
  facet normal 1 -0 0
    outer loop
      vertex 15 -15 6
      vertex 15 15 0
      vertex 15 15 6
    endloop
  endfacet
  facet normal 1 0 0
    outer loop
      vertex 15 15 0
      vertex 15 -15 6
      vertex 15 -15 0
    endloop
  endfacet
  facet normal 0 0 1
    outer loop
      vertex 15 15 6
      vertex 3.25 0 6
      vertex 15 -15 6
    endloop
  endfacet
  facet normal 0 0 1
    outer loop
      vertex 15 15 6
      vertex 3.23435 0.318555 6
      vertex 3.25 0 6
    endloop
  endfacet
  facet normal 0 0 1
    outer loop
      vertex 15 15 6
      vertex 3.18755 0.634043 6
      vertex 3.23435 0.318555 6
    endloop
  endfacet
  facet normal 0 0 1
    outer loop
      vertex 15 15 6
      vertex 3.11006 0.943425 6
      vertex 3.18755 0.634043 6
    endloop
  endfacet
  facet normal 0 0 1
    outer loop
      vertex 15 15 6
      vertex 3.00261 1.24372 6
      vertex 3.11006 0.943425 6
    endloop
  endfacet
  facet normal 0 0 1
    outer loop
      vertex 15 15 6
      vertex 2.86624 1.53204 6
      vertex 3.00261 1.24372 6
    endloop
  endfacet
  facet normal 0 0 1
    outer loop
      vertex 15 15 6
      vertex 2.70228 1.8056 6
      vertex 2.86624 1.53204 6
    endloop
  endfacet
  facet normal 0 0 1
    outer loop
      vertex 15 15 6
      vertex 2.51228 2.06178 6
      vertex 2.70228 1.8056 6
    endloop
  endfacet
  facet normal 0 0 1
    outer loop
      vertex 15 15 6
      vertex 2.2981 2.2981 6
      vertex 2.51228 2.06178 6
    endloop
  endfacet
  facet normal 0 0 1
    outer loop
      vertex 15 15 6
      vertex 2.06178 2.51228 6
      vertex 2.2981 2.2981 6
    endloop
  endfacet
  facet normal 0 0 1
    outer loop
      vertex 15 15 6
      vertex 1.8056 2.70228 6
      vertex 2.06178 2.51228 6
    endloop
  endfacet
  facet normal 0 0 1
    outer loop
      vertex 15 15 6
      vertex 1.53204 2.86624 6
      vertex 1.8056 2.70228 6
    endloop
  endfacet
  facet normal 0 0 1
    outer loop
      vertex 15 15 6
      vertex 1.24372 3.00261 6
      vertex 1.53204 2.86624 6
    endloop
  endfacet
  facet normal 0 0 1
    outer loop
      vertex 15 15 6
      vertex 0.943425 3.11006 6
      vertex 1.24372 3.00261 6
    endloop
  endfacet
  facet normal 0 0 1
    outer loop
      vertex 15 15 6
      vertex 0.634043 3.18755 6
      vertex 0.943425 3.11006 6
    endloop
  endfacet
  facet normal 0 0 1
    outer loop
      vertex 15 15 6
      vertex 0.318555 3.23435 6
      vertex 0.634043 3.18755 6
    endloop
  endfacet
  facet normal 0 0 1
    outer loop
      vertex 15 15 6
      vertex 0 3.25 6
      vertex 0.318555 3.23435 6
    endloop
  endfacet
  facet normal -0 0 1
    outer loop
      vertex -15 15 6
      vertex 0 3.25 6
      vertex 15 15 6
    endloop
  endfacet
  facet normal 0 0 1
    outer loop
      vertex 0 3.25 6
      vertex -15 15 6
      vertex -0.318555 3.23435 6
    endloop
  endfacet
  facet normal 0 0 1
    outer loop
      vertex -0.318555 3.23435 6
      vertex -15 15 6
      vertex -0.634043 3.18755 6
    endloop
  endfacet
  facet normal 0 0 1
    outer loop
      vertex -0.634043 3.18755 6
      vertex -15 15 6
      vertex -0.943425 3.11006 6
    endloop
  endfacet
  facet normal 0 0 1
    outer loop
      vertex -0.943425 3.11006 6
      vertex -15 15 6
      vertex -1.24372 3.00261 6
    endloop
  endfacet
  facet normal 0 0 1
    outer loop
      vertex -1.24372 3.00261 6
      vertex -15 15 6
      vertex -1.53204 2.86624 6
    endloop
  endfacet
  facet normal 0 0 1
    outer loop
      vertex -3.23435 0.318555 6
      vertex -15 15 6
      vertex -3.25 0 6
    endloop
  endfacet
  facet normal 0 0 1
    outer loop
      vertex -3.18755 0.634043 6
      vertex -15 15 6
      vertex -3.23435 0.318555 6
    endloop
  endfacet
  facet normal 0 0 1
    outer loop
      vertex -3.11006 0.943425 6
      vertex -15 15 6
      vertex -3.18755 0.634043 6
    endloop
  endfacet
  facet normal 0 0 1
    outer loop
      vertex -3.00261 1.24372 6
      vertex -15 15 6
      vertex -3.11006 0.943425 6
    endloop
  endfacet
  facet normal 0 0 1
    outer loop
      vertex -2.86624 1.53204 6
      vertex -15 15 6
      vertex -3.00261 1.24372 6
    endloop
  endfacet
  facet normal 0 0 1
    outer loop
      vertex -2.70228 1.8056 6
      vertex -15 15 6
      vertex -2.86624 1.53204 6
    endloop
  endfacet
  facet normal 0 0 1
    outer loop
      vertex -2.51228 2.06178 6
      vertex -15 15 6
      vertex -2.70228 1.8056 6
    endloop
  endfacet
  facet normal 0 0 1
    outer loop
      vertex -2.2981 2.2981 6
      vertex -15 15 6
      vertex -2.51228 2.06178 6
    endloop
  endfacet
  facet normal 0 0 1
    outer loop
      vertex -2.06178 2.51228 6
      vertex -15 15 6
      vertex -2.2981 2.2981 6
    endloop
  endfacet
  facet normal 0 0 1
    outer loop
      vertex -1.8056 2.70228 6
      vertex -15 15 6
      vertex -2.06178 2.51228 6
    endloop
  endfacet
  facet normal 0 0 1
    outer loop
      vertex -1.53204 2.86624 6
      vertex -15 15 6
      vertex -1.8056 2.70228 6
    endloop
  endfacet
  facet normal -0 0 1
    outer loop
      vertex 3.23435 -0.318555 6
      vertex 15 -15 6
      vertex 3.25 0 6
    endloop
  endfacet
  facet normal -0 0 1
    outer loop
      vertex 3.18755 -0.634043 6
      vertex 15 -15 6
      vertex 3.23435 -0.318555 6
    endloop
  endfacet
  facet normal -0 0 1
    outer loop
      vertex 3.11006 -0.943425 6
      vertex 15 -15 6
      vertex 3.18755 -0.634043 6
    endloop
  endfacet
  facet normal -0 0 1
    outer loop
      vertex 3.00261 -1.24372 6
      vertex 15 -15 6
      vertex 3.11006 -0.943425 6
    endloop
  endfacet
  facet normal -0 0 1
    outer loop
      vertex 2.86624 -1.53204 6
      vertex 15 -15 6
      vertex 3.00261 -1.24372 6
    endloop
  endfacet
  facet normal -0 0 1
    outer loop
      vertex 2.70228 -1.8056 6
      vertex 15 -15 6
      vertex 2.86624 -1.53204 6
    endloop
  endfacet
  facet normal -0 0 1
    outer loop
      vertex 2.51228 -2.06178 6
      vertex 15 -15 6
      vertex 2.70228 -1.8056 6
    endloop
  endfacet
  facet normal -0 0 1
    outer loop
      vertex 2.2981 -2.2981 6
      vertex 15 -15 6
      vertex 2.51228 -2.06178 6
    endloop
  endfacet
  facet normal -0 0 1
    outer loop
      vertex 2.06178 -2.51228 6
      vertex 15 -15 6
      vertex 2.2981 -2.2981 6
    endloop
  endfacet
  facet normal -0 0 1
    outer loop
      vertex 1.8056 -2.70228 6
      vertex 15 -15 6
      vertex 2.06178 -2.51228 6
    endloop
  endfacet
  facet normal -0 0 1
    outer loop
      vertex 1.53204 -2.86624 6
      vertex 15 -15 6
      vertex 1.8056 -2.70228 6
    endloop
  endfacet
  facet normal -0 0 1
    outer loop
      vertex 1.24372 -3.00261 6
      vertex 15 -15 6
      vertex 1.53204 -2.86624 6
    endloop
  endfacet
  facet normal -0 0 1
    outer loop
      vertex 0.943425 -3.11006 6
      vertex 15 -15 6
      vertex 1.24372 -3.00261 6
    endloop
  endfacet
  facet normal -0 0 1
    outer loop
      vertex 0.634043 -3.18755 6
      vertex 15 -15 6
      vertex 0.943425 -3.11006 6
    endloop
  endfacet
  facet normal -0 0 1
    outer loop
      vertex 0.318555 -3.23435 6
      vertex 15 -15 6
      vertex 0.634043 -3.18755 6
    endloop
  endfacet
  facet normal -0 0 1
    outer loop
      vertex 0 -3.25 6
      vertex 15 -15 6
      vertex 0.318555 -3.23435 6
    endloop
  endfacet
  facet normal 0 0 1
    outer loop
      vertex -15 -15 6
      vertex 0 -3.25 6
      vertex -0.318555 -3.23435 6
    endloop
  endfacet
  facet normal 0 0 1
    outer loop
      vertex -15 -15 6
      vertex -0.318555 -3.23435 6
      vertex -0.634043 -3.18755 6
    endloop
  endfacet
  facet normal 0 0 1
    outer loop
      vertex -15 -15 6
      vertex -0.634043 -3.18755 6
      vertex -0.943425 -3.11006 6
    endloop
  endfacet
  facet normal 0 0 1
    outer loop
      vertex -15 -15 6
      vertex -0.943425 -3.11006 6
      vertex -1.24372 -3.00261 6
    endloop
  endfacet
  facet normal 0 0 1
    outer loop
      vertex -15 -15 6
      vertex -1.24372 -3.00261 6
      vertex -1.53204 -2.86624 6
    endloop
  endfacet
  facet normal 0 0 1
    outer loop
      vertex -15 -15 6
      vertex -1.53204 -2.86624 6
      vertex -1.8056 -2.70228 6
    endloop
  endfacet
  facet normal 0 0 1
    outer loop
      vertex -15 -15 6
      vertex -3.25 0 6
      vertex -15 15 6
    endloop
  endfacet
  facet normal 0 0 1
    outer loop
      vertex -3.25 0 6
      vertex -15 -15 6
      vertex -3.23435 -0.318555 6
    endloop
  endfacet
  facet normal 0 0 1
    outer loop
      vertex -3.23435 -0.318555 6
      vertex -15 -15 6
      vertex -3.18755 -0.634043 6
    endloop
  endfacet
  facet normal 0 0 1
    outer loop
      vertex -3.18755 -0.634043 6
      vertex -15 -15 6
      vertex -3.11006 -0.943425 6
    endloop
  endfacet
  facet normal 0 0 1
    outer loop
      vertex -3.11006 -0.943425 6
      vertex -15 -15 6
      vertex -3.00261 -1.24372 6
    endloop
  endfacet
  facet normal 0 0 1
    outer loop
      vertex -3.00261 -1.24372 6
      vertex -15 -15 6
      vertex -2.86624 -1.53204 6
    endloop
  endfacet
  facet normal 0 0 1
    outer loop
      vertex 0 -3.25 6
      vertex -15 -15 6
      vertex 15 -15 6
    endloop
  endfacet
  facet normal 0 0 1
    outer loop
      vertex -2.06178 -2.51228 6
      vertex -15 -15 6
      vertex -1.8056 -2.70228 6
    endloop
  endfacet
  facet normal 0 0 1
    outer loop
      vertex -2.2981 -2.2981 6
      vertex -15 -15 6
      vertex -2.06178 -2.51228 6
    endloop
  endfacet
  facet normal 0 0 1
    outer loop
      vertex -2.51228 -2.06178 6
      vertex -15 -15 6
      vertex -2.2981 -2.2981 6
    endloop
  endfacet
  facet normal 0 0 1
    outer loop
      vertex -2.70228 -1.8056 6
      vertex -15 -15 6
      vertex -2.51228 -2.06178 6
    endloop
  endfacet
  facet normal 0 0 1
    outer loop
      vertex -2.86624 -1.53204 6
      vertex -15 -15 6
      vertex -2.70228 -1.8056 6
    endloop
  endfacet
  facet normal 0 0 -1
    outer loop
      vertex 15 -15 0
      vertex 3.25 0 0
      vertex 15 15 0
    endloop
  endfacet
  facet normal 0 0 -1
    outer loop
      vertex 15 -15 0
      vertex 3.23435 -0.318555 0
      vertex 3.25 0 0
    endloop
  endfacet
  facet normal 0 0 -1
    outer loop
      vertex 15 -15 0
      vertex 3.18755 -0.634043 0
      vertex 3.23435 -0.318555 0
    endloop
  endfacet
  facet normal 0 0 -1
    outer loop
      vertex 15 -15 0
      vertex 3.11006 -0.943425 0
      vertex 3.18755 -0.634043 0
    endloop
  endfacet
  facet normal 0 0 -1
    outer loop
      vertex 15 -15 0
      vertex 3.00261 -1.24372 0
      vertex 3.11006 -0.943425 0
    endloop
  endfacet
  facet normal 0 0 -1
    outer loop
      vertex 15 -15 0
      vertex 2.86624 -1.53204 0
      vertex 3.00261 -1.24372 0
    endloop
  endfacet
  facet normal 0 0 -1
    outer loop
      vertex 15 -15 0
      vertex 2.70228 -1.8056 0
      vertex 2.86624 -1.53204 0
    endloop
  endfacet
  facet normal 0 0 -1
    outer loop
      vertex 15 -15 0
      vertex 2.51228 -2.06178 0
      vertex 2.70228 -1.8056 0
    endloop
  endfacet
  facet normal 0 0 -1
    outer loop
      vertex 15 -15 0
      vertex 2.2981 -2.2981 0
      vertex 2.51228 -2.06178 0
    endloop
  endfacet
  facet normal 0 0 -1
    outer loop
      vertex 15 -15 0
      vertex 2.06178 -2.51228 0
      vertex 2.2981 -2.2981 0
    endloop
  endfacet
  facet normal 0 0 -1
    outer loop
      vertex 15 -15 0
      vertex 1.8056 -2.70228 0
      vertex 2.06178 -2.51228 0
    endloop
  endfacet
  facet normal 0 0 -1
    outer loop
      vertex 15 -15 0
      vertex 1.53204 -2.86624 0
      vertex 1.8056 -2.70228 0
    endloop
  endfacet
  facet normal 0 0 -1
    outer loop
      vertex 15 -15 0
      vertex 1.24372 -3.00261 0
      vertex 1.53204 -2.86624 0
    endloop
  endfacet
  facet normal 0 0 -1
    outer loop
      vertex 15 -15 0
      vertex 0.943425 -3.11006 0
      vertex 1.24372 -3.00261 0
    endloop
  endfacet
  facet normal 0 0 -1
    outer loop
      vertex 15 -15 0
      vertex 0.634043 -3.18755 0
      vertex 0.943425 -3.11006 0
    endloop
  endfacet
  facet normal 0 0 -1
    outer loop
      vertex 15 -15 0
      vertex 0.318555 -3.23435 0
      vertex 0.634043 -3.18755 0
    endloop
  endfacet
  facet normal 0 0 -1
    outer loop
      vertex 15 -15 0
      vertex 0 -3.25 0
      vertex 0.318555 -3.23435 0
    endloop
  endfacet
  facet normal 0 0 -1
    outer loop
      vertex -15 -15 0
      vertex 0 -3.25 0
      vertex 15 -15 0
    endloop
  endfacet
  facet normal -0 0 -1
    outer loop
      vertex 0 -3.25 0
      vertex -15 -15 0
      vertex -0.318555 -3.23435 0
    endloop
  endfacet
  facet normal -0 0 -1
    outer loop
      vertex -0.318555 -3.23435 0
      vertex -15 -15 0
      vertex -0.634043 -3.18755 0
    endloop
  endfacet
  facet normal -0 0 -1
    outer loop
      vertex -0.634043 -3.18755 0
      vertex -15 -15 0
      vertex -0.943425 -3.11006 0
    endloop
  endfacet
  facet normal -0 0 -1
    outer loop
      vertex -0.943425 -3.11006 0
      vertex -15 -15 0
      vertex -1.24372 -3.00261 0
    endloop
  endfacet
  facet normal -0 0 -1
    outer loop
      vertex -1.24372 -3.00261 0
      vertex -15 -15 0
      vertex -1.53204 -2.86624 0
    endloop
  endfacet
  facet normal -0 0 -1
    outer loop
      vertex -3.23435 -0.318555 0
      vertex -15 -15 0
      vertex -3.25 0 0
    endloop
  endfacet
  facet normal -0 0 -1
    outer loop
      vertex -3.18755 -0.634043 0
      vertex -15 -15 0
      vertex -3.23435 -0.318555 0
    endloop
  endfacet
  facet normal -0 0 -1
    outer loop
      vertex -3.11006 -0.943425 0
      vertex -15 -15 0
      vertex -3.18755 -0.634043 0
    endloop
  endfacet
  facet normal -0 0 -1
    outer loop
      vertex -3.00261 -1.24372 0
      vertex -15 -15 0
      vertex -3.11006 -0.943425 0
    endloop
  endfacet
  facet normal -0 0 -1
    outer loop
      vertex -2.86624 -1.53204 0
      vertex -15 -15 0
      vertex -3.00261 -1.24372 0
    endloop
  endfacet
  facet normal -0 0 -1
    outer loop
      vertex -2.70228 -1.8056 0
      vertex -15 -15 0
      vertex -2.86624 -1.53204 0
    endloop
  endfacet
  facet normal -0 0 -1
    outer loop
      vertex -2.51228 -2.06178 0
      vertex -15 -15 0
      vertex -2.70228 -1.8056 0
    endloop
  endfacet
  facet normal -0 0 -1
    outer loop
      vertex -2.2981 -2.2981 0
      vertex -15 -15 0
      vertex -2.51228 -2.06178 0
    endloop
  endfacet
  facet normal -0 0 -1
    outer loop
      vertex -2.06178 -2.51228 0
      vertex -15 -15 0
      vertex -2.2981 -2.2981 0
    endloop
  endfacet
  facet normal -0 0 -1
    outer loop
      vertex -1.8056 -2.70228 0
      vertex -15 -15 0
      vertex -2.06178 -2.51228 0
    endloop
  endfacet
  facet normal -0 0 -1
    outer loop
      vertex -1.53204 -2.86624 0
      vertex -15 -15 0
      vertex -1.8056 -2.70228 0
    endloop
  endfacet
  facet normal 0 0 -1
    outer loop
      vertex 3.23435 0.318555 0
      vertex 15 15 0
      vertex 3.25 0 0
    endloop
  endfacet
  facet normal 0 0 -1
    outer loop
      vertex 3.18755 0.634043 0
      vertex 15 15 0
      vertex 3.23435 0.318555 0
    endloop
  endfacet
  facet normal 0 0 -1
    outer loop
      vertex 3.11006 0.943425 0
      vertex 15 15 0
      vertex 3.18755 0.634043 0
    endloop
  endfacet
  facet normal 0 0 -1
    outer loop
      vertex 3.00261 1.24372 0
      vertex 15 15 0
      vertex 3.11006 0.943425 0
    endloop
  endfacet
  facet normal 0 0 -1
    outer loop
      vertex 2.86624 1.53204 0
      vertex 15 15 0
      vertex 3.00261 1.24372 0
    endloop
  endfacet
  facet normal 0 0 -1
    outer loop
      vertex 2.70228 1.8056 0
      vertex 15 15 0
      vertex 2.86624 1.53204 0
    endloop
  endfacet
  facet normal 0 0 -1
    outer loop
      vertex 2.51228 2.06178 0
      vertex 15 15 0
      vertex 2.70228 1.8056 0
    endloop
  endfacet
  facet normal 0 0 -1
    outer loop
      vertex 2.2981 2.2981 0
      vertex 15 15 0
      vertex 2.51228 2.06178 0
    endloop
  endfacet
  facet normal 0 0 -1
    outer loop
      vertex 2.06178 2.51228 0
      vertex 15 15 0
      vertex 2.2981 2.2981 0
    endloop
  endfacet
  facet normal 0 0 -1
    outer loop
      vertex 1.8056 2.70228 0
      vertex 15 15 0
      vertex 2.06178 2.51228 0
    endloop
  endfacet
  facet normal 0 0 -1
    outer loop
      vertex 1.53204 2.86624 0
      vertex 15 15 0
      vertex 1.8056 2.70228 0
    endloop
  endfacet
  facet normal 0 0 -1
    outer loop
      vertex 1.24372 3.00261 0
      vertex 15 15 0
      vertex 1.53204 2.86624 0
    endloop
  endfacet
  facet normal 0 0 -1
    outer loop
      vertex 0.943425 3.11006 0
      vertex 15 15 0
      vertex 1.24372 3.00261 0
    endloop
  endfacet
  facet normal 0 0 -1
    outer loop
      vertex 0.634043 3.18755 0
      vertex 15 15 0
      vertex 0.943425 3.11006 0
    endloop
  endfacet
  facet normal 0 0 -1
    outer loop
      vertex 0.318555 3.23435 0
      vertex 15 15 0
      vertex 0.634043 3.18755 0
    endloop
  endfacet
  facet normal 0 0 -1
    outer loop
      vertex 0 3.25 0
      vertex 15 15 0
      vertex 0.318555 3.23435 0
    endloop
  endfacet
  facet normal 0 0 -1
    outer loop
      vertex -15 15 0
      vertex 0 3.25 0
      vertex -0.318555 3.23435 0
    endloop
  endfacet
  facet normal 0 0 -1
    outer loop
      vertex -15 15 0
      vertex -0.318555 3.23435 0
      vertex -0.634043 3.18755 0
    endloop
  endfacet
  facet normal 0 0 -1
    outer loop
      vertex -15 15 0
      vertex -0.634043 3.18755 0
      vertex -0.943425 3.11006 0
    endloop
  endfacet
  facet normal 0 0 -1
    outer loop
      vertex -15 15 0
      vertex -0.943425 3.11006 0
      vertex -1.24372 3.00261 0
    endloop
  endfacet
  facet normal 0 0 -1
    outer loop
      vertex -15 15 0
      vertex -1.24372 3.00261 0
      vertex -1.53204 2.86624 0
    endloop
  endfacet
  facet normal 0 0 -1
    outer loop
      vertex -15 15 0
      vertex -1.53204 2.86624 0
      vertex -1.8056 2.70228 0
    endloop
  endfacet
  facet normal 0 0 -1
    outer loop
      vertex -15 15 0
      vertex -3.25 0 0
      vertex -15 -15 0
    endloop
  endfacet
  facet normal 0 0 -1
    outer loop
      vertex -3.25 0 0
      vertex -15 15 0
      vertex -3.23435 0.318555 0
    endloop
  endfacet
  facet normal 0 0 -1
    outer loop
      vertex -3.23435 0.318555 0
      vertex -15 15 0
      vertex -3.18755 0.634043 0
    endloop
  endfacet
  facet normal 0 0 -1
    outer loop
      vertex -3.18755 0.634043 0
      vertex -15 15 0
      vertex -3.11006 0.943425 0
    endloop
  endfacet
  facet normal 0 0 -1
    outer loop
      vertex -3.11006 0.943425 0
      vertex -15 15 0
      vertex -3.00261 1.24372 0
    endloop
  endfacet
  facet normal 0 0 -1
    outer loop
      vertex -3.00261 1.24372 0
      vertex -15 15 0
      vertex -2.86624 1.53204 0
    endloop
  endfacet
  facet normal 0 0 -1
    outer loop
      vertex 0 3.25 0
      vertex -15 15 0
      vertex 15 15 0
    endloop
  endfacet
  facet normal 0 0 -1
    outer loop
      vertex -2.06178 2.51228 0
      vertex -15 15 0
      vertex -1.8056 2.70228 0
    endloop
  endfacet
  facet normal 0 0 -1
    outer loop
      vertex -2.2981 2.2981 0
      vertex -15 15 0
      vertex -2.06178 2.51228 0
    endloop
  endfacet
  facet normal 0 0 -1
    outer loop
      vertex -2.51228 2.06178 0
      vertex -15 15 0
      vertex -2.2981 2.2981 0
    endloop
  endfacet
  facet normal 0 0 -1
    outer loop
      vertex -2.70228 1.8056 0
      vertex -15 15 0
      vertex -2.51228 2.06178 0
    endloop
  endfacet
  facet normal 0 0 -1
    outer loop
      vertex -2.86624 1.53204 0
      vertex -15 15 0
      vertex -2.70228 1.8056 0
    endloop
  endfacet
  facet normal -1 0 0
    outer loop
      vertex -15 -15 0
      vertex -15 15 6
      vertex -15 15 0
    endloop
  endfacet
  facet normal -1 -0 0
    outer loop
      vertex -15 15 6
      vertex -15 -15 0
      vertex -15 -15 6
    endloop
  endfacet
  facet normal 0 1 -0
    outer loop
      vertex 15 15 0
      vertex -15 15 6
      vertex 15 15 6
    endloop
  endfacet
  facet normal 0 1 0
    outer loop
      vertex -15 15 6
      vertex 15 15 0
      vertex -15 15 0
    endloop
  endfacet
  facet normal 0 -1 0
    outer loop
      vertex -15 -15 0
      vertex 15 -15 6
      vertex -15 -15 6
    endloop
  endfacet
  facet normal 0 -1 -0
    outer loop
      vertex 15 -15 6
      vertex -15 -15 0
      vertex 15 -15 0
    endloop
  endfacet
  facet normal -0.989176 -0.146736 0
    outer loop
      vertex 3.23435 0.318555 0
      vertex 3.18755 0.634043 6
      vertex 3.18755 0.634043 0
    endloop
  endfacet
  facet normal -0.989176 -0.146736 0
    outer loop
      vertex 3.18755 0.634043 6
      vertex 3.23435 0.318555 0
      vertex 3.23435 0.318555 6
    endloop
  endfacet
  facet normal -0.998795 -0.0490689 0
    outer loop
      vertex 3.25 0 0
      vertex 3.23435 0.318555 6
      vertex 3.23435 0.318555 0
    endloop
  endfacet
  facet normal -0.998795 -0.0490689 0
    outer loop
      vertex 3.23435 0.318555 6
      vertex 3.25 0 0
      vertex 3.25 0 6
    endloop
  endfacet
  facet normal -0.970036 -0.242962 0
    outer loop
      vertex 3.18755 0.634043 0
      vertex 3.11006 0.943425 6
      vertex 3.11006 0.943425 0
    endloop
  endfacet
  facet normal -0.970036 -0.242962 0
    outer loop
      vertex 3.11006 0.943425 6
      vertex 3.18755 0.634043 0
      vertex 3.18755 0.634043 6
    endloop
  endfacet
  facet normal -0.336897 0.941541 0
    outer loop
      vertex 1.24372 -3.00261 0
      vertex 0.943425 -3.11006 6
      vertex 1.24372 -3.00261 6
    endloop
  endfacet
  facet normal -0.336897 0.941541 0
    outer loop
      vertex 0.943425 -3.11006 6
      vertex 1.24372 -3.00261 0
      vertex 0.943425 -3.11006 0
    endloop
  endfacet
  facet normal -0.671545 -0.740964 0
    outer loop
      vertex 2.06178 2.51228 0
      vertex 2.2981 2.2981 6
      vertex 2.06178 2.51228 6
    endloop
  endfacet
  facet normal -0.671545 -0.740964 -0
    outer loop
      vertex 2.2981 2.2981 6
      vertex 2.06178 2.51228 0
      vertex 2.2981 2.2981 0
    endloop
  endfacet
  facet normal 0.857736 -0.51409 0
    outer loop
      vertex -2.86624 1.53204 6
      vertex -2.70228 1.8056 0
      vertex -2.70228 1.8056 6
    endloop
  endfacet
  facet normal 0.857736 -0.51409 0
    outer loop
      vertex -2.70228 1.8056 0
      vertex -2.86624 1.53204 6
      vertex -2.86624 1.53204 0
    endloop
  endfacet
  facet normal 0.146736 0.989176 -0
    outer loop
      vertex -0.318555 -3.23435 0
      vertex -0.634043 -3.18755 6
      vertex -0.318555 -3.23435 6
    endloop
  endfacet
  facet normal 0.146736 0.989176 0
    outer loop
      vertex -0.634043 -3.18755 6
      vertex -0.318555 -3.23435 0
      vertex -0.634043 -3.18755 0
    endloop
  endfacet
  facet normal -0.941541 -0.336897 0
    outer loop
      vertex 3.11006 0.943425 0
      vertex 3.00261 1.24372 6
      vertex 3.00261 1.24372 0
    endloop
  endfacet
  facet normal -0.941541 -0.336897 0
    outer loop
      vertex 3.00261 1.24372 6
      vertex 3.11006 0.943425 0
      vertex 3.11006 0.943425 6
    endloop
  endfacet
  facet normal 0.0490689 -0.998795 0
    outer loop
      vertex -0.318555 3.23435 0
      vertex 0 3.25 6
      vertex -0.318555 3.23435 6
    endloop
  endfacet
  facet normal 0.0490689 -0.998795 0
    outer loop
      vertex 0 3.25 6
      vertex -0.318555 3.23435 0
      vertex 0 3.25 0
    endloop
  endfacet
  facet normal -0.0490689 0.998795 0
    outer loop
      vertex 0.318555 -3.23435 0
      vertex 0 -3.25 6
      vertex 0.318555 -3.23435 6
    endloop
  endfacet
  facet normal -0.0490689 0.998795 0
    outer loop
      vertex 0 -3.25 6
      vertex 0.318555 -3.23435 0
      vertex 0 -3.25 0
    endloop
  endfacet
  facet normal 0.903983 0.427567 0
    outer loop
      vertex -2.86624 -1.53204 6
      vertex -3.00261 -1.24372 0
      vertex -3.00261 -1.24372 6
    endloop
  endfacet
  facet normal 0.903983 0.427567 0
    outer loop
      vertex -3.00261 -1.24372 0
      vertex -2.86624 -1.53204 6
      vertex -2.86624 -1.53204 0
    endloop
  endfacet
  facet normal 0.595707 0.803202 -0
    outer loop
      vertex -1.8056 -2.70228 0
      vertex -2.06178 -2.51228 6
      vertex -1.8056 -2.70228 6
    endloop
  endfacet
  facet normal 0.595707 0.803202 0
    outer loop
      vertex -2.06178 -2.51228 6
      vertex -1.8056 -2.70228 0
      vertex -2.06178 -2.51228 0
    endloop
  endfacet
  facet normal 0.803202 -0.595707 0
    outer loop
      vertex -2.70228 1.8056 6
      vertex -2.51228 2.06178 0
      vertex -2.51228 2.06178 6
    endloop
  endfacet
  facet normal 0.803202 -0.595707 0
    outer loop
      vertex -2.51228 2.06178 0
      vertex -2.70228 1.8056 6
      vertex -2.70228 1.8056 0
    endloop
  endfacet
  facet normal -0.970036 0.242962 0
    outer loop
      vertex 3.11006 -0.943425 0
      vertex 3.18755 -0.634043 6
      vertex 3.18755 -0.634043 0
    endloop
  endfacet
  facet normal -0.970036 0.242962 0
    outer loop
      vertex 3.18755 -0.634043 6
      vertex 3.11006 -0.943425 0
      vertex 3.11006 -0.943425 6
    endloop
  endfacet
  facet normal -0.51409 0.857736 0
    outer loop
      vertex 1.8056 -2.70228 0
      vertex 1.53204 -2.86624 6
      vertex 1.8056 -2.70228 6
    endloop
  endfacet
  facet normal -0.51409 0.857736 0
    outer loop
      vertex 1.53204 -2.86624 6
      vertex 1.8056 -2.70228 0
      vertex 1.53204 -2.86624 0
    endloop
  endfacet
  facet normal -0.857736 -0.51409 0
    outer loop
      vertex 2.86624 1.53204 0
      vertex 2.70228 1.8056 6
      vertex 2.70228 1.8056 0
    endloop
  endfacet
  facet normal -0.857736 -0.51409 0
    outer loop
      vertex 2.70228 1.8056 6
      vertex 2.86624 1.53204 0
      vertex 2.86624 1.53204 6
    endloop
  endfacet
  facet normal 0.998795 0.0490689 0
    outer loop
      vertex -3.23435 -0.318555 6
      vertex -3.25 0 0
      vertex -3.25 0 6
    endloop
  endfacet
  facet normal 0.998795 0.0490689 0
    outer loop
      vertex -3.25 0 0
      vertex -3.23435 -0.318555 6
      vertex -3.23435 -0.318555 0
    endloop
  endfacet
  facet normal -0.903983 -0.427567 0
    outer loop
      vertex 3.00261 1.24372 0
      vertex 2.86624 1.53204 6
      vertex 2.86624 1.53204 0
    endloop
  endfacet
  facet normal -0.903983 -0.427567 0
    outer loop
      vertex 2.86624 1.53204 6
      vertex 3.00261 1.24372 0
      vertex 3.00261 1.24372 6
    endloop
  endfacet
  facet normal -0.941541 0.336897 0
    outer loop
      vertex 3.00261 -1.24372 0
      vertex 3.11006 -0.943425 6
      vertex 3.11006 -0.943425 0
    endloop
  endfacet
  facet normal -0.941541 0.336897 0
    outer loop
      vertex 3.11006 -0.943425 6
      vertex 3.00261 -1.24372 0
      vertex 3.00261 -1.24372 6
    endloop
  endfacet
  facet normal 0.427567 0.903983 -0
    outer loop
      vertex -1.24372 -3.00261 0
      vertex -1.53204 -2.86624 6
      vertex -1.24372 -3.00261 6
    endloop
  endfacet
  facet normal 0.427567 0.903983 0
    outer loop
      vertex -1.53204 -2.86624 6
      vertex -1.24372 -3.00261 0
      vertex -1.53204 -2.86624 0
    endloop
  endfacet
  facet normal 0.970036 0.242962 0
    outer loop
      vertex -3.11006 -0.943425 6
      vertex -3.18755 -0.634043 0
      vertex -3.18755 -0.634043 6
    endloop
  endfacet
  facet normal 0.970036 0.242962 0
    outer loop
      vertex -3.18755 -0.634043 0
      vertex -3.11006 -0.943425 6
      vertex -3.11006 -0.943425 0
    endloop
  endfacet
  facet normal 0.740964 -0.671545 0
    outer loop
      vertex -2.51228 2.06178 6
      vertex -2.2981 2.2981 0
      vertex -2.2981 2.2981 6
    endloop
  endfacet
  facet normal 0.740964 -0.671545 0
    outer loop
      vertex -2.2981 2.2981 0
      vertex -2.51228 2.06178 6
      vertex -2.51228 2.06178 0
    endloop
  endfacet
  facet normal 0.242962 0.970036 -0
    outer loop
      vertex -0.634043 -3.18755 0
      vertex -0.943425 -3.11006 6
      vertex -0.634043 -3.18755 6
    endloop
  endfacet
  facet normal 0.242962 0.970036 0
    outer loop
      vertex -0.943425 -3.11006 6
      vertex -0.634043 -3.18755 0
      vertex -0.943425 -3.11006 0
    endloop
  endfacet
  facet normal 0.51409 -0.857736 0
    outer loop
      vertex -1.8056 2.70228 0
      vertex -1.53204 2.86624 6
      vertex -1.8056 2.70228 6
    endloop
  endfacet
  facet normal 0.51409 -0.857736 0
    outer loop
      vertex -1.53204 2.86624 6
      vertex -1.8056 2.70228 0
      vertex -1.53204 2.86624 0
    endloop
  endfacet
  facet normal -0.803202 -0.595707 0
    outer loop
      vertex 2.70228 1.8056 0
      vertex 2.51228 2.06178 6
      vertex 2.51228 2.06178 0
    endloop
  endfacet
  facet normal -0.803202 -0.595707 0
    outer loop
      vertex 2.51228 2.06178 6
      vertex 2.70228 1.8056 0
      vertex 2.70228 1.8056 6
    endloop
  endfacet
  facet normal 0.146736 -0.989176 0
    outer loop
      vertex -0.634043 3.18755 0
      vertex -0.318555 3.23435 6
      vertex -0.634043 3.18755 6
    endloop
  endfacet
  facet normal 0.146736 -0.989176 0
    outer loop
      vertex -0.318555 3.23435 6
      vertex -0.634043 3.18755 0
      vertex -0.318555 3.23435 0
    endloop
  endfacet
  facet normal -0.427567 0.903983 0
    outer loop
      vertex 1.53204 -2.86624 0
      vertex 1.24372 -3.00261 6
      vertex 1.53204 -2.86624 6
    endloop
  endfacet
  facet normal -0.427567 0.903983 0
    outer loop
      vertex 1.24372 -3.00261 6
      vertex 1.53204 -2.86624 0
      vertex 1.24372 -3.00261 0
    endloop
  endfacet
  facet normal 0.671545 -0.740964 0
    outer loop
      vertex -2.2981 2.2981 0
      vertex -2.06178 2.51228 6
      vertex -2.2981 2.2981 6
    endloop
  endfacet
  facet normal 0.671545 -0.740964 0
    outer loop
      vertex -2.06178 2.51228 6
      vertex -2.2981 2.2981 0
      vertex -2.06178 2.51228 0
    endloop
  endfacet
  facet normal -0.857736 0.51409 0
    outer loop
      vertex 2.70228 -1.8056 0
      vertex 2.86624 -1.53204 6
      vertex 2.86624 -1.53204 0
    endloop
  endfacet
  facet normal -0.857736 0.51409 0
    outer loop
      vertex 2.86624 -1.53204 6
      vertex 2.70228 -1.8056 0
      vertex 2.70228 -1.8056 6
    endloop
  endfacet
  facet normal 0.595707 -0.803202 0
    outer loop
      vertex -2.06178 2.51228 0
      vertex -1.8056 2.70228 6
      vertex -2.06178 2.51228 6
    endloop
  endfacet
  facet normal 0.595707 -0.803202 0
    outer loop
      vertex -1.8056 2.70228 6
      vertex -2.06178 2.51228 0
      vertex -1.8056 2.70228 0
    endloop
  endfacet
  facet normal -0.336897 -0.941541 0
    outer loop
      vertex 0.943425 3.11006 0
      vertex 1.24372 3.00261 6
      vertex 0.943425 3.11006 6
    endloop
  endfacet
  facet normal -0.336897 -0.941541 -0
    outer loop
      vertex 1.24372 3.00261 6
      vertex 0.943425 3.11006 0
      vertex 1.24372 3.00261 0
    endloop
  endfacet
  facet normal -0.998795 0.0490689 0
    outer loop
      vertex 3.23435 -0.318555 0
      vertex 3.25 0 6
      vertex 3.25 0 0
    endloop
  endfacet
  facet normal -0.998795 0.0490689 0
    outer loop
      vertex 3.25 0 6
      vertex 3.23435 -0.318555 0
      vertex 3.23435 -0.318555 6
    endloop
  endfacet
  facet normal 0.941541 0.336897 0
    outer loop
      vertex -3.00261 -1.24372 6
      vertex -3.11006 -0.943425 0
      vertex -3.11006 -0.943425 6
    endloop
  endfacet
  facet normal 0.941541 0.336897 0
    outer loop
      vertex -3.11006 -0.943425 0
      vertex -3.00261 -1.24372 6
      vertex -3.00261 -1.24372 0
    endloop
  endfacet
  facet normal -0.51409 -0.857736 0
    outer loop
      vertex 1.53204 2.86624 0
      vertex 1.8056 2.70228 6
      vertex 1.53204 2.86624 6
    endloop
  endfacet
  facet normal -0.51409 -0.857736 -0
    outer loop
      vertex 1.8056 2.70228 6
      vertex 1.53204 2.86624 0
      vertex 1.8056 2.70228 0
    endloop
  endfacet
  facet normal -0.595707 -0.803202 0
    outer loop
      vertex 1.8056 2.70228 0
      vertex 2.06178 2.51228 6
      vertex 1.8056 2.70228 6
    endloop
  endfacet
  facet normal -0.595707 -0.803202 -0
    outer loop
      vertex 2.06178 2.51228 6
      vertex 1.8056 2.70228 0
      vertex 2.06178 2.51228 0
    endloop
  endfacet
  facet normal -0.146736 0.989176 0
    outer loop
      vertex 0.634043 -3.18755 0
      vertex 0.318555 -3.23435 6
      vertex 0.634043 -3.18755 6
    endloop
  endfacet
  facet normal -0.146736 0.989176 0
    outer loop
      vertex 0.318555 -3.23435 6
      vertex 0.634043 -3.18755 0
      vertex 0.318555 -3.23435 0
    endloop
  endfacet
  facet normal -0.740964 0.671545 0
    outer loop
      vertex 2.2981 -2.2981 0
      vertex 2.51228 -2.06178 6
      vertex 2.51228 -2.06178 0
    endloop
  endfacet
  facet normal -0.740964 0.671545 0
    outer loop
      vertex 2.51228 -2.06178 6
      vertex 2.2981 -2.2981 0
      vertex 2.2981 -2.2981 6
    endloop
  endfacet
  facet normal -0.803202 0.595707 0
    outer loop
      vertex 2.51228 -2.06178 0
      vertex 2.70228 -1.8056 6
      vertex 2.70228 -1.8056 0
    endloop
  endfacet
  facet normal -0.803202 0.595707 0
    outer loop
      vertex 2.70228 -1.8056 6
      vertex 2.51228 -2.06178 0
      vertex 2.51228 -2.06178 6
    endloop
  endfacet
  facet normal -0.242962 0.970036 0
    outer loop
      vertex 0.943425 -3.11006 0
      vertex 0.634043 -3.18755 6
      vertex 0.943425 -3.11006 6
    endloop
  endfacet
  facet normal -0.242962 0.970036 0
    outer loop
      vertex 0.634043 -3.18755 6
      vertex 0.943425 -3.11006 0
      vertex 0.634043 -3.18755 0
    endloop
  endfacet
  facet normal -0.903983 0.427567 0
    outer loop
      vertex 2.86624 -1.53204 0
      vertex 3.00261 -1.24372 6
      vertex 3.00261 -1.24372 0
    endloop
  endfacet
  facet normal -0.903983 0.427567 0
    outer loop
      vertex 3.00261 -1.24372 6
      vertex 2.86624 -1.53204 0
      vertex 2.86624 -1.53204 6
    endloop
  endfacet
  facet normal 0.242962 -0.970036 0
    outer loop
      vertex -0.943425 3.11006 0
      vertex -0.634043 3.18755 6
      vertex -0.943425 3.11006 6
    endloop
  endfacet
  facet normal 0.242962 -0.970036 0
    outer loop
      vertex -0.634043 3.18755 6
      vertex -0.943425 3.11006 0
      vertex -0.634043 3.18755 0
    endloop
  endfacet
  facet normal 0.941541 -0.336897 0
    outer loop
      vertex -3.11006 0.943425 6
      vertex -3.00261 1.24372 0
      vertex -3.00261 1.24372 6
    endloop
  endfacet
  facet normal 0.941541 -0.336897 0
    outer loop
      vertex -3.00261 1.24372 0
      vertex -3.11006 0.943425 6
      vertex -3.11006 0.943425 0
    endloop
  endfacet
  facet normal 0.427567 -0.903983 0
    outer loop
      vertex -1.53204 2.86624 0
      vertex -1.24372 3.00261 6
      vertex -1.53204 2.86624 6
    endloop
  endfacet
  facet normal 0.427567 -0.903983 0
    outer loop
      vertex -1.24372 3.00261 6
      vertex -1.53204 2.86624 0
      vertex -1.24372 3.00261 0
    endloop
  endfacet
  facet normal 0.989176 -0.146736 0
    outer loop
      vertex -3.23435 0.318555 6
      vertex -3.18755 0.634043 0
      vertex -3.18755 0.634043 6
    endloop
  endfacet
  facet normal 0.989176 -0.146736 0
    outer loop
      vertex -3.18755 0.634043 0
      vertex -3.23435 0.318555 6
      vertex -3.23435 0.318555 0
    endloop
  endfacet
  facet normal 0.970036 -0.242962 0
    outer loop
      vertex -3.18755 0.634043 6
      vertex -3.11006 0.943425 0
      vertex -3.11006 0.943425 6
    endloop
  endfacet
  facet normal 0.970036 -0.242962 0
    outer loop
      vertex -3.11006 0.943425 0
      vertex -3.18755 0.634043 6
      vertex -3.18755 0.634043 0
    endloop
  endfacet
  facet normal -0.427567 -0.903983 0
    outer loop
      vertex 1.24372 3.00261 0
      vertex 1.53204 2.86624 6
      vertex 1.24372 3.00261 6
    endloop
  endfacet
  facet normal -0.427567 -0.903983 -0
    outer loop
      vertex 1.53204 2.86624 6
      vertex 1.24372 3.00261 0
      vertex 1.53204 2.86624 0
    endloop
  endfacet
  facet normal -0.989176 0.146736 0
    outer loop
      vertex 3.18755 -0.634043 0
      vertex 3.23435 -0.318555 6
      vertex 3.23435 -0.318555 0
    endloop
  endfacet
  facet normal -0.989176 0.146736 0
    outer loop
      vertex 3.23435 -0.318555 6
      vertex 3.18755 -0.634043 0
      vertex 3.18755 -0.634043 6
    endloop
  endfacet
  facet normal -0.146736 -0.989176 0
    outer loop
      vertex 0.318555 3.23435 0
      vertex 0.634043 3.18755 6
      vertex 0.318555 3.23435 6
    endloop
  endfacet
  facet normal -0.146736 -0.989176 -0
    outer loop
      vertex 0.634043 3.18755 6
      vertex 0.318555 3.23435 0
      vertex 0.634043 3.18755 0
    endloop
  endfacet
  facet normal -0.0490689 -0.998795 0
    outer loop
      vertex 0 3.25 0
      vertex 0.318555 3.23435 6
      vertex 0 3.25 6
    endloop
  endfacet
  facet normal -0.0490689 -0.998795 -0
    outer loop
      vertex 0.318555 3.23435 6
      vertex 0 3.25 0
      vertex 0.318555 3.23435 0
    endloop
  endfacet
  facet normal 0.740964 0.671545 0
    outer loop
      vertex -2.2981 -2.2981 6
      vertex -2.51228 -2.06178 0
      vertex -2.51228 -2.06178 6
    endloop
  endfacet
  facet normal 0.740964 0.671545 0
    outer loop
      vertex -2.51228 -2.06178 0
      vertex -2.2981 -2.2981 6
      vertex -2.2981 -2.2981 0
    endloop
  endfacet
  facet normal 0.857736 0.51409 0
    outer loop
      vertex -2.70228 -1.8056 6
      vertex -2.86624 -1.53204 0
      vertex -2.86624 -1.53204 6
    endloop
  endfacet
  facet normal 0.857736 0.51409 0
    outer loop
      vertex -2.86624 -1.53204 0
      vertex -2.70228 -1.8056 6
      vertex -2.70228 -1.8056 0
    endloop
  endfacet
  facet normal 0.336897 -0.941541 0
    outer loop
      vertex -1.24372 3.00261 0
      vertex -0.943425 3.11006 6
      vertex -1.24372 3.00261 6
    endloop
  endfacet
  facet normal 0.336897 -0.941541 0
    outer loop
      vertex -0.943425 3.11006 6
      vertex -1.24372 3.00261 0
      vertex -0.943425 3.11006 0
    endloop
  endfacet
  facet normal 0.51409 0.857736 -0
    outer loop
      vertex -1.53204 -2.86624 0
      vertex -1.8056 -2.70228 6
      vertex -1.53204 -2.86624 6
    endloop
  endfacet
  facet normal 0.51409 0.857736 0
    outer loop
      vertex -1.8056 -2.70228 6
      vertex -1.53204 -2.86624 0
      vertex -1.8056 -2.70228 0
    endloop
  endfacet
  facet normal -0.595707 0.803202 0
    outer loop
      vertex 2.06178 -2.51228 0
      vertex 1.8056 -2.70228 6
      vertex 2.06178 -2.51228 6
    endloop
  endfacet
  facet normal -0.595707 0.803202 0
    outer loop
      vertex 1.8056 -2.70228 6
      vertex 2.06178 -2.51228 0
      vertex 1.8056 -2.70228 0
    endloop
  endfacet
  facet normal 0.903983 -0.427567 0
    outer loop
      vertex -3.00261 1.24372 6
      vertex -2.86624 1.53204 0
      vertex -2.86624 1.53204 6
    endloop
  endfacet
  facet normal 0.903983 -0.427567 0
    outer loop
      vertex -2.86624 1.53204 0
      vertex -3.00261 1.24372 6
      vertex -3.00261 1.24372 0
    endloop
  endfacet
  facet normal 0.803202 0.595707 0
    outer loop
      vertex -2.51228 -2.06178 6
      vertex -2.70228 -1.8056 0
      vertex -2.70228 -1.8056 6
    endloop
  endfacet
  facet normal 0.803202 0.595707 0
    outer loop
      vertex -2.70228 -1.8056 0
      vertex -2.51228 -2.06178 6
      vertex -2.51228 -2.06178 0
    endloop
  endfacet
  facet normal 0.989176 0.146736 0
    outer loop
      vertex -3.18755 -0.634043 6
      vertex -3.23435 -0.318555 0
      vertex -3.23435 -0.318555 6
    endloop
  endfacet
  facet normal 0.989176 0.146736 0
    outer loop
      vertex -3.23435 -0.318555 0
      vertex -3.18755 -0.634043 6
      vertex -3.18755 -0.634043 0
    endloop
  endfacet
  facet normal -0.740964 -0.671545 0
    outer loop
      vertex 2.51228 2.06178 0
      vertex 2.2981 2.2981 6
      vertex 2.2981 2.2981 0
    endloop
  endfacet
  facet normal -0.740964 -0.671545 0
    outer loop
      vertex 2.2981 2.2981 6
      vertex 2.51228 2.06178 0
      vertex 2.51228 2.06178 6
    endloop
  endfacet
  facet normal -0.242962 -0.970036 0
    outer loop
      vertex 0.634043 3.18755 0
      vertex 0.943425 3.11006 6
      vertex 0.634043 3.18755 6
    endloop
  endfacet
  facet normal -0.242962 -0.970036 -0
    outer loop
      vertex 0.943425 3.11006 6
      vertex 0.634043 3.18755 0
      vertex 0.943425 3.11006 0
    endloop
  endfacet
  facet normal 0.671545 0.740964 -0
    outer loop
      vertex -2.06178 -2.51228 0
      vertex -2.2981 -2.2981 6
      vertex -2.06178 -2.51228 6
    endloop
  endfacet
  facet normal 0.671545 0.740964 0
    outer loop
      vertex -2.2981 -2.2981 6
      vertex -2.06178 -2.51228 0
      vertex -2.2981 -2.2981 0
    endloop
  endfacet
  facet normal 0.0490689 0.998795 -0
    outer loop
      vertex 0 -3.25 0
      vertex -0.318555 -3.23435 6
      vertex 0 -3.25 6
    endloop
  endfacet
  facet normal 0.0490689 0.998795 0
    outer loop
      vertex -0.318555 -3.23435 6
      vertex 0 -3.25 0
      vertex -0.318555 -3.23435 0
    endloop
  endfacet
  facet normal 0.998795 -0.0490689 0
    outer loop
      vertex -3.25 0 6
      vertex -3.23435 0.318555 0
      vertex -3.23435 0.318555 6
    endloop
  endfacet
  facet normal 0.998795 -0.0490689 0
    outer loop
      vertex -3.23435 0.318555 0
      vertex -3.25 0 6
      vertex -3.25 0 0
    endloop
  endfacet
  facet normal 0.336897 0.941541 -0
    outer loop
      vertex -0.943425 -3.11006 0
      vertex -1.24372 -3.00261 6
      vertex -0.943425 -3.11006 6
    endloop
  endfacet
  facet normal 0.336897 0.941541 0
    outer loop
      vertex -1.24372 -3.00261 6
      vertex -0.943425 -3.11006 0
      vertex -1.24372 -3.00261 0
    endloop
  endfacet
  facet normal -0.671545 0.740964 0
    outer loop
      vertex 2.2981 -2.2981 0
      vertex 2.06178 -2.51228 6
      vertex 2.2981 -2.2981 6
    endloop
  endfacet
  facet normal -0.671545 0.740964 0
    outer loop
      vertex 2.06178 -2.51228 6
      vertex 2.2981 -2.2981 0
      vertex 2.06178 -2.51228 0
    endloop
  endfacet
endsolid OpenSCAD_Model
