solid OpenSCAD_Model
  facet normal 0.146736 0.989176 -0
    outer loop
      vertex 1.17054 5.88471 0
      vertex 0.588102 5.97111 8
      vertex 1.17054 5.88471 8
    endloop
  endfacet
  facet normal 0.146736 0.989176 0
    outer loop
      vertex 0.588102 5.97111 8
      vertex 1.17054 5.88471 0
      vertex 0.588102 5.97111 0
    endloop
  endfacet
  facet normal 0.989176 0.146736 0
    outer loop
      vertex 5.97111 0.588102 8
      vertex 5.88471 1.17054 0
      vertex 5.88471 1.17054 8
    endloop
  endfacet
  facet normal 0.989176 0.146736 0
    outer loop
      vertex 5.88471 1.17054 0
      vertex 5.97111 0.588102 8
      vertex 5.97111 0.588102 0
    endloop
  endfacet
  facet normal 0.998796 0.049065 0
    outer loop
      vertex 6 0 8
      vertex 5.97111 0.588102 0
      vertex 5.97111 0.588102 8
    endloop
  endfacet
  facet normal 0.998796 0.049065 0
    outer loop
      vertex 5.97111 0.588102 0
      vertex 6 0 8
      vertex 6 0 0
    endloop
  endfacet
  facet normal 0.970032 0.242979 0
    outer loop
      vertex 5.88471 1.17054 8
      vertex 5.74164 1.74171 0
      vertex 5.74164 1.74171 8
    endloop
  endfacet
  facet normal 0.970032 0.242979 0
    outer loop
      vertex 5.74164 1.74171 0
      vertex 5.88471 1.17054 8
      vertex 5.88471 1.17054 0
    endloop
  endfacet
  facet normal 0.336884 -0.941546 0
    outer loop
      vertex 1.74171 -5.74164 0
      vertex 2.2961 -5.54328 8
      vertex 1.74171 -5.74164 8
    endloop
  endfacet
  facet normal 0.336884 -0.941546 0
    outer loop
      vertex 2.2961 -5.54328 8
      vertex 1.74171 -5.74164 0
      vertex 2.2961 -5.54328 0
    endloop
  endfacet
  facet normal 0.903989 -0.427556 0
    outer loop
      vertex 5.29153 -2.82838 8
      vertex 5.54328 -2.2961 0
      vertex 5.54328 -2.2961 8
    endloop
  endfacet
  facet normal 0.903989 -0.427556 0
    outer loop
      vertex 5.54328 -2.2961 0
      vertex 5.29153 -2.82838 8
      vertex 5.29153 -2.82838 0
    endloop
  endfacet
  facet normal 0.671558 0.740952 -0
    outer loop
      vertex 4.24264 4.24264 0
      vertex 3.80636 4.63806 8
      vertex 4.24264 4.24264 8
    endloop
  endfacet
  facet normal 0.671558 0.740952 0
    outer loop
      vertex 3.80636 4.63806 8
      vertex 4.24264 4.24264 0
      vertex 3.80636 4.63806 0
    endloop
  endfacet
  facet normal -0.146736 -0.989176 0
    outer loop
      vertex -1.17054 -5.88471 0
      vertex -0.588102 -5.97111 8
      vertex -1.17054 -5.88471 8
    endloop
  endfacet
  facet normal -0.146736 -0.989176 -0
    outer loop
      vertex -0.588102 -5.97111 8
      vertex -1.17054 -5.88471 0
      vertex -0.588102 -5.97111 0
    endloop
  endfacet
  facet normal 0.941546 0.336884 0
    outer loop
      vertex 5.74164 1.74171 8
      vertex 5.54328 2.2961 0
      vertex 5.54328 2.2961 8
    endloop
  endfacet
  facet normal 0.941546 0.336884 0
    outer loop
      vertex 5.54328 2.2961 0
      vertex 5.74164 1.74171 8
      vertex 5.74164 1.74171 0
    endloop
  endfacet
  facet normal -0.049065 0.998796 0
    outer loop
      vertex 0 6 0
      vertex -0.588102 5.97111 8
      vertex 0 6 8
    endloop
  endfacet
  facet normal -0.049065 0.998796 0
    outer loop
      vertex -0.588102 5.97111 8
      vertex 0 6 0
      vertex -0.588102 5.97111 0
    endloop
  endfacet
  facet normal 0.803204 0.595703 0
    outer loop
      vertex 4.98882 3.33342 8
      vertex 4.63806 3.80636 0
      vertex 4.63806 3.80636 8
    endloop
  endfacet
  facet normal 0.803204 0.595703 0
    outer loop
      vertex 4.63806 3.80636 0
      vertex 4.98882 3.33342 8
      vertex 4.98882 3.33342 0
    endloop
  endfacet
  facet normal 0.049065 -0.998796 0
    outer loop
      vertex 0 -6 0
      vertex 0.588102 -5.97111 8
      vertex 0 -6 8
    endloop
  endfacet
  facet normal 0.049065 -0.998796 0
    outer loop
      vertex 0.588102 -5.97111 8
      vertex 0 -6 0
      vertex 0.588102 -5.97111 0
    endloop
  endfacet
  facet normal 0.049065 0.998796 -0
    outer loop
      vertex 0.588102 5.97111 0
      vertex 0 6 8
      vertex 0.588102 5.97111 8
    endloop
  endfacet
  facet normal 0.049065 0.998796 0
    outer loop
      vertex 0 6 8
      vertex 0.588102 5.97111 0
      vertex 0 6 0
    endloop
  endfacet
  facet normal 0.857728 -0.514104 0
    outer loop
      vertex 4.98882 -3.33342 8
      vertex 5.29153 -2.82838 0
      vertex 5.29153 -2.82838 8
    endloop
  endfacet
  facet normal 0.857728 -0.514104 0
    outer loop
      vertex 5.29153 -2.82838 0
      vertex 4.98882 -3.33342 8
      vertex 4.98882 -3.33342 0
    endloop
  endfacet
  facet normal -0.595703 -0.803204 0
    outer loop
      vertex -3.80636 -4.63806 0
      vertex -3.33342 -4.98882 8
      vertex -3.80636 -4.63806 8
    endloop
  endfacet
  facet normal -0.595703 -0.803204 -0
    outer loop
      vertex -3.33342 -4.98882 8
      vertex -3.80636 -4.63806 0
      vertex -3.33342 -4.98882 0
    endloop
  endfacet
  facet normal -0.857728 0.514104 0
    outer loop
      vertex -5.29153 2.82838 0
      vertex -4.98882 3.33342 8
      vertex -4.98882 3.33342 0
    endloop
  endfacet
  facet normal -0.857728 0.514104 0
    outer loop
      vertex -4.98882 3.33342 8
      vertex -5.29153 2.82838 0
      vertex -5.29153 2.82838 8
    endloop
  endfacet
  facet normal -0.242979 -0.970032 0
    outer loop
      vertex -1.74171 -5.74164 0
      vertex -1.17054 -5.88471 8
      vertex -1.74171 -5.74164 8
    endloop
  endfacet
  facet normal -0.242979 -0.970032 -0
    outer loop
      vertex -1.17054 -5.88471 8
      vertex -1.74171 -5.74164 0
      vertex -1.17054 -5.88471 0
    endloop
  endfacet
  facet normal 0.514104 -0.857728 0
    outer loop
      vertex 2.82838 -5.29153 0
      vertex 3.33342 -4.98882 8
      vertex 2.82838 -5.29153 8
    endloop
  endfacet
  facet normal 0.514104 -0.857728 0
    outer loop
      vertex 3.33342 -4.98882 8
      vertex 2.82838 -5.29153 0
      vertex 3.33342 -4.98882 0
    endloop
  endfacet
  facet normal 0.857728 0.514104 0
    outer loop
      vertex 5.29153 2.82838 8
      vertex 4.98882 3.33342 0
      vertex 4.98882 3.33342 8
    endloop
  endfacet
  facet normal 0.857728 0.514104 0
    outer loop
      vertex 4.98882 3.33342 0
      vertex 5.29153 2.82838 8
      vertex 5.29153 2.82838 0
    endloop
  endfacet
  facet normal -0.998796 -0.049065 0
    outer loop
      vertex -5.97111 -0.588102 0
      vertex -6 0 8
      vertex -6 0 0
    endloop
  endfacet
  facet normal -0.998796 -0.049065 0
    outer loop
      vertex -6 0 8
      vertex -5.97111 -0.588102 0
      vertex -5.97111 -0.588102 8
    endloop
  endfacet
  facet normal 0.903989 0.427556 0
    outer loop
      vertex 5.54328 2.2961 8
      vertex 5.29153 2.82838 0
      vertex 5.29153 2.82838 8
    endloop
  endfacet
  facet normal 0.903989 0.427556 0
    outer loop
      vertex 5.29153 2.82838 0
      vertex 5.54328 2.2961 8
      vertex 5.54328 2.2961 0
    endloop
  endfacet
  facet normal 0.970032 -0.242979 0
    outer loop
      vertex 5.74164 -1.74171 8
      vertex 5.88471 -1.17054 0
      vertex 5.88471 -1.17054 8
    endloop
  endfacet
  facet normal 0.970032 -0.242979 0
    outer loop
      vertex 5.88471 -1.17054 0
      vertex 5.74164 -1.74171 8
      vertex 5.74164 -1.74171 0
    endloop
  endfacet
  facet normal -0.970032 0.242979 0
    outer loop
      vertex -5.88471 1.17054 0
      vertex -5.74164 1.74171 8
      vertex -5.74164 1.74171 0
    endloop
  endfacet
  facet normal -0.970032 0.242979 0
    outer loop
      vertex -5.74164 1.74171 8
      vertex -5.88471 1.17054 0
      vertex -5.88471 1.17054 8
    endloop
  endfacet
  facet normal -0.427556 -0.903989 0
    outer loop
      vertex -2.82838 -5.29153 0
      vertex -2.2961 -5.54328 8
      vertex -2.82838 -5.29153 8
    endloop
  endfacet
  facet normal -0.427556 -0.903989 -0
    outer loop
      vertex -2.2961 -5.54328 8
      vertex -2.82838 -5.29153 0
      vertex -2.2961 -5.54328 0
    endloop
  endfacet
  facet normal -0.970032 -0.242979 0
    outer loop
      vertex -5.74164 -1.74171 0
      vertex -5.88471 -1.17054 8
      vertex -5.88471 -1.17054 0
    endloop
  endfacet
  facet normal -0.970032 -0.242979 0
    outer loop
      vertex -5.88471 -1.17054 8
      vertex -5.74164 -1.74171 0
      vertex -5.74164 -1.74171 8
    endloop
  endfacet
  facet normal 0.336884 0.941546 -0
    outer loop
      vertex 2.2961 5.54328 0
      vertex 1.74171 5.74164 8
      vertex 2.2961 5.54328 8
    endloop
  endfacet
  facet normal 0.336884 0.941546 0
    outer loop
      vertex 1.74171 5.74164 8
      vertex 2.2961 5.54328 0
      vertex 1.74171 5.74164 0
    endloop
  endfacet
  facet normal 0.989176 -0.146736 0
    outer loop
      vertex 5.88471 -1.17054 8
      vertex 5.97111 -0.588102 0
      vertex 5.97111 -0.588102 8
    endloop
  endfacet
  facet normal 0.989176 -0.146736 0
    outer loop
      vertex 5.97111 -0.588102 0
      vertex 5.88471 -1.17054 8
      vertex 5.88471 -1.17054 0
    endloop
  endfacet
  facet normal -0.146736 0.989176 0
    outer loop
      vertex -0.588102 5.97111 0
      vertex -1.17054 5.88471 8
      vertex -0.588102 5.97111 8
    endloop
  endfacet
  facet normal -0.146736 0.989176 0
    outer loop
      vertex -1.17054 5.88471 8
      vertex -0.588102 5.97111 0
      vertex -1.17054 5.88471 0
    endloop
  endfacet
  facet normal 0.427556 -0.903989 0
    outer loop
      vertex 2.2961 -5.54328 0
      vertex 2.82838 -5.29153 8
      vertex 2.2961 -5.54328 8
    endloop
  endfacet
  facet normal 0.427556 -0.903989 0
    outer loop
      vertex 2.82838 -5.29153 8
      vertex 2.2961 -5.54328 0
      vertex 2.82838 -5.29153 0
    endloop
  endfacet
  facet normal -0.671558 0.740952 0
    outer loop
      vertex -3.80636 4.63806 0
      vertex -4.24264 4.24264 8
      vertex -3.80636 4.63806 8
    endloop
  endfacet
  facet normal -0.671558 0.740952 0
    outer loop
      vertex -4.24264 4.24264 8
      vertex -3.80636 4.63806 0
      vertex -4.24264 4.24264 0
    endloop
  endfacet
  facet normal 0 0 -1
    outer loop
      vertex 5.97111 -0.588102 0
      vertex 5.97111 0.588102 0
      vertex 6 0 0
    endloop
  endfacet
  facet normal 0 0 -1
    outer loop
      vertex 5.88471 -1.17054 0
      vertex 5.97111 0.588102 0
      vertex 5.97111 -0.588102 0
    endloop
  endfacet
  facet normal 0 0 -1
    outer loop
      vertex 5.88471 -1.17054 0
      vertex 5.88471 1.17054 0
      vertex 5.97111 0.588102 0
    endloop
  endfacet
  facet normal 0 0 -1
    outer loop
      vertex 5.74164 -1.74171 0
      vertex 5.88471 1.17054 0
      vertex 5.88471 -1.17054 0
    endloop
  endfacet
  facet normal 0 0 -1
    outer loop
      vertex 5.74164 -1.74171 0
      vertex 5.74164 1.74171 0
      vertex 5.88471 1.17054 0
    endloop
  endfacet
  facet normal 0 0 -1
    outer loop
      vertex 5.54328 -2.2961 0
      vertex 5.74164 1.74171 0
      vertex 5.74164 -1.74171 0
    endloop
  endfacet
  facet normal 0 0 -1
    outer loop
      vertex 5.54328 -2.2961 0
      vertex 5.54328 2.2961 0
      vertex 5.74164 1.74171 0
    endloop
  endfacet
  facet normal 0 0 -1
    outer loop
      vertex 5.29153 -2.82838 0
      vertex 5.54328 2.2961 0
      vertex 5.54328 -2.2961 0
    endloop
  endfacet
  facet normal 0 0 -1
    outer loop
      vertex 5.29153 -2.82838 0
      vertex 5.29153 2.82838 0
      vertex 5.54328 2.2961 0
    endloop
  endfacet
  facet normal 0 0 -1
    outer loop
      vertex 4.98882 -3.33342 0
      vertex 5.29153 2.82838 0
      vertex 5.29153 -2.82838 0
    endloop
  endfacet
  facet normal 0 0 -1
    outer loop
      vertex 4.98882 -3.33342 0
      vertex 4.98882 3.33342 0
      vertex 5.29153 2.82838 0
    endloop
  endfacet
  facet normal 0 0 -1
    outer loop
      vertex 4.63806 -3.80636 0
      vertex 4.98882 3.33342 0
      vertex 4.98882 -3.33342 0
    endloop
  endfacet
  facet normal 0 0 -1
    outer loop
      vertex 4.63806 -3.80636 0
      vertex 4.63806 3.80636 0
      vertex 4.98882 3.33342 0
    endloop
  endfacet
  facet normal 0 0 -1
    outer loop
      vertex 4.24264 -4.24264 0
      vertex 4.63806 3.80636 0
      vertex 4.63806 -3.80636 0
    endloop
  endfacet
  facet normal 0 0 -1
    outer loop
      vertex 4.24264 -4.24264 0
      vertex 4.24264 4.24264 0
      vertex 4.63806 3.80636 0
    endloop
  endfacet
  facet normal 0 0 -1
    outer loop
      vertex 3.80636 -4.63806 0
      vertex 4.24264 4.24264 0
      vertex 4.24264 -4.24264 0
    endloop
  endfacet
  facet normal 0 0 -1
    outer loop
      vertex 3.80636 -4.63806 0
      vertex 3.80636 4.63806 0
      vertex 4.24264 4.24264 0
    endloop
  endfacet
  facet normal 0 0 -1
    outer loop
      vertex 3.33342 -4.98882 0
      vertex 3.80636 4.63806 0
      vertex 3.80636 -4.63806 0
    endloop
  endfacet
  facet normal 0 0 -1
    outer loop
      vertex 3.33342 -4.98882 0
      vertex 3.33342 4.98882 0
      vertex 3.80636 4.63806 0
    endloop
  endfacet
  facet normal 0 0 -1
    outer loop
      vertex 2.82838 -5.29153 0
      vertex 3.33342 4.98882 0
      vertex 3.33342 -4.98882 0
    endloop
  endfacet
  facet normal 0 0 -1
    outer loop
      vertex 2.82838 -5.29153 0
      vertex 2.82838 5.29153 0
      vertex 3.33342 4.98882 0
    endloop
  endfacet
  facet normal 0 0 -1
    outer loop
      vertex 2.2961 -5.54328 0
      vertex 2.82838 5.29153 0
      vertex 2.82838 -5.29153 0
    endloop
  endfacet
  facet normal 0 0 -1
    outer loop
      vertex 2.2961 -5.54328 0
      vertex 2.2961 5.54328 0
      vertex 2.82838 5.29153 0
    endloop
  endfacet
  facet normal 0 0 -1
    outer loop
      vertex 1.74171 -5.74164 0
      vertex 2.2961 5.54328 0
      vertex 2.2961 -5.54328 0
    endloop
  endfacet
  facet normal 0 0 -1
    outer loop
      vertex 1.74171 -5.74164 0
      vertex 1.74171 5.74164 0
      vertex 2.2961 5.54328 0
    endloop
  endfacet
  facet normal 0 0 -1
    outer loop
      vertex 1.17054 -5.88471 0
      vertex 1.74171 5.74164 0
      vertex 1.74171 -5.74164 0
    endloop
  endfacet
  facet normal 0 0 -1
    outer loop
      vertex 1.17054 -5.88471 0
      vertex 1.17054 5.88471 0
      vertex 1.74171 5.74164 0
    endloop
  endfacet
  facet normal 0 0 -1
    outer loop
      vertex 0.588102 -5.97111 0
      vertex 1.17054 5.88471 0
      vertex 1.17054 -5.88471 0
    endloop
  endfacet
  facet normal 0 0 -1
    outer loop
      vertex 0.588102 -5.97111 0
      vertex 0.588102 5.97111 0
      vertex 1.17054 5.88471 0
    endloop
  endfacet
  facet normal 0 0 -1
    outer loop
      vertex 0 -6 0
      vertex 0.588102 5.97111 0
      vertex 0.588102 -5.97111 0
    endloop
  endfacet
  facet normal 0 0 -1
    outer loop
      vertex 0 -6 0
      vertex 0 6 0
      vertex 0.588102 5.97111 0
    endloop
  endfacet
  facet normal 0 0 -1
    outer loop
      vertex -0.588102 -5.97111 0
      vertex 0 6 0
      vertex 0 -6 0
    endloop
  endfacet
  facet normal 0 0 -1
    outer loop
      vertex -0.588102 -5.97111 0
      vertex -0.588102 5.97111 0
      vertex 0 6 0
    endloop
  endfacet
  facet normal 0 0 -1
    outer loop
      vertex -1.17054 -5.88471 0
      vertex -0.588102 5.97111 0
      vertex -0.588102 -5.97111 0
    endloop
  endfacet
  facet normal 0 0 -1
    outer loop
      vertex -1.17054 -5.88471 0
      vertex -1.17054 5.88471 0
      vertex -0.588102 5.97111 0
    endloop
  endfacet
  facet normal 0 0 -1
    outer loop
      vertex -1.74171 -5.74164 0
      vertex -1.17054 5.88471 0
      vertex -1.17054 -5.88471 0
    endloop
  endfacet
  facet normal 0 0 -1
    outer loop
      vertex -1.74171 -5.74164 0
      vertex -1.74171 5.74164 0
      vertex -1.17054 5.88471 0
    endloop
  endfacet
  facet normal 0 0 -1
    outer loop
      vertex -2.2961 -5.54328 0
      vertex -1.74171 5.74164 0
      vertex -1.74171 -5.74164 0
    endloop
  endfacet
  facet normal 0 0 -1
    outer loop
      vertex -2.2961 -5.54328 0
      vertex -2.2961 5.54328 0
      vertex -1.74171 5.74164 0
    endloop
  endfacet
  facet normal 0 0 -1
    outer loop
      vertex -2.82838 -5.29153 0
      vertex -2.2961 5.54328 0
      vertex -2.2961 -5.54328 0
    endloop
  endfacet
  facet normal 0 0 -1
    outer loop
      vertex -2.82838 -5.29153 0
      vertex -2.82838 5.29153 0
      vertex -2.2961 5.54328 0
    endloop
  endfacet
  facet normal 0 0 -1
    outer loop
      vertex -3.33342 -4.98882 0
      vertex -2.82838 5.29153 0
      vertex -2.82838 -5.29153 0
    endloop
  endfacet
  facet normal 0 0 -1
    outer loop
      vertex -3.33342 -4.98882 0
      vertex -3.33342 4.98882 0
      vertex -2.82838 5.29153 0
    endloop
  endfacet
  facet normal 0 0 -1
    outer loop
      vertex -3.80636 -4.63806 0
      vertex -3.33342 4.98882 0
      vertex -3.33342 -4.98882 0
    endloop
  endfacet
  facet normal 0 0 -1
    outer loop
      vertex -3.80636 -4.63806 0
      vertex -3.80636 4.63806 0
      vertex -3.33342 4.98882 0
    endloop
  endfacet
  facet normal 0 0 -1
    outer loop
      vertex -4.24264 -4.24264 0
      vertex -3.80636 4.63806 0
      vertex -3.80636 -4.63806 0
    endloop
  endfacet
  facet normal 0 0 -1
    outer loop
      vertex -4.24264 -4.24264 0
      vertex -4.24264 4.24264 0
      vertex -3.80636 4.63806 0
    endloop
  endfacet
  facet normal 0 0 -1
    outer loop
      vertex -4.63806 -3.80636 0
      vertex -4.24264 4.24264 0
      vertex -4.24264 -4.24264 0
    endloop
  endfacet
  facet normal 0 0 -1
    outer loop
      vertex -4.63806 -3.80636 0
      vertex -4.63806 3.80636 0
      vertex -4.24264 4.24264 0
    endloop
  endfacet
  facet normal 0 0 -1
    outer loop
      vertex -4.98882 -3.33342 0
      vertex -4.63806 3.80636 0
      vertex -4.63806 -3.80636 0
    endloop
  endfacet
  facet normal 0 0 -1
    outer loop
      vertex -4.98882 -3.33342 0
      vertex -4.98882 3.33342 0
      vertex -4.63806 3.80636 0
    endloop
  endfacet
  facet normal 0 0 -1
    outer loop
      vertex -5.29153 -2.82838 0
      vertex -4.98882 3.33342 0
      vertex -4.98882 -3.33342 0
    endloop
  endfacet
  facet normal 0 0 -1
    outer loop
      vertex -5.29153 -2.82838 0
      vertex -5.29153 2.82838 0
      vertex -4.98882 3.33342 0
    endloop
  endfacet
  facet normal 0 0 -1
    outer loop
      vertex -5.54328 -2.2961 0
      vertex -5.29153 2.82838 0
      vertex -5.29153 -2.82838 0
    endloop
  endfacet
  facet normal 0 0 -1
    outer loop
      vertex -5.54328 -2.2961 0
      vertex -5.54328 2.2961 0
      vertex -5.29153 2.82838 0
    endloop
  endfacet
  facet normal 0 0 -1
    outer loop
      vertex -5.74164 -1.74171 0
      vertex -5.54328 2.2961 0
      vertex -5.54328 -2.2961 0
    endloop
  endfacet
  facet normal 0 0 -1
    outer loop
      vertex -5.74164 -1.74171 0
      vertex -5.74164 1.74171 0
      vertex -5.54328 2.2961 0
    endloop
  endfacet
  facet normal 0 0 -1
    outer loop
      vertex -5.88471 -1.17054 0
      vertex -5.74164 1.74171 0
      vertex -5.74164 -1.74171 0
    endloop
  endfacet
  facet normal 0 0 -1
    outer loop
      vertex -5.88471 -1.17054 0
      vertex -5.88471 1.17054 0
      vertex -5.74164 1.74171 0
    endloop
  endfacet
  facet normal 0 0 -1
    outer loop
      vertex -5.97111 -0.588102 0
      vertex -5.88471 1.17054 0
      vertex -5.88471 -1.17054 0
    endloop
  endfacet
  facet normal 0 0 -1
    outer loop
      vertex -5.97111 -0.588102 0
      vertex -5.97111 0.588102 0
      vertex -5.88471 1.17054 0
    endloop
  endfacet
  facet normal 0 -0 -1
    outer loop
      vertex -5.97111 0.588102 0
      vertex -5.97111 -0.588102 0
      vertex -6 0 0
    endloop
  endfacet
  facet normal -0.595703 0.803204 0
    outer loop
      vertex -3.33342 4.98882 0
      vertex -3.80636 4.63806 8
      vertex -3.33342 4.98882 8
    endloop
  endfacet
  facet normal -0.595703 0.803204 0
    outer loop
      vertex -3.80636 4.63806 8
      vertex -3.33342 4.98882 0
      vertex -3.80636 4.63806 0
    endloop
  endfacet
  facet normal 0.242979 0.970032 -0
    outer loop
      vertex 1.74171 5.74164 0
      vertex 1.17054 5.88471 8
      vertex 1.74171 5.74164 8
    endloop
  endfacet
  facet normal 0.242979 0.970032 0
    outer loop
      vertex 1.17054 5.88471 8
      vertex 1.74171 5.74164 0
      vertex 1.17054 5.88471 0
    endloop
  endfacet
  facet normal -0.740952 0.671558 0
    outer loop
      vertex -4.63806 3.80636 0
      vertex -4.24264 4.24264 8
      vertex -4.24264 4.24264 0
    endloop
  endfacet
  facet normal -0.740952 0.671558 0
    outer loop
      vertex -4.24264 4.24264 8
      vertex -4.63806 3.80636 0
      vertex -4.63806 3.80636 8
    endloop
  endfacet
  facet normal 0.998796 -0.049065 0
    outer loop
      vertex 5.97111 -0.588102 8
      vertex 6 0 0
      vertex 6 0 8
    endloop
  endfacet
  facet normal 0.998796 -0.049065 0
    outer loop
      vertex 6 0 0
      vertex 5.97111 -0.588102 8
      vertex 5.97111 -0.588102 0
    endloop
  endfacet
  facet normal -0.427556 0.903989 0
    outer loop
      vertex -2.2961 5.54328 0
      vertex -2.82838 5.29153 8
      vertex -2.2961 5.54328 8
    endloop
  endfacet
  facet normal -0.427556 0.903989 0
    outer loop
      vertex -2.82838 5.29153 8
      vertex -2.2961 5.54328 0
      vertex -2.82838 5.29153 0
    endloop
  endfacet
  facet normal -0.941546 -0.336884 0
    outer loop
      vertex -5.54328 -2.2961 0
      vertex -5.74164 -1.74171 8
      vertex -5.74164 -1.74171 0
    endloop
  endfacet
  facet normal -0.941546 -0.336884 0
    outer loop
      vertex -5.74164 -1.74171 8
      vertex -5.54328 -2.2961 0
      vertex -5.54328 -2.2961 8
    endloop
  endfacet
  facet normal 0.514104 0.857728 -0
    outer loop
      vertex 3.33342 4.98882 0
      vertex 2.82838 5.29153 8
      vertex 3.33342 4.98882 8
    endloop
  endfacet
  facet normal 0.514104 0.857728 0
    outer loop
      vertex 2.82838 5.29153 8
      vertex 3.33342 4.98882 0
      vertex 2.82838 5.29153 0
    endloop
  endfacet
  facet normal 0.595703 0.803204 -0
    outer loop
      vertex 3.80636 4.63806 0
      vertex 3.33342 4.98882 8
      vertex 3.80636 4.63806 8
    endloop
  endfacet
  facet normal 0.595703 0.803204 0
    outer loop
      vertex 3.33342 4.98882 8
      vertex 3.80636 4.63806 0
      vertex 3.33342 4.98882 0
    endloop
  endfacet
  facet normal 0.146736 -0.989176 0
    outer loop
      vertex 0.588102 -5.97111 0
      vertex 1.17054 -5.88471 8
      vertex 0.588102 -5.97111 8
    endloop
  endfacet
  facet normal 0.146736 -0.989176 0
    outer loop
      vertex 1.17054 -5.88471 8
      vertex 0.588102 -5.97111 0
      vertex 1.17054 -5.88471 0
    endloop
  endfacet
  facet normal 0.740952 -0.671558 0
    outer loop
      vertex 4.24264 -4.24264 8
      vertex 4.63806 -3.80636 0
      vertex 4.63806 -3.80636 8
    endloop
  endfacet
  facet normal 0.740952 -0.671558 0
    outer loop
      vertex 4.63806 -3.80636 0
      vertex 4.24264 -4.24264 8
      vertex 4.24264 -4.24264 0
    endloop
  endfacet
  facet normal 0.803204 -0.595703 0
    outer loop
      vertex 4.63806 -3.80636 8
      vertex 4.98882 -3.33342 0
      vertex 4.98882 -3.33342 8
    endloop
  endfacet
  facet normal 0.803204 -0.595703 0
    outer loop
      vertex 4.98882 -3.33342 0
      vertex 4.63806 -3.80636 8
      vertex 4.63806 -3.80636 0
    endloop
  endfacet
  facet normal 0.242979 -0.970032 0
    outer loop
      vertex 1.17054 -5.88471 0
      vertex 1.74171 -5.74164 8
      vertex 1.17054 -5.88471 8
    endloop
  endfacet
  facet normal 0.242979 -0.970032 0
    outer loop
      vertex 1.74171 -5.74164 8
      vertex 1.17054 -5.88471 0
      vertex 1.74171 -5.74164 0
    endloop
  endfacet
  facet normal 0.941546 -0.336884 0
    outer loop
      vertex 5.54328 -2.2961 8
      vertex 5.74164 -1.74171 0
      vertex 5.74164 -1.74171 8
    endloop
  endfacet
  facet normal 0.941546 -0.336884 0
    outer loop
      vertex 5.74164 -1.74171 0
      vertex 5.54328 -2.2961 8
      vertex 5.54328 -2.2961 0
    endloop
  endfacet
  facet normal -0.242979 0.970032 0
    outer loop
      vertex -1.17054 5.88471 0
      vertex -1.74171 5.74164 8
      vertex -1.17054 5.88471 8
    endloop
  endfacet
  facet normal -0.242979 0.970032 0
    outer loop
      vertex -1.74171 5.74164 8
      vertex -1.17054 5.88471 0
      vertex -1.74171 5.74164 0
    endloop
  endfacet
  facet normal -0.903989 -0.427556 0
    outer loop
      vertex -5.29153 -2.82838 0
      vertex -5.54328 -2.2961 8
      vertex -5.54328 -2.2961 0
    endloop
  endfacet
  facet normal -0.903989 -0.427556 0
    outer loop
      vertex -5.54328 -2.2961 8
      vertex -5.29153 -2.82838 0
      vertex -5.29153 -2.82838 8
    endloop
  endfacet
  facet normal -0.989176 0.146736 0
    outer loop
      vertex -5.97111 0.588102 0
      vertex -5.88471 1.17054 8
      vertex -5.88471 1.17054 0
    endloop
  endfacet
  facet normal -0.989176 0.146736 0
    outer loop
      vertex -5.88471 1.17054 8
      vertex -5.97111 0.588102 0
      vertex -5.97111 0.588102 8
    endloop
  endfacet
  facet normal 0.427556 0.903989 -0
    outer loop
      vertex 2.82838 5.29153 0
      vertex 2.2961 5.54328 8
      vertex 2.82838 5.29153 8
    endloop
  endfacet
  facet normal 0.427556 0.903989 0
    outer loop
      vertex 2.2961 5.54328 8
      vertex 2.82838 5.29153 0
      vertex 2.2961 5.54328 0
    endloop
  endfacet
  facet normal -0.740952 -0.671558 0
    outer loop
      vertex -4.24264 -4.24264 0
      vertex -4.63806 -3.80636 8
      vertex -4.63806 -3.80636 0
    endloop
  endfacet
  facet normal -0.740952 -0.671558 0
    outer loop
      vertex -4.63806 -3.80636 8
      vertex -4.24264 -4.24264 0
      vertex -4.24264 -4.24264 8
    endloop
  endfacet
  facet normal -0.857728 -0.514104 0
    outer loop
      vertex -4.98882 -3.33342 0
      vertex -5.29153 -2.82838 8
      vertex -5.29153 -2.82838 0
    endloop
  endfacet
  facet normal -0.857728 -0.514104 0
    outer loop
      vertex -5.29153 -2.82838 8
      vertex -4.98882 -3.33342 0
      vertex -4.98882 -3.33342 8
    endloop
  endfacet
  facet normal -0.336884 0.941546 0
    outer loop
      vertex -1.74171 5.74164 0
      vertex -2.2961 5.54328 8
      vertex -1.74171 5.74164 8
    endloop
  endfacet
  facet normal -0.336884 0.941546 0
    outer loop
      vertex -2.2961 5.54328 8
      vertex -1.74171 5.74164 0
      vertex -2.2961 5.54328 0
    endloop
  endfacet
  facet normal -0.514104 -0.857728 0
    outer loop
      vertex -3.33342 -4.98882 0
      vertex -2.82838 -5.29153 8
      vertex -3.33342 -4.98882 8
    endloop
  endfacet
  facet normal -0.514104 -0.857728 -0
    outer loop
      vertex -2.82838 -5.29153 8
      vertex -3.33342 -4.98882 0
      vertex -2.82838 -5.29153 0
    endloop
  endfacet
  facet normal -0.941546 0.336884 0
    outer loop
      vertex -5.74164 1.74171 0
      vertex -5.54328 2.2961 8
      vertex -5.54328 2.2961 0
    endloop
  endfacet
  facet normal -0.941546 0.336884 0
    outer loop
      vertex -5.54328 2.2961 8
      vertex -5.74164 1.74171 0
      vertex -5.74164 1.74171 8
    endloop
  endfacet
  facet normal 0.595703 -0.803204 0
    outer loop
      vertex 3.33342 -4.98882 0
      vertex 3.80636 -4.63806 8
      vertex 3.33342 -4.98882 8
    endloop
  endfacet
  facet normal 0.595703 -0.803204 0
    outer loop
      vertex 3.80636 -4.63806 8
      vertex 3.33342 -4.98882 0
      vertex 3.80636 -4.63806 0
    endloop
  endfacet
  facet normal 0.740952 0.671558 0
    outer loop
      vertex 4.63806 3.80636 8
      vertex 4.24264 4.24264 0
      vertex 4.24264 4.24264 8
    endloop
  endfacet
  facet normal 0.740952 0.671558 0
    outer loop
      vertex 4.24264 4.24264 0
      vertex 4.63806 3.80636 8
      vertex 4.63806 3.80636 0
    endloop
  endfacet
  facet normal -0.803204 -0.595703 0
    outer loop
      vertex -4.63806 -3.80636 0
      vertex -4.98882 -3.33342 8
      vertex -4.98882 -3.33342 0
    endloop
  endfacet
  facet normal -0.803204 -0.595703 0
    outer loop
      vertex -4.98882 -3.33342 8
      vertex -4.63806 -3.80636 0
      vertex -4.63806 -3.80636 8
    endloop
  endfacet
  facet normal -0.514104 0.857728 0
    outer loop
      vertex -2.82838 5.29153 0
      vertex -3.33342 4.98882 8
      vertex -2.82838 5.29153 8
    endloop
  endfacet
  facet normal -0.514104 0.857728 0
    outer loop
      vertex -3.33342 4.98882 8
      vertex -2.82838 5.29153 0
      vertex -3.33342 4.98882 0
    endloop
  endfacet
  facet normal -0.989176 -0.146736 0
    outer loop
      vertex -5.88471 -1.17054 0
      vertex -5.97111 -0.588102 8
      vertex -5.97111 -0.588102 0
    endloop
  endfacet
  facet normal -0.989176 -0.146736 0
    outer loop
      vertex -5.97111 -0.588102 8
      vertex -5.88471 -1.17054 0
      vertex -5.88471 -1.17054 8
    endloop
  endfacet
  facet normal -0.903989 0.427556 0
    outer loop
      vertex -5.54328 2.2961 0
      vertex -5.29153 2.82838 8
      vertex -5.29153 2.82838 0
    endloop
  endfacet
  facet normal -0.903989 0.427556 0
    outer loop
      vertex -5.29153 2.82838 8
      vertex -5.54328 2.2961 0
      vertex -5.54328 2.2961 8
    endloop
  endfacet
  facet normal -0.671558 -0.740952 0
    outer loop
      vertex -4.24264 -4.24264 0
      vertex -3.80636 -4.63806 8
      vertex -4.24264 -4.24264 8
    endloop
  endfacet
  facet normal -0.671558 -0.740952 -0
    outer loop
      vertex -3.80636 -4.63806 8
      vertex -4.24264 -4.24264 0
      vertex -3.80636 -4.63806 0
    endloop
  endfacet
  facet normal -0.803204 0.595703 0
    outer loop
      vertex -4.98882 3.33342 0
      vertex -4.63806 3.80636 8
      vertex -4.63806 3.80636 0
    endloop
  endfacet
  facet normal -0.803204 0.595703 0
    outer loop
      vertex -4.63806 3.80636 8
      vertex -4.98882 3.33342 0
      vertex -4.98882 3.33342 8
    endloop
  endfacet
  facet normal -0.049065 -0.998796 0
    outer loop
      vertex -0.588102 -5.97111 0
      vertex 0 -6 8
      vertex -0.588102 -5.97111 8
    endloop
  endfacet
  facet normal -0.049065 -0.998796 -0
    outer loop
      vertex 0 -6 8
      vertex -0.588102 -5.97111 0
      vertex 0 -6 0
    endloop
  endfacet
  facet normal 0 0 1
    outer loop
      vertex 2.85 0 8
      vertex 6 0 8
      vertex 5.97111 0.588102 8
    endloop
  endfacet
  facet normal 0 0 1
    outer loop
      vertex 2.83628 0.279348 8
      vertex 5.97111 0.588102 8
      vertex 5.88471 1.17054 8
    endloop
  endfacet
  facet normal 0 0 1
    outer loop
      vertex 6 0 8
      vertex 2.85 0 8
      vertex 5.97111 -0.588102 8
    endloop
  endfacet
  facet normal 0 0 1
    outer loop
      vertex 2.79524 0.556007 8
      vertex 5.88471 1.17054 8
      vertex 5.74164 1.74171 8
    endloop
  endfacet
  facet normal -0 0 1
    outer loop
      vertex 2.83628 -0.279348 8
      vertex 5.97111 -0.588102 8
      vertex 2.85 0 8
    endloop
  endfacet
  facet normal 0 0 1
    outer loop
      vertex 2.72728 0.827311 8
      vertex 5.74164 1.74171 8
      vertex 5.54328 2.2961 8
    endloop
  endfacet
  facet normal 0 0 1
    outer loop
      vertex 5.97111 -0.588102 8
      vertex 2.83628 -0.279348 8
      vertex 5.88471 -1.17054 8
    endloop
  endfacet
  facet normal 0 0 1
    outer loop
      vertex 2.63306 1.09065 8
      vertex 5.54328 2.2961 8
      vertex 5.29153 2.82838 8
    endloop
  endfacet
  facet normal -0 0 1
    outer loop
      vertex 2.79524 -0.556007 8
      vertex 5.88471 -1.17054 8
      vertex 2.83628 -0.279348 8
    endloop
  endfacet
  facet normal 0 0 1
    outer loop
      vertex 2.51348 1.34348 8
      vertex 5.29153 2.82838 8
      vertex 4.98882 3.33342 8
    endloop
  endfacet
  facet normal 0 0 1
    outer loop
      vertex 5.88471 -1.17054 8
      vertex 2.79524 -0.556007 8
      vertex 5.74164 -1.74171 8
    endloop
  endfacet
  facet normal 0 0 1
    outer loop
      vertex 2.36969 1.58337 8
      vertex 4.98882 3.33342 8
      vertex 4.63806 3.80636 8
    endloop
  endfacet
  facet normal -0 0 1
    outer loop
      vertex 2.72728 -0.827311 8
      vertex 5.74164 -1.74171 8
      vertex 2.79524 -0.556007 8
    endloop
  endfacet
  facet normal 0 0 1
    outer loop
      vertex 2.20308 1.80802 8
      vertex 4.63806 3.80636 8
      vertex 4.24264 4.24264 8
    endloop
  endfacet
  facet normal 0 0 1
    outer loop
      vertex 5.74164 -1.74171 8
      vertex 2.72728 -0.827311 8
      vertex 5.54328 -2.2961 8
    endloop
  endfacet
  facet normal 0 0 1
    outer loop
      vertex 2.01525 2.01525 8
      vertex 4.24264 4.24264 8
      vertex 3.80636 4.63806 8
    endloop
  endfacet
  facet normal -0 0 1
    outer loop
      vertex 2.63306 -1.09065 8
      vertex 5.54328 -2.2961 8
      vertex 2.72728 -0.827311 8
    endloop
  endfacet
  facet normal 0 0 1
    outer loop
      vertex 1.80802 2.20308 8
      vertex 3.80636 4.63806 8
      vertex 3.33342 4.98882 8
    endloop
  endfacet
  facet normal 0 0 1
    outer loop
      vertex 5.54328 -2.2961 8
      vertex 2.63306 -1.09065 8
      vertex 5.29153 -2.82838 8
    endloop
  endfacet
  facet normal -0 0 1
    outer loop
      vertex 2.51348 -1.34348 8
      vertex 5.29153 -2.82838 8
      vertex 2.63306 -1.09065 8
    endloop
  endfacet
  facet normal 0 0 1
    outer loop
      vertex 5.97111 0.588102 8
      vertex 2.83628 0.279348 8
      vertex 2.85 0 8
    endloop
  endfacet
  facet normal 0 0 1
    outer loop
      vertex 1.58337 2.36969 8
      vertex 3.33342 4.98882 8
      vertex 2.82838 5.29153 8
    endloop
  endfacet
  facet normal 0 0 1
    outer loop
      vertex 5.88471 1.17054 8
      vertex 2.79524 0.556007 8
      vertex 2.83628 0.279348 8
    endloop
  endfacet
  facet normal 0 0 1
    outer loop
      vertex 5.74164 1.74171 8
      vertex 2.72728 0.827311 8
      vertex 2.79524 0.556007 8
    endloop
  endfacet
  facet normal 0 0 1
    outer loop
      vertex 5.54328 2.2961 8
      vertex 2.63306 1.09065 8
      vertex 2.72728 0.827311 8
    endloop
  endfacet
  facet normal 0 0 1
    outer loop
      vertex 5.29153 2.82838 8
      vertex 2.51348 1.34348 8
      vertex 2.63306 1.09065 8
    endloop
  endfacet
  facet normal 0 0 1
    outer loop
      vertex 4.98882 3.33342 8
      vertex 2.36969 1.58337 8
      vertex 2.51348 1.34348 8
    endloop
  endfacet
  facet normal 0 0 1
    outer loop
      vertex 1.34348 2.51348 8
      vertex 2.82838 5.29153 8
      vertex 2.2961 5.54328 8
    endloop
  endfacet
  facet normal 0 0 1
    outer loop
      vertex 4.63806 3.80636 8
      vertex 2.20308 1.80802 8
      vertex 2.36969 1.58337 8
    endloop
  endfacet
  facet normal 0 0 1
    outer loop
      vertex 4.24264 4.24264 8
      vertex 2.01525 2.01525 8
      vertex 2.20308 1.80802 8
    endloop
  endfacet
  facet normal 0 0 1
    outer loop
      vertex 3.80636 4.63806 8
      vertex 1.80802 2.20308 8
      vertex 2.01525 2.01525 8
    endloop
  endfacet
  facet normal 0 0 1
    outer loop
      vertex 1.09065 2.63306 8
      vertex 2.2961 5.54328 8
      vertex 1.74171 5.74164 8
    endloop
  endfacet
  facet normal 0 0 1
    outer loop
      vertex 3.33342 4.98882 8
      vertex 1.58337 2.36969 8
      vertex 1.80802 2.20308 8
    endloop
  endfacet
  facet normal 0 0 1
    outer loop
      vertex 2.82838 5.29153 8
      vertex 1.34348 2.51348 8
      vertex 1.58337 2.36969 8
    endloop
  endfacet
  facet normal 0 0 1
    outer loop
      vertex 0.827311 2.72728 8
      vertex 1.74171 5.74164 8
      vertex 1.17054 5.88471 8
    endloop
  endfacet
  facet normal 0 0 1
    outer loop
      vertex 2.2961 5.54328 8
      vertex 1.09065 2.63306 8
      vertex 1.34348 2.51348 8
    endloop
  endfacet
  facet normal 0 0 1
    outer loop
      vertex 1.74171 5.74164 8
      vertex 0.827311 2.72728 8
      vertex 1.09065 2.63306 8
    endloop
  endfacet
  facet normal 0 0 1
    outer loop
      vertex 0.556007 2.79524 8
      vertex 1.17054 5.88471 8
      vertex 0.588102 5.97111 8
    endloop
  endfacet
  facet normal 0 0 1
    outer loop
      vertex 1.17054 5.88471 8
      vertex 0.556007 2.79524 8
      vertex 0.827311 2.72728 8
    endloop
  endfacet
  facet normal 0 0 1
    outer loop
      vertex 0.588102 5.97111 8
      vertex 0.279348 2.83628 8
      vertex 0.556007 2.79524 8
    endloop
  endfacet
  facet normal 0 0 1
    outer loop
      vertex 0 6 8
      vertex 0.279348 2.83628 8
      vertex 0.588102 5.97111 8
    endloop
  endfacet
  facet normal 0 0 1
    outer loop
      vertex 0 6 8
      vertex 0 2.85 8
      vertex 0.279348 2.83628 8
    endloop
  endfacet
  facet normal 0 0 1
    outer loop
      vertex 0 6 8
      vertex -0.279348 2.83628 8
      vertex 0 2.85 8
    endloop
  endfacet
  facet normal -0 0 1
    outer loop
      vertex -0.588102 5.97111 8
      vertex -0.279348 2.83628 8
      vertex 0 6 8
    endloop
  endfacet
  facet normal 0 0 1
    outer loop
      vertex -0.279348 2.83628 8
      vertex -0.588102 5.97111 8
      vertex -0.556007 2.79524 8
    endloop
  endfacet
  facet normal -0 0 1
    outer loop
      vertex -1.17054 5.88471 8
      vertex -0.556007 2.79524 8
      vertex -0.588102 5.97111 8
    endloop
  endfacet
  facet normal 0 0 1
    outer loop
      vertex -0.556007 2.79524 8
      vertex -1.17054 5.88471 8
      vertex -0.827311 2.72728 8
    endloop
  endfacet
  facet normal -0 0 1
    outer loop
      vertex -1.74171 5.74164 8
      vertex -0.827311 2.72728 8
      vertex -1.17054 5.88471 8
    endloop
  endfacet
  facet normal 0 0 1
    outer loop
      vertex -0.827311 2.72728 8
      vertex -1.74171 5.74164 8
      vertex -1.09065 2.63306 8
    endloop
  endfacet
  facet normal -0 0 1
    outer loop
      vertex -2.2961 5.54328 8
      vertex -1.09065 2.63306 8
      vertex -1.74171 5.74164 8
    endloop
  endfacet
  facet normal 0 0 1
    outer loop
      vertex -1.09065 2.63306 8
      vertex -2.2961 5.54328 8
      vertex -1.34348 2.51348 8
    endloop
  endfacet
  facet normal -0 0 1
    outer loop
      vertex -2.82838 5.29153 8
      vertex -1.34348 2.51348 8
      vertex -2.2961 5.54328 8
    endloop
  endfacet
  facet normal 0 0 1
    outer loop
      vertex -1.34348 2.51348 8
      vertex -2.82838 5.29153 8
      vertex -1.58337 2.36969 8
    endloop
  endfacet
  facet normal -0 0 1
    outer loop
      vertex -3.33342 4.98882 8
      vertex -1.58337 2.36969 8
      vertex -2.82838 5.29153 8
    endloop
  endfacet
  facet normal 0 0 1
    outer loop
      vertex -1.58337 2.36969 8
      vertex -3.33342 4.98882 8
      vertex -1.80802 2.20308 8
    endloop
  endfacet
  facet normal -0 0 1
    outer loop
      vertex -3.80636 4.63806 8
      vertex -1.80802 2.20308 8
      vertex -3.33342 4.98882 8
    endloop
  endfacet
  facet normal 0 0 1
    outer loop
      vertex -1.80802 2.20308 8
      vertex -3.80636 4.63806 8
      vertex -2.01525 2.01525 8
    endloop
  endfacet
  facet normal -0 0 1
    outer loop
      vertex -4.24264 4.24264 8
      vertex -2.01525 2.01525 8
      vertex -3.80636 4.63806 8
    endloop
  endfacet
  facet normal 0 0 1
    outer loop
      vertex -2.01525 2.01525 8
      vertex -4.24264 4.24264 8
      vertex -2.20308 1.80802 8
    endloop
  endfacet
  facet normal -0 0 1
    outer loop
      vertex -4.63806 3.80636 8
      vertex -2.20308 1.80802 8
      vertex -4.24264 4.24264 8
    endloop
  endfacet
  facet normal 0 0 1
    outer loop
      vertex -2.20308 1.80802 8
      vertex -4.63806 3.80636 8
      vertex -2.36969 1.58337 8
    endloop
  endfacet
  facet normal -0 0 1
    outer loop
      vertex -4.98882 3.33342 8
      vertex -2.36969 1.58337 8
      vertex -4.63806 3.80636 8
    endloop
  endfacet
  facet normal 0 0 1
    outer loop
      vertex -2.36969 1.58337 8
      vertex -4.98882 3.33342 8
      vertex -2.51348 1.34348 8
    endloop
  endfacet
  facet normal -0 0 1
    outer loop
      vertex -5.29153 2.82838 8
      vertex -2.51348 1.34348 8
      vertex -4.98882 3.33342 8
    endloop
  endfacet
  facet normal 0 0 1
    outer loop
      vertex 5.29153 -2.82838 8
      vertex 2.51348 -1.34348 8
      vertex 4.98882 -3.33342 8
    endloop
  endfacet
  facet normal -0 0 1
    outer loop
      vertex 2.36969 -1.58337 8
      vertex 4.98882 -3.33342 8
      vertex 2.51348 -1.34348 8
    endloop
  endfacet
  facet normal 0 0 1
    outer loop
      vertex 4.98882 -3.33342 8
      vertex 2.36969 -1.58337 8
      vertex 4.63806 -3.80636 8
    endloop
  endfacet
  facet normal -0 0 1
    outer loop
      vertex 2.20308 -1.80802 8
      vertex 4.63806 -3.80636 8
      vertex 2.36969 -1.58337 8
    endloop
  endfacet
  facet normal 0 0 1
    outer loop
      vertex 4.63806 -3.80636 8
      vertex 2.20308 -1.80802 8
      vertex 4.24264 -4.24264 8
    endloop
  endfacet
  facet normal -0 0 1
    outer loop
      vertex 2.01525 -2.01525 8
      vertex 4.24264 -4.24264 8
      vertex 2.20308 -1.80802 8
    endloop
  endfacet
  facet normal 0 0 1
    outer loop
      vertex 4.24264 -4.24264 8
      vertex 2.01525 -2.01525 8
      vertex 3.80636 -4.63806 8
    endloop
  endfacet
  facet normal -0 0 1
    outer loop
      vertex 1.80802 -2.20308 8
      vertex 3.80636 -4.63806 8
      vertex 2.01525 -2.01525 8
    endloop
  endfacet
  facet normal 0 0 1
    outer loop
      vertex 3.80636 -4.63806 8
      vertex 1.80802 -2.20308 8
      vertex 3.33342 -4.98882 8
    endloop
  endfacet
  facet normal -0 0 1
    outer loop
      vertex 1.58337 -2.36969 8
      vertex 3.33342 -4.98882 8
      vertex 1.80802 -2.20308 8
    endloop
  endfacet
  facet normal 0 0 1
    outer loop
      vertex 3.33342 -4.98882 8
      vertex 1.58337 -2.36969 8
      vertex 2.82838 -5.29153 8
    endloop
  endfacet
  facet normal -0 0 1
    outer loop
      vertex 1.34348 -2.51348 8
      vertex 2.82838 -5.29153 8
      vertex 1.58337 -2.36969 8
    endloop
  endfacet
  facet normal 0 0 1
    outer loop
      vertex 2.82838 -5.29153 8
      vertex 1.34348 -2.51348 8
      vertex 2.2961 -5.54328 8
    endloop
  endfacet
  facet normal -0 0 1
    outer loop
      vertex 1.09065 -2.63306 8
      vertex 2.2961 -5.54328 8
      vertex 1.34348 -2.51348 8
    endloop
  endfacet
  facet normal 0 0 1
    outer loop
      vertex 2.2961 -5.54328 8
      vertex 1.09065 -2.63306 8
      vertex 1.74171 -5.74164 8
    endloop
  endfacet
  facet normal -0 0 1
    outer loop
      vertex 0.827311 -2.72728 8
      vertex 1.74171 -5.74164 8
      vertex 1.09065 -2.63306 8
    endloop
  endfacet
  facet normal 0 0 1
    outer loop
      vertex 1.74171 -5.74164 8
      vertex 0.827311 -2.72728 8
      vertex 1.17054 -5.88471 8
    endloop
  endfacet
  facet normal -0 0 1
    outer loop
      vertex 0.556007 -2.79524 8
      vertex 1.17054 -5.88471 8
      vertex 0.827311 -2.72728 8
    endloop
  endfacet
  facet normal 0 0 1
    outer loop
      vertex 1.17054 -5.88471 8
      vertex 0.556007 -2.79524 8
      vertex 0.588102 -5.97111 8
    endloop
  endfacet
  facet normal -0 0 1
    outer loop
      vertex 0.279348 -2.83628 8
      vertex 0.588102 -5.97111 8
      vertex 0.556007 -2.79524 8
    endloop
  endfacet
  facet normal -0 0 1
    outer loop
      vertex 0 -2.85 8
      vertex 0.588102 -5.97111 8
      vertex 0.279348 -2.83628 8
    endloop
  endfacet
  facet normal 0 0 1
    outer loop
      vertex 0 -2.85 8
      vertex 0 -6 8
      vertex 0.588102 -5.97111 8
    endloop
  endfacet
  facet normal 0 0 1
    outer loop
      vertex -0.279348 -2.83628 8
      vertex 0 -6 8
      vertex 0 -2.85 8
    endloop
  endfacet
  facet normal 0 0 1
    outer loop
      vertex -0.588102 -5.97111 8
      vertex -0.279348 -2.83628 8
      vertex -0.556007 -2.79524 8
    endloop
  endfacet
  facet normal 0 0 1
    outer loop
      vertex -0.279348 -2.83628 8
      vertex -0.588102 -5.97111 8
      vertex 0 -6 8
    endloop
  endfacet
  facet normal 0 0 1
    outer loop
      vertex -1.17054 -5.88471 8
      vertex -0.556007 -2.79524 8
      vertex -0.827311 -2.72728 8
    endloop
  endfacet
  facet normal 0 0 1
    outer loop
      vertex -1.74171 -5.74164 8
      vertex -0.827311 -2.72728 8
      vertex -1.09065 -2.63306 8
    endloop
  endfacet
  facet normal 0 0 1
    outer loop
      vertex -0.556007 -2.79524 8
      vertex -1.17054 -5.88471 8
      vertex -0.588102 -5.97111 8
    endloop
  endfacet
  facet normal 0 0 1
    outer loop
      vertex -2.2961 -5.54328 8
      vertex -1.09065 -2.63306 8
      vertex -1.34348 -2.51348 8
    endloop
  endfacet
  facet normal 0 0 1
    outer loop
      vertex -2.82838 -5.29153 8
      vertex -1.34348 -2.51348 8
      vertex -1.58337 -2.36969 8
    endloop
  endfacet
  facet normal 0 0 1
    outer loop
      vertex -0.827311 -2.72728 8
      vertex -1.74171 -5.74164 8
      vertex -1.17054 -5.88471 8
    endloop
  endfacet
  facet normal 0 0 1
    outer loop
      vertex -3.33342 -4.98882 8
      vertex -1.58337 -2.36969 8
      vertex -1.80802 -2.20308 8
    endloop
  endfacet
  facet normal 0 0 1
    outer loop
      vertex -3.80636 -4.63806 8
      vertex -1.80802 -2.20308 8
      vertex -2.01525 -2.01525 8
    endloop
  endfacet
  facet normal 0 0 1
    outer loop
      vertex -4.24264 -4.24264 8
      vertex -2.01525 -2.01525 8
      vertex -2.20308 -1.80802 8
    endloop
  endfacet
  facet normal 0 0 1
    outer loop
      vertex -1.09065 -2.63306 8
      vertex -2.2961 -5.54328 8
      vertex -1.74171 -5.74164 8
    endloop
  endfacet
  facet normal 0 0 1
    outer loop
      vertex -4.63806 -3.80636 8
      vertex -2.20308 -1.80802 8
      vertex -2.36969 -1.58337 8
    endloop
  endfacet
  facet normal 0 0 1
    outer loop
      vertex -4.98882 -3.33342 8
      vertex -2.36969 -1.58337 8
      vertex -2.51348 -1.34348 8
    endloop
  endfacet
  facet normal 0 0 1
    outer loop
      vertex -5.29153 -2.82838 8
      vertex -2.51348 -1.34348 8
      vertex -2.63306 -1.09065 8
    endloop
  endfacet
  facet normal 0 0 1
    outer loop
      vertex -5.54328 -2.2961 8
      vertex -2.63306 -1.09065 8
      vertex -2.72728 -0.827311 8
    endloop
  endfacet
  facet normal 0 0 1
    outer loop
      vertex -5.74164 -1.74171 8
      vertex -2.72728 -0.827311 8
      vertex -2.79524 -0.556007 8
    endloop
  endfacet
  facet normal 0 0 1
    outer loop
      vertex -1.34348 -2.51348 8
      vertex -2.82838 -5.29153 8
      vertex -2.2961 -5.54328 8
    endloop
  endfacet
  facet normal 0 0 1
    outer loop
      vertex -5.88471 -1.17054 8
      vertex -2.79524 -0.556007 8
      vertex -2.83628 -0.279348 8
    endloop
  endfacet
  facet normal 0 0 1
    outer loop
      vertex -5.97111 -0.588102 8
      vertex -2.83628 -0.279348 8
      vertex -2.85 0 8
    endloop
  endfacet
  facet normal 0 0 1
    outer loop
      vertex -2.51348 1.34348 8
      vertex -5.29153 2.82838 8
      vertex -2.63306 1.09065 8
    endloop
  endfacet
  facet normal 0 0 1
    outer loop
      vertex -1.58337 -2.36969 8
      vertex -3.33342 -4.98882 8
      vertex -2.82838 -5.29153 8
    endloop
  endfacet
  facet normal -0 0 1
    outer loop
      vertex -5.54328 2.2961 8
      vertex -2.63306 1.09065 8
      vertex -5.29153 2.82838 8
    endloop
  endfacet
  facet normal 0 0 1
    outer loop
      vertex -1.80802 -2.20308 8
      vertex -3.80636 -4.63806 8
      vertex -3.33342 -4.98882 8
    endloop
  endfacet
  facet normal 0 0 1
    outer loop
      vertex -2.63306 1.09065 8
      vertex -5.54328 2.2961 8
      vertex -2.72728 0.827311 8
    endloop
  endfacet
  facet normal 0 0 1
    outer loop
      vertex -2.01525 -2.01525 8
      vertex -4.24264 -4.24264 8
      vertex -3.80636 -4.63806 8
    endloop
  endfacet
  facet normal -0 0 1
    outer loop
      vertex -5.74164 1.74171 8
      vertex -2.72728 0.827311 8
      vertex -5.54328 2.2961 8
    endloop
  endfacet
  facet normal 0 0 1
    outer loop
      vertex -2.20308 -1.80802 8
      vertex -4.63806 -3.80636 8
      vertex -4.24264 -4.24264 8
    endloop
  endfacet
  facet normal 0 0 1
    outer loop
      vertex -2.72728 0.827311 8
      vertex -5.74164 1.74171 8
      vertex -2.79524 0.556007 8
    endloop
  endfacet
  facet normal 0 0 1
    outer loop
      vertex -2.36969 -1.58337 8
      vertex -4.98882 -3.33342 8
      vertex -4.63806 -3.80636 8
    endloop
  endfacet
  facet normal -0 0 1
    outer loop
      vertex -5.88471 1.17054 8
      vertex -2.79524 0.556007 8
      vertex -5.74164 1.74171 8
    endloop
  endfacet
  facet normal 0 0 1
    outer loop
      vertex -2.51348 -1.34348 8
      vertex -5.29153 -2.82838 8
      vertex -4.98882 -3.33342 8
    endloop
  endfacet
  facet normal 0 0 1
    outer loop
      vertex -2.79524 0.556007 8
      vertex -5.88471 1.17054 8
      vertex -2.83628 0.279348 8
    endloop
  endfacet
  facet normal 0 0 1
    outer loop
      vertex -2.63306 -1.09065 8
      vertex -5.54328 -2.2961 8
      vertex -5.29153 -2.82838 8
    endloop
  endfacet
  facet normal -0 0 1
    outer loop
      vertex -5.97111 0.588102 8
      vertex -2.83628 0.279348 8
      vertex -5.88471 1.17054 8
    endloop
  endfacet
  facet normal 0 0 1
    outer loop
      vertex -2.72728 -0.827311 8
      vertex -5.74164 -1.74171 8
      vertex -5.54328 -2.2961 8
    endloop
  endfacet
  facet normal 0 0 1
    outer loop
      vertex -2.83628 0.279348 8
      vertex -5.97111 0.588102 8
      vertex -2.85 0 8
    endloop
  endfacet
  facet normal 0 0 1
    outer loop
      vertex -2.79524 -0.556007 8
      vertex -5.88471 -1.17054 8
      vertex -5.74164 -1.74171 8
    endloop
  endfacet
  facet normal 0 0 1
    outer loop
      vertex -6 0 8
      vertex -2.85 0 8
      vertex -5.97111 0.588102 8
    endloop
  endfacet
  facet normal 0 0 1
    outer loop
      vertex -2.83628 -0.279348 8
      vertex -5.97111 -0.588102 8
      vertex -5.88471 -1.17054 8
    endloop
  endfacet
  facet normal 0 0 1
    outer loop
      vertex -2.85 0 8
      vertex -6 0 8
      vertex -5.97111 -0.588102 8
    endloop
  endfacet
  facet normal -0.998796 0.049065 0
    outer loop
      vertex -6 0 0
      vertex -5.97111 0.588102 8
      vertex -5.97111 0.588102 0
    endloop
  endfacet
  facet normal -0.998796 0.049065 0
    outer loop
      vertex -5.97111 0.588102 8
      vertex -6 0 0
      vertex -6 0 8
    endloop
  endfacet
  facet normal -0.336884 -0.941546 0
    outer loop
      vertex -2.2961 -5.54328 0
      vertex -1.74171 -5.74164 8
      vertex -2.2961 -5.54328 8
    endloop
  endfacet
  facet normal -0.336884 -0.941546 -0
    outer loop
      vertex -1.74171 -5.74164 8
      vertex -2.2961 -5.54328 0
      vertex -1.74171 -5.74164 0
    endloop
  endfacet
  facet normal 0.671558 -0.740952 0
    outer loop
      vertex 3.80636 -4.63806 0
      vertex 4.24264 -4.24264 8
      vertex 3.80636 -4.63806 8
    endloop
  endfacet
  facet normal 0.671558 -0.740952 0
    outer loop
      vertex 4.24264 -4.24264 8
      vertex 3.80636 -4.63806 0
      vertex 4.24264 -4.24264 0
    endloop
  endfacet
  facet normal -0.989176 -0.146736 0
    outer loop
      vertex 2.83628 0.279348 6
      vertex 2.79524 0.556007 8
      vertex 2.79524 0.556007 6
    endloop
  endfacet
  facet normal -0.989176 -0.146736 0
    outer loop
      vertex 2.79524 0.556007 8
      vertex 2.83628 0.279348 6
      vertex 2.83628 0.279348 8
    endloop
  endfacet
  facet normal -0.998796 -0.0490552 0
    outer loop
      vertex 2.85 0 6
      vertex 2.83628 0.279348 8
      vertex 2.83628 0.279348 6
    endloop
  endfacet
  facet normal -0.998796 -0.0490552 0
    outer loop
      vertex 2.83628 0.279348 8
      vertex 2.85 0 6
      vertex 2.85 0 8
    endloop
  endfacet
  facet normal -0.97003 -0.242987 0
    outer loop
      vertex 2.79524 0.556007 6
      vertex 2.72728 0.827311 8
      vertex 2.72728 0.827311 6
    endloop
  endfacet
  facet normal -0.97003 -0.242987 0
    outer loop
      vertex 2.72728 0.827311 8
      vertex 2.79524 0.556007 6
      vertex 2.79524 0.556007 8
    endloop
  endfacet
  facet normal 0.803211 0.595695 0
    outer loop
      vertex -2.20308 -1.80802 8
      vertex -2.36969 -1.58337 6
      vertex -2.36969 -1.58337 8
    endloop
  endfacet
  facet normal 0.803211 0.595695 0
    outer loop
      vertex -2.36969 -1.58337 6
      vertex -2.20308 -1.80802 8
      vertex -2.20308 -1.80802 6
    endloop
  endfacet
  facet normal 0.146736 -0.989176 0
    outer loop
      vertex -0.556007 2.79524 6
      vertex -0.279348 2.83628 8
      vertex -0.556007 2.79524 8
    endloop
  endfacet
  facet normal 0.146736 -0.989176 0
    outer loop
      vertex -0.279348 2.83628 8
      vertex -0.556007 2.79524 6
      vertex -0.279348 2.83628 6
    endloop
  endfacet
  facet normal 0.595695 0.803211 -0
    outer loop
      vertex -1.58337 -2.36969 6
      vertex -1.80802 -2.20308 8
      vertex -1.58337 -2.36969 8
    endloop
  endfacet
  facet normal 0.595695 0.803211 0
    outer loop
      vertex -1.80802 -2.20308 8
      vertex -1.58337 -2.36969 6
      vertex -1.80802 -2.20308 6
    endloop
  endfacet
  facet normal 0.989176 0.146736 0
    outer loop
      vertex -2.79524 -0.556007 8
      vertex -2.83628 -0.279348 6
      vertex -2.83628 -0.279348 8
    endloop
  endfacet
  facet normal 0.989176 0.146736 0
    outer loop
      vertex -2.83628 -0.279348 6
      vertex -2.79524 -0.556007 8
      vertex -2.79524 -0.556007 6
    endloop
  endfacet
  facet normal -0.336877 -0.941549 0
    outer loop
      vertex 0.827311 2.72728 6
      vertex 1.09065 2.63306 8
      vertex 0.827311 2.72728 8
    endloop
  endfacet
  facet normal -0.336877 -0.941549 -0
    outer loop
      vertex 1.09065 2.63306 8
      vertex 0.827311 2.72728 6
      vertex 1.09065 2.63306 6
    endloop
  endfacet
  facet normal -0.146736 -0.989176 0
    outer loop
      vertex 0.279348 2.83628 6
      vertex 0.556007 2.79524 8
      vertex 0.279348 2.83628 8
    endloop
  endfacet
  facet normal -0.146736 -0.989176 -0
    outer loop
      vertex 0.556007 2.79524 8
      vertex 0.279348 2.83628 6
      vertex 0.556007 2.79524 6
    endloop
  endfacet
  facet normal 0.336877 0.941549 -0
    outer loop
      vertex -0.827311 -2.72728 6
      vertex -1.09065 -2.63306 8
      vertex -0.827311 -2.72728 8
    endloop
  endfacet
  facet normal 0.336877 0.941549 0
    outer loop
      vertex -1.09065 -2.63306 8
      vertex -0.827311 -2.72728 6
      vertex -1.09065 -2.63306 6
    endloop
  endfacet
  facet normal -0.941549 -0.336877 0
    outer loop
      vertex 2.72728 0.827311 6
      vertex 2.63306 1.09065 8
      vertex 2.63306 1.09065 6
    endloop
  endfacet
  facet normal -0.941549 -0.336877 0
    outer loop
      vertex 2.63306 1.09065 8
      vertex 2.72728 0.827311 6
      vertex 2.72728 0.827311 8
    endloop
  endfacet
  facet normal -0.998796 0.0490552 0
    outer loop
      vertex 2.83628 -0.279348 6
      vertex 2.85 0 8
      vertex 2.85 0 6
    endloop
  endfacet
  facet normal -0.998796 0.0490552 0
    outer loop
      vertex 2.85 0 8
      vertex 2.83628 -0.279348 6
      vertex 2.83628 -0.279348 8
    endloop
  endfacet
  facet normal -0.514117 -0.85772 0
    outer loop
      vertex 1.34348 2.51348 6
      vertex 1.58337 2.36969 8
      vertex 1.34348 2.51348 8
    endloop
  endfacet
  facet normal -0.514117 -0.85772 -0
    outer loop
      vertex 1.58337 2.36969 8
      vertex 1.34348 2.51348 6
      vertex 1.58337 2.36969 6
    endloop
  endfacet
  facet normal -0.740937 -0.671574 0
    outer loop
      vertex 2.20308 1.80802 6
      vertex 2.01525 2.01525 8
      vertex 2.01525 2.01525 6
    endloop
  endfacet
  facet normal -0.740937 -0.671574 0
    outer loop
      vertex 2.01525 2.01525 8
      vertex 2.20308 1.80802 6
      vertex 2.20308 1.80802 8
    endloop
  endfacet
  facet normal -0.989176 0.146736 0
    outer loop
      vertex 2.79524 -0.556007 6
      vertex 2.83628 -0.279348 8
      vertex 2.83628 -0.279348 6
    endloop
  endfacet
  facet normal -0.989176 0.146736 0
    outer loop
      vertex 2.83628 -0.279348 8
      vertex 2.79524 -0.556007 6
      vertex 2.79524 -0.556007 8
    endloop
  endfacet
  facet normal 0.242987 -0.97003 0
    outer loop
      vertex -0.827311 2.72728 6
      vertex -0.556007 2.79524 8
      vertex -0.827311 2.72728 8
    endloop
  endfacet
  facet normal 0.242987 -0.97003 0
    outer loop
      vertex -0.556007 2.79524 8
      vertex -0.827311 2.72728 6
      vertex -0.556007 2.79524 6
    endloop
  endfacet
  facet normal -0.803211 -0.595695 0
    outer loop
      vertex 2.36969 1.58337 6
      vertex 2.20308 1.80802 8
      vertex 2.20308 1.80802 6
    endloop
  endfacet
  facet normal -0.803211 -0.595695 0
    outer loop
      vertex 2.20308 1.80802 8
      vertex 2.36969 1.58337 6
      vertex 2.36969 1.58337 8
    endloop
  endfacet
  facet normal 0.97003 -0.242987 0
    outer loop
      vertex -2.79524 0.556007 8
      vertex -2.72728 0.827311 6
      vertex -2.72728 0.827311 8
    endloop
  endfacet
  facet normal 0.97003 -0.242987 0
    outer loop
      vertex -2.72728 0.827311 6
      vertex -2.79524 0.556007 8
      vertex -2.79524 0.556007 6
    endloop
  endfacet
  facet normal -0.903989 0.427556 0
    outer loop
      vertex 2.51348 -1.34348 6
      vertex 2.63306 -1.09065 8
      vertex 2.63306 -1.09065 6
    endloop
  endfacet
  facet normal -0.903989 0.427556 0
    outer loop
      vertex 2.63306 -1.09065 8
      vertex 2.51348 -1.34348 6
      vertex 2.51348 -1.34348 8
    endloop
  endfacet
  facet normal -0.0490552 0.998796 0
    outer loop
      vertex 0.279348 -2.83628 6
      vertex 0 -2.85 8
      vertex 0.279348 -2.83628 8
    endloop
  endfacet
  facet normal -0.0490552 0.998796 0
    outer loop
      vertex 0 -2.85 8
      vertex 0.279348 -2.83628 6
      vertex 0 -2.85 6
    endloop
  endfacet
  facet normal -0.0490552 -0.998796 0
    outer loop
      vertex 0 2.85 6
      vertex 0.279348 2.83628 8
      vertex 0 2.85 8
    endloop
  endfacet
  facet normal -0.0490552 -0.998796 -0
    outer loop
      vertex 0.279348 2.83628 8
      vertex 0 2.85 6
      vertex 0.279348 2.83628 6
    endloop
  endfacet
  facet normal -0.97003 0.242987 0
    outer loop
      vertex 2.72728 -0.827311 6
      vertex 2.79524 -0.556007 8
      vertex 2.79524 -0.556007 6
    endloop
  endfacet
  facet normal -0.97003 0.242987 0
    outer loop
      vertex 2.79524 -0.556007 8
      vertex 2.72728 -0.827311 6
      vertex 2.72728 -0.827311 8
    endloop
  endfacet
  facet normal -0.85772 0.514117 0
    outer loop
      vertex 2.36969 -1.58337 6
      vertex 2.51348 -1.34348 8
      vertex 2.51348 -1.34348 6
    endloop
  endfacet
  facet normal -0.85772 0.514117 0
    outer loop
      vertex 2.51348 -1.34348 8
      vertex 2.36969 -1.58337 6
      vertex 2.36969 -1.58337 8
    endloop
  endfacet
  facet normal 0.0490552 -0.998796 0
    outer loop
      vertex -0.279348 2.83628 6
      vertex 0 2.85 8
      vertex -0.279348 2.83628 8
    endloop
  endfacet
  facet normal 0.0490552 -0.998796 0
    outer loop
      vertex 0 2.85 8
      vertex -0.279348 2.83628 6
      vertex 0 2.85 6
    endloop
  endfacet
  facet normal 0.595695 -0.803211 0
    outer loop
      vertex -1.80802 2.20308 6
      vertex -1.58337 2.36969 8
      vertex -1.80802 2.20308 8
    endloop
  endfacet
  facet normal 0.595695 -0.803211 0
    outer loop
      vertex -1.58337 2.36969 8
      vertex -1.80802 2.20308 6
      vertex -1.58337 2.36969 6
    endloop
  endfacet
  facet normal -0.941549 0.336877 0
    outer loop
      vertex 2.63306 -1.09065 6
      vertex 2.72728 -0.827311 8
      vertex 2.72728 -0.827311 6
    endloop
  endfacet
  facet normal -0.941549 0.336877 0
    outer loop
      vertex 2.72728 -0.827311 8
      vertex 2.63306 -1.09065 6
      vertex 2.63306 -1.09065 8
    endloop
  endfacet
  facet normal -0.427556 -0.903989 0
    outer loop
      vertex 1.09065 2.63306 6
      vertex 1.34348 2.51348 8
      vertex 1.09065 2.63306 8
    endloop
  endfacet
  facet normal -0.427556 -0.903989 -0
    outer loop
      vertex 1.34348 2.51348 8
      vertex 1.09065 2.63306 6
      vertex 1.34348 2.51348 6
    endloop
  endfacet
  facet normal -0.740937 0.671574 0
    outer loop
      vertex 2.01525 -2.01525 6
      vertex 2.20308 -1.80802 8
      vertex 2.20308 -1.80802 6
    endloop
  endfacet
  facet normal -0.740937 0.671574 0
    outer loop
      vertex 2.20308 -1.80802 8
      vertex 2.01525 -2.01525 6
      vertex 2.01525 -2.01525 8
    endloop
  endfacet
  facet normal 0.97003 0.242987 0
    outer loop
      vertex -2.72728 -0.827311 8
      vertex -2.79524 -0.556007 6
      vertex -2.79524 -0.556007 8
    endloop
  endfacet
  facet normal 0.97003 0.242987 0
    outer loop
      vertex -2.79524 -0.556007 6
      vertex -2.72728 -0.827311 8
      vertex -2.72728 -0.827311 6
    endloop
  endfacet
  facet normal -0.427556 0.903989 0
    outer loop
      vertex 1.34348 -2.51348 6
      vertex 1.09065 -2.63306 8
      vertex 1.34348 -2.51348 8
    endloop
  endfacet
  facet normal -0.427556 0.903989 0
    outer loop
      vertex 1.09065 -2.63306 8
      vertex 1.34348 -2.51348 6
      vertex 1.09065 -2.63306 6
    endloop
  endfacet
  facet normal -0.242987 -0.97003 0
    outer loop
      vertex 0.556007 2.79524 6
      vertex 0.827311 2.72728 8
      vertex 0.556007 2.79524 8
    endloop
  endfacet
  facet normal -0.242987 -0.97003 -0
    outer loop
      vertex 0.827311 2.72728 8
      vertex 0.556007 2.79524 6
      vertex 0.827311 2.72728 6
    endloop
  endfacet
  facet normal 0.998796 0.0490552 0
    outer loop
      vertex -2.83628 -0.279348 8
      vertex -2.85 0 6
      vertex -2.85 0 8
    endloop
  endfacet
  facet normal 0.998796 0.0490552 0
    outer loop
      vertex -2.85 0 6
      vertex -2.83628 -0.279348 8
      vertex -2.83628 -0.279348 6
    endloop
  endfacet
  facet normal 0.427556 -0.903989 0
    outer loop
      vertex -1.34348 2.51348 6
      vertex -1.09065 2.63306 8
      vertex -1.34348 2.51348 8
    endloop
  endfacet
  facet normal 0.427556 -0.903989 0
    outer loop
      vertex -1.09065 2.63306 8
      vertex -1.34348 2.51348 6
      vertex -1.09065 2.63306 6
    endloop
  endfacet
  facet normal 0.740937 -0.671574 0
    outer loop
      vertex -2.20308 1.80802 8
      vertex -2.01525 2.01525 6
      vertex -2.01525 2.01525 8
    endloop
  endfacet
  facet normal 0.740937 -0.671574 0
    outer loop
      vertex -2.01525 2.01525 6
      vertex -2.20308 1.80802 8
      vertex -2.20308 1.80802 6
    endloop
  endfacet
  facet normal -0.671574 -0.740937 0
    outer loop
      vertex 1.80802 2.20308 6
      vertex 2.01525 2.01525 8
      vertex 1.80802 2.20308 8
    endloop
  endfacet
  facet normal -0.671574 -0.740937 -0
    outer loop
      vertex 2.01525 2.01525 8
      vertex 1.80802 2.20308 6
      vertex 2.01525 2.01525 6
    endloop
  endfacet
  facet normal -0.803211 0.595695 0
    outer loop
      vertex 2.20308 -1.80802 6
      vertex 2.36969 -1.58337 8
      vertex 2.36969 -1.58337 6
    endloop
  endfacet
  facet normal -0.803211 0.595695 0
    outer loop
      vertex 2.36969 -1.58337 8
      vertex 2.20308 -1.80802 6
      vertex 2.20308 -1.80802 8
    endloop
  endfacet
  facet normal -0.903989 -0.427556 0
    outer loop
      vertex 2.63306 1.09065 6
      vertex 2.51348 1.34348 8
      vertex 2.51348 1.34348 6
    endloop
  endfacet
  facet normal -0.903989 -0.427556 0
    outer loop
      vertex 2.51348 1.34348 8
      vertex 2.63306 1.09065 6
      vertex 2.63306 1.09065 8
    endloop
  endfacet
  facet normal -0.146736 0.989176 0
    outer loop
      vertex 0.556007 -2.79524 6
      vertex 0.279348 -2.83628 8
      vertex 0.556007 -2.79524 8
    endloop
  endfacet
  facet normal -0.146736 0.989176 0
    outer loop
      vertex 0.279348 -2.83628 8
      vertex 0.556007 -2.79524 6
      vertex 0.279348 -2.83628 6
    endloop
  endfacet
  facet normal -0.595695 -0.803211 0
    outer loop
      vertex 1.58337 2.36969 6
      vertex 1.80802 2.20308 8
      vertex 1.58337 2.36969 8
    endloop
  endfacet
  facet normal -0.595695 -0.803211 -0
    outer loop
      vertex 1.80802 2.20308 8
      vertex 1.58337 2.36969 6
      vertex 1.80802 2.20308 6
    endloop
  endfacet
  facet normal 0.998796 -0.0490552 0
    outer loop
      vertex -2.85 0 8
      vertex -2.83628 0.279348 6
      vertex -2.83628 0.279348 8
    endloop
  endfacet
  facet normal 0.998796 -0.0490552 0
    outer loop
      vertex -2.83628 0.279348 6
      vertex -2.85 0 8
      vertex -2.85 0 6
    endloop
  endfacet
  facet normal 0.336877 -0.941549 0
    outer loop
      vertex -1.09065 2.63306 6
      vertex -0.827311 2.72728 8
      vertex -1.09065 2.63306 8
    endloop
  endfacet
  facet normal 0.336877 -0.941549 0
    outer loop
      vertex -0.827311 2.72728 8
      vertex -1.09065 2.63306 6
      vertex -0.827311 2.72728 6
    endloop
  endfacet
  facet normal -0.85772 -0.514117 0
    outer loop
      vertex 2.51348 1.34348 6
      vertex 2.36969 1.58337 8
      vertex 2.36969 1.58337 6
    endloop
  endfacet
  facet normal -0.85772 -0.514117 0
    outer loop
      vertex 2.36969 1.58337 8
      vertex 2.51348 1.34348 6
      vertex 2.51348 1.34348 8
    endloop
  endfacet
  facet normal 0.514117 -0.85772 0
    outer loop
      vertex -1.58337 2.36969 6
      vertex -1.34348 2.51348 8
      vertex -1.58337 2.36969 8
    endloop
  endfacet
  facet normal 0.514117 -0.85772 0
    outer loop
      vertex -1.34348 2.51348 8
      vertex -1.58337 2.36969 6
      vertex -1.34348 2.51348 6
    endloop
  endfacet
  facet normal 0.85772 -0.514117 0
    outer loop
      vertex -2.51348 1.34348 8
      vertex -2.36969 1.58337 6
      vertex -2.36969 1.58337 8
    endloop
  endfacet
  facet normal 0.85772 -0.514117 0
    outer loop
      vertex -2.36969 1.58337 6
      vertex -2.51348 1.34348 8
      vertex -2.51348 1.34348 6
    endloop
  endfacet
  facet normal 0.514117 0.85772 -0
    outer loop
      vertex -1.34348 -2.51348 6
      vertex -1.58337 -2.36969 8
      vertex -1.34348 -2.51348 8
    endloop
  endfacet
  facet normal 0.514117 0.85772 0
    outer loop
      vertex -1.58337 -2.36969 8
      vertex -1.34348 -2.51348 6
      vertex -1.58337 -2.36969 6
    endloop
  endfacet
  facet normal -0.514117 0.85772 0
    outer loop
      vertex 1.58337 -2.36969 6
      vertex 1.34348 -2.51348 8
      vertex 1.58337 -2.36969 8
    endloop
  endfacet
  facet normal -0.514117 0.85772 0
    outer loop
      vertex 1.34348 -2.51348 8
      vertex 1.58337 -2.36969 6
      vertex 1.34348 -2.51348 6
    endloop
  endfacet
  facet normal -0.336877 0.941549 0
    outer loop
      vertex 1.09065 -2.63306 6
      vertex 0.827311 -2.72728 8
      vertex 1.09065 -2.63306 8
    endloop
  endfacet
  facet normal -0.336877 0.941549 0
    outer loop
      vertex 0.827311 -2.72728 8
      vertex 1.09065 -2.63306 6
      vertex 0.827311 -2.72728 6
    endloop
  endfacet
  facet normal 0.903989 0.427556 0
    outer loop
      vertex -2.51348 -1.34348 8
      vertex -2.63306 -1.09065 6
      vertex -2.63306 -1.09065 8
    endloop
  endfacet
  facet normal 0.903989 0.427556 0
    outer loop
      vertex -2.63306 -1.09065 6
      vertex -2.51348 -1.34348 8
      vertex -2.51348 -1.34348 6
    endloop
  endfacet
  facet normal 0.0490552 0.998796 -0
    outer loop
      vertex 0 -2.85 6
      vertex -0.279348 -2.83628 8
      vertex 0 -2.85 8
    endloop
  endfacet
  facet normal 0.0490552 0.998796 0
    outer loop
      vertex -0.279348 -2.83628 8
      vertex 0 -2.85 6
      vertex -0.279348 -2.83628 6
    endloop
  endfacet
  facet normal -0.242987 0.97003 0
    outer loop
      vertex 0.827311 -2.72728 6
      vertex 0.556007 -2.79524 8
      vertex 0.827311 -2.72728 8
    endloop
  endfacet
  facet normal -0.242987 0.97003 0
    outer loop
      vertex 0.556007 -2.79524 8
      vertex 0.827311 -2.72728 6
      vertex 0.556007 -2.79524 6
    endloop
  endfacet
  facet normal 0.427556 0.903989 -0
    outer loop
      vertex -1.09065 -2.63306 6
      vertex -1.34348 -2.51348 8
      vertex -1.09065 -2.63306 8
    endloop
  endfacet
  facet normal 0.427556 0.903989 0
    outer loop
      vertex -1.34348 -2.51348 8
      vertex -1.09065 -2.63306 6
      vertex -1.34348 -2.51348 6
    endloop
  endfacet
  facet normal 0.803211 -0.595695 0
    outer loop
      vertex -2.36969 1.58337 8
      vertex -2.20308 1.80802 6
      vertex -2.20308 1.80802 8
    endloop
  endfacet
  facet normal 0.803211 -0.595695 0
    outer loop
      vertex -2.20308 1.80802 6
      vertex -2.36969 1.58337 8
      vertex -2.36969 1.58337 6
    endloop
  endfacet
  facet normal 0.671574 -0.740937 0
    outer loop
      vertex -2.01525 2.01525 6
      vertex -1.80802 2.20308 8
      vertex -2.01525 2.01525 8
    endloop
  endfacet
  facet normal 0.671574 -0.740937 0
    outer loop
      vertex -1.80802 2.20308 8
      vertex -2.01525 2.01525 6
      vertex -1.80802 2.20308 6
    endloop
  endfacet
  facet normal 0.941549 -0.336877 0
    outer loop
      vertex -2.72728 0.827311 8
      vertex -2.63306 1.09065 6
      vertex -2.63306 1.09065 8
    endloop
  endfacet
  facet normal 0.941549 -0.336877 0
    outer loop
      vertex -2.63306 1.09065 6
      vertex -2.72728 0.827311 8
      vertex -2.72728 0.827311 6
    endloop
  endfacet
  facet normal 0.941549 0.336877 0
    outer loop
      vertex -2.63306 -1.09065 8
      vertex -2.72728 -0.827311 6
      vertex -2.72728 -0.827311 8
    endloop
  endfacet
  facet normal 0.941549 0.336877 0
    outer loop
      vertex -2.72728 -0.827311 6
      vertex -2.63306 -1.09065 8
      vertex -2.63306 -1.09065 6
    endloop
  endfacet
  facet normal 0.740937 0.671574 0
    outer loop
      vertex -2.01525 -2.01525 8
      vertex -2.20308 -1.80802 6
      vertex -2.20308 -1.80802 8
    endloop
  endfacet
  facet normal 0.740937 0.671574 0
    outer loop
      vertex -2.20308 -1.80802 6
      vertex -2.01525 -2.01525 8
      vertex -2.01525 -2.01525 6
    endloop
  endfacet
  facet normal 0.85772 0.514117 0
    outer loop
      vertex -2.36969 -1.58337 8
      vertex -2.51348 -1.34348 6
      vertex -2.51348 -1.34348 8
    endloop
  endfacet
  facet normal 0.85772 0.514117 0
    outer loop
      vertex -2.51348 -1.34348 6
      vertex -2.36969 -1.58337 8
      vertex -2.36969 -1.58337 6
    endloop
  endfacet
  facet normal -0.595695 0.803211 0
    outer loop
      vertex 1.80802 -2.20308 6
      vertex 1.58337 -2.36969 8
      vertex 1.80802 -2.20308 8
    endloop
  endfacet
  facet normal -0.595695 0.803211 0
    outer loop
      vertex 1.58337 -2.36969 8
      vertex 1.80802 -2.20308 6
      vertex 1.58337 -2.36969 6
    endloop
  endfacet
  facet normal 0.671574 0.740937 -0
    outer loop
      vertex -1.80802 -2.20308 6
      vertex -2.01525 -2.01525 8
      vertex -1.80802 -2.20308 8
    endloop
  endfacet
  facet normal 0.671574 0.740937 0
    outer loop
      vertex -2.01525 -2.01525 8
      vertex -1.80802 -2.20308 6
      vertex -2.01525 -2.01525 6
    endloop
  endfacet
  facet normal 0.903989 -0.427556 0
    outer loop
      vertex -2.63306 1.09065 8
      vertex -2.51348 1.34348 6
      vertex -2.51348 1.34348 8
    endloop
  endfacet
  facet normal 0.903989 -0.427556 0
    outer loop
      vertex -2.51348 1.34348 6
      vertex -2.63306 1.09065 8
      vertex -2.63306 1.09065 6
    endloop
  endfacet
  facet normal -0.671574 0.740937 0
    outer loop
      vertex 2.01525 -2.01525 6
      vertex 1.80802 -2.20308 8
      vertex 2.01525 -2.01525 8
    endloop
  endfacet
  facet normal -0.671574 0.740937 0
    outer loop
      vertex 1.80802 -2.20308 8
      vertex 2.01525 -2.01525 6
      vertex 1.80802 -2.20308 6
    endloop
  endfacet
  facet normal 0.989176 -0.146736 0
    outer loop
      vertex -2.83628 0.279348 8
      vertex -2.79524 0.556007 6
      vertex -2.79524 0.556007 8
    endloop
  endfacet
  facet normal 0.989176 -0.146736 0
    outer loop
      vertex -2.79524 0.556007 6
      vertex -2.83628 0.279348 8
      vertex -2.83628 0.279348 6
    endloop
  endfacet
  facet normal 0.242987 0.97003 -0
    outer loop
      vertex -0.556007 -2.79524 6
      vertex -0.827311 -2.72728 8
      vertex -0.556007 -2.79524 8
    endloop
  endfacet
  facet normal 0.242987 0.97003 0
    outer loop
      vertex -0.827311 -2.72728 8
      vertex -0.556007 -2.79524 6
      vertex -0.827311 -2.72728 6
    endloop
  endfacet
  facet normal 0.146736 0.989176 -0
    outer loop
      vertex -0.279348 -2.83628 6
      vertex -0.556007 -2.79524 8
      vertex -0.279348 -2.83628 8
    endloop
  endfacet
  facet normal 0.146736 0.989176 0
    outer loop
      vertex -0.556007 -2.79524 8
      vertex -0.279348 -2.83628 6
      vertex -0.556007 -2.79524 6
    endloop
  endfacet
  facet normal 0 0 1
    outer loop
      vertex 2.83628 0.279348 6
      vertex 2.83628 -0.279348 6
      vertex 2.85 0 6
    endloop
  endfacet
  facet normal 0 0 1
    outer loop
      vertex 2.79524 0.556007 6
      vertex 2.83628 -0.279348 6
      vertex 2.83628 0.279348 6
    endloop
  endfacet
  facet normal 0 0 1
    outer loop
      vertex 2.79524 0.556007 6
      vertex 2.79524 -0.556007 6
      vertex 2.83628 -0.279348 6
    endloop
  endfacet
  facet normal 0 0 1
    outer loop
      vertex 2.72728 0.827311 6
      vertex 2.79524 -0.556007 6
      vertex 2.79524 0.556007 6
    endloop
  endfacet
  facet normal 0 0 1
    outer loop
      vertex 2.72728 0.827311 6
      vertex 2.72728 -0.827311 6
      vertex 2.79524 -0.556007 6
    endloop
  endfacet
  facet normal 0 0 1
    outer loop
      vertex 2.63306 1.09065 6
      vertex 2.72728 -0.827311 6
      vertex 2.72728 0.827311 6
    endloop
  endfacet
  facet normal 0 0 1
    outer loop
      vertex 2.63306 1.09065 6
      vertex 2.63306 -1.09065 6
      vertex 2.72728 -0.827311 6
    endloop
  endfacet
  facet normal 0 0 1
    outer loop
      vertex 2.51348 1.34348 6
      vertex 2.63306 -1.09065 6
      vertex 2.63306 1.09065 6
    endloop
  endfacet
  facet normal 0 0 1
    outer loop
      vertex 2.51348 1.34348 6
      vertex 2.51348 -1.34348 6
      vertex 2.63306 -1.09065 6
    endloop
  endfacet
  facet normal 0 0 1
    outer loop
      vertex 2.36969 1.58337 6
      vertex 2.51348 -1.34348 6
      vertex 2.51348 1.34348 6
    endloop
  endfacet
  facet normal 0 0 1
    outer loop
      vertex 2.36969 1.58337 6
      vertex 2.36969 -1.58337 6
      vertex 2.51348 -1.34348 6
    endloop
  endfacet
  facet normal 0 0 1
    outer loop
      vertex 2.20308 1.80802 6
      vertex 2.36969 -1.58337 6
      vertex 2.36969 1.58337 6
    endloop
  endfacet
  facet normal 0 0 1
    outer loop
      vertex 2.20308 1.80802 6
      vertex 2.20308 -1.80802 6
      vertex 2.36969 -1.58337 6
    endloop
  endfacet
  facet normal 0 0 1
    outer loop
      vertex 2.01525 2.01525 6
      vertex 2.20308 -1.80802 6
      vertex 2.20308 1.80802 6
    endloop
  endfacet
  facet normal 0 0 1
    outer loop
      vertex 2.01525 2.01525 6
      vertex 2.01525 -2.01525 6
      vertex 2.20308 -1.80802 6
    endloop
  endfacet
  facet normal 0 0 1
    outer loop
      vertex 1.80802 2.20308 6
      vertex 2.01525 -2.01525 6
      vertex 2.01525 2.01525 6
    endloop
  endfacet
  facet normal 0 0 1
    outer loop
      vertex 1.80802 2.20308 6
      vertex 1.80802 -2.20308 6
      vertex 2.01525 -2.01525 6
    endloop
  endfacet
  facet normal 0 0 1
    outer loop
      vertex 1.58337 2.36969 6
      vertex 1.80802 -2.20308 6
      vertex 1.80802 2.20308 6
    endloop
  endfacet
  facet normal 0 0 1
    outer loop
      vertex 1.58337 2.36969 6
      vertex 1.58337 -2.36969 6
      vertex 1.80802 -2.20308 6
    endloop
  endfacet
  facet normal 0 0 1
    outer loop
      vertex 1.34348 2.51348 6
      vertex 1.58337 -2.36969 6
      vertex 1.58337 2.36969 6
    endloop
  endfacet
  facet normal 0 0 1
    outer loop
      vertex 1.34348 2.51348 6
      vertex 1.34348 -2.51348 6
      vertex 1.58337 -2.36969 6
    endloop
  endfacet
  facet normal 0 0 1
    outer loop
      vertex 1.09065 2.63306 6
      vertex 1.34348 -2.51348 6
      vertex 1.34348 2.51348 6
    endloop
  endfacet
  facet normal 0 0 1
    outer loop
      vertex 1.09065 2.63306 6
      vertex 1.09065 -2.63306 6
      vertex 1.34348 -2.51348 6
    endloop
  endfacet
  facet normal 0 0 1
    outer loop
      vertex 0.827311 2.72728 6
      vertex 1.09065 -2.63306 6
      vertex 1.09065 2.63306 6
    endloop
  endfacet
  facet normal 0 0 1
    outer loop
      vertex 0.827311 2.72728 6
      vertex 0.827311 -2.72728 6
      vertex 1.09065 -2.63306 6
    endloop
  endfacet
  facet normal 0 0 1
    outer loop
      vertex 0.556007 2.79524 6
      vertex 0.827311 -2.72728 6
      vertex 0.827311 2.72728 6
    endloop
  endfacet
  facet normal 0 0 1
    outer loop
      vertex 0.556007 2.79524 6
      vertex 0.556007 -2.79524 6
      vertex 0.827311 -2.72728 6
    endloop
  endfacet
  facet normal 0 0 1
    outer loop
      vertex 0.279348 2.83628 6
      vertex 0.556007 -2.79524 6
      vertex 0.556007 2.79524 6
    endloop
  endfacet
  facet normal 0 0 1
    outer loop
      vertex 0.279348 2.83628 6
      vertex 0.279348 -2.83628 6
      vertex 0.556007 -2.79524 6
    endloop
  endfacet
  facet normal 0 0 1
    outer loop
      vertex 0 2.85 6
      vertex 0.279348 -2.83628 6
      vertex 0.279348 2.83628 6
    endloop
  endfacet
  facet normal 0 0 1
    outer loop
      vertex 0 2.85 6
      vertex 0 -2.85 6
      vertex 0.279348 -2.83628 6
    endloop
  endfacet
  facet normal -0 0 1
    outer loop
      vertex -0.279348 2.83628 6
      vertex 0 -2.85 6
      vertex 0 2.85 6
    endloop
  endfacet
  facet normal 0 0 1
    outer loop
      vertex -0.279348 2.83628 6
      vertex -0.279348 -2.83628 6
      vertex 0 -2.85 6
    endloop
  endfacet
  facet normal -0 0 1
    outer loop
      vertex -0.556007 2.79524 6
      vertex -0.279348 -2.83628 6
      vertex -0.279348 2.83628 6
    endloop
  endfacet
  facet normal 0 0 1
    outer loop
      vertex -0.556007 2.79524 6
      vertex -0.556007 -2.79524 6
      vertex -0.279348 -2.83628 6
    endloop
  endfacet
  facet normal -0 0 1
    outer loop
      vertex -0.827311 2.72728 6
      vertex -0.556007 -2.79524 6
      vertex -0.556007 2.79524 6
    endloop
  endfacet
  facet normal 0 0 1
    outer loop
      vertex -0.827311 2.72728 6
      vertex -0.827311 -2.72728 6
      vertex -0.556007 -2.79524 6
    endloop
  endfacet
  facet normal -0 0 1
    outer loop
      vertex -1.09065 2.63306 6
      vertex -0.827311 -2.72728 6
      vertex -0.827311 2.72728 6
    endloop
  endfacet
  facet normal 0 0 1
    outer loop
      vertex -1.09065 2.63306 6
      vertex -1.09065 -2.63306 6
      vertex -0.827311 -2.72728 6
    endloop
  endfacet
  facet normal -0 0 1
    outer loop
      vertex -1.34348 2.51348 6
      vertex -1.09065 -2.63306 6
      vertex -1.09065 2.63306 6
    endloop
  endfacet
  facet normal 0 0 1
    outer loop
      vertex -1.34348 2.51348 6
      vertex -1.34348 -2.51348 6
      vertex -1.09065 -2.63306 6
    endloop
  endfacet
  facet normal -0 0 1
    outer loop
      vertex -1.58337 2.36969 6
      vertex -1.34348 -2.51348 6
      vertex -1.34348 2.51348 6
    endloop
  endfacet
  facet normal 0 0 1
    outer loop
      vertex -1.58337 2.36969 6
      vertex -1.58337 -2.36969 6
      vertex -1.34348 -2.51348 6
    endloop
  endfacet
  facet normal -0 0 1
    outer loop
      vertex -1.80802 2.20308 6
      vertex -1.58337 -2.36969 6
      vertex -1.58337 2.36969 6
    endloop
  endfacet
  facet normal 0 0 1
    outer loop
      vertex -1.80802 2.20308 6
      vertex -1.80802 -2.20308 6
      vertex -1.58337 -2.36969 6
    endloop
  endfacet
  facet normal -0 0 1
    outer loop
      vertex -2.01525 2.01525 6
      vertex -1.80802 -2.20308 6
      vertex -1.80802 2.20308 6
    endloop
  endfacet
  facet normal 0 0 1
    outer loop
      vertex -2.01525 2.01525 6
      vertex -2.01525 -2.01525 6
      vertex -1.80802 -2.20308 6
    endloop
  endfacet
  facet normal -0 0 1
    outer loop
      vertex -2.20308 1.80802 6
      vertex -2.01525 -2.01525 6
      vertex -2.01525 2.01525 6
    endloop
  endfacet
  facet normal 0 0 1
    outer loop
      vertex -2.20308 1.80802 6
      vertex -2.20308 -1.80802 6
      vertex -2.01525 -2.01525 6
    endloop
  endfacet
  facet normal -0 0 1
    outer loop
      vertex -2.36969 1.58337 6
      vertex -2.20308 -1.80802 6
      vertex -2.20308 1.80802 6
    endloop
  endfacet
  facet normal 0 0 1
    outer loop
      vertex -2.36969 1.58337 6
      vertex -2.36969 -1.58337 6
      vertex -2.20308 -1.80802 6
    endloop
  endfacet
  facet normal -0 0 1
    outer loop
      vertex -2.51348 1.34348 6
      vertex -2.36969 -1.58337 6
      vertex -2.36969 1.58337 6
    endloop
  endfacet
  facet normal 0 0 1
    outer loop
      vertex -2.51348 1.34348 6
      vertex -2.51348 -1.34348 6
      vertex -2.36969 -1.58337 6
    endloop
  endfacet
  facet normal -0 0 1
    outer loop
      vertex -2.63306 1.09065 6
      vertex -2.51348 -1.34348 6
      vertex -2.51348 1.34348 6
    endloop
  endfacet
  facet normal 0 0 1
    outer loop
      vertex -2.63306 1.09065 6
      vertex -2.63306 -1.09065 6
      vertex -2.51348 -1.34348 6
    endloop
  endfacet
  facet normal -0 0 1
    outer loop
      vertex -2.72728 0.827311 6
      vertex -2.63306 -1.09065 6
      vertex -2.63306 1.09065 6
    endloop
  endfacet
  facet normal 0 0 1
    outer loop
      vertex -2.72728 0.827311 6
      vertex -2.72728 -0.827311 6
      vertex -2.63306 -1.09065 6
    endloop
  endfacet
  facet normal -0 0 1
    outer loop
      vertex -2.79524 0.556007 6
      vertex -2.72728 -0.827311 6
      vertex -2.72728 0.827311 6
    endloop
  endfacet
  facet normal 0 0 1
    outer loop
      vertex -2.79524 0.556007 6
      vertex -2.79524 -0.556007 6
      vertex -2.72728 -0.827311 6
    endloop
  endfacet
  facet normal -0 0 1
    outer loop
      vertex -2.83628 0.279348 6
      vertex -2.79524 -0.556007 6
      vertex -2.79524 0.556007 6
    endloop
  endfacet
  facet normal 0 0 1
    outer loop
      vertex -2.83628 0.279348 6
      vertex -2.83628 -0.279348 6
      vertex -2.79524 -0.556007 6
    endloop
  endfacet
  facet normal 0 -0 1
    outer loop
      vertex -2.83628 -0.279348 6
      vertex -2.83628 0.279348 6
      vertex -2.85 0 6
    endloop
  endfacet
endsolid OpenSCAD_Model
