solid OpenSCAD_Model
  facet normal 0.998795 0.0490819 0
    outer loop
      vertex 3 0 6
      vertex 2.98555 0.294051 0
      vertex 2.98555 0.294051 6
    endloop
  endfacet
  facet normal 0.998795 0.0490819 0
    outer loop
      vertex 2.98555 0.294051 0
      vertex 3 0 6
      vertex 3 0 0
    endloop
  endfacet
  facet normal 0.989181 0.146703 0
    outer loop
      vertex 2.98555 0.294051 6
      vertex 2.94236 0.585271 0
      vertex 2.94236 0.585271 6
    endloop
  endfacet
  facet normal 0.989181 0.146703 0
    outer loop
      vertex 2.94236 0.585271 0
      vertex 2.98555 0.294051 6
      vertex 2.98555 0.294051 0
    endloop
  endfacet
  facet normal 0.970027 0.242997 0
    outer loop
      vertex 2.94236 0.585271 6
      vertex 2.87082 0.870854 0
      vertex 2.87082 0.870854 6
    endloop
  endfacet
  facet normal 0.970027 0.242997 0
    outer loop
      vertex 2.87082 0.870854 0
      vertex 2.94236 0.585271 6
      vertex 2.94236 0.585271 0
    endloop
  endfacet
  facet normal 0.941547 0.336883 0
    outer loop
      vertex 2.87082 0.870854 6
      vertex 2.77164 1.14805 0
      vertex 2.77164 1.14805 6
    endloop
  endfacet
  facet normal 0.941547 0.336883 0
    outer loop
      vertex 2.77164 1.14805 0
      vertex 2.87082 0.870854 6
      vertex 2.87082 0.870854 0
    endloop
  endfacet
  facet normal 0.903983 0.427569 0
    outer loop
      vertex 2.77164 1.14805 6
      vertex 2.64576 1.41419 0
      vertex 2.64576 1.41419 6
    endloop
  endfacet
  facet normal 0.903983 0.427569 0
    outer loop
      vertex 2.64576 1.41419 0
      vertex 2.77164 1.14805 6
      vertex 2.77164 1.14805 0
    endloop
  endfacet
  facet normal 0.857736 0.514091 0
    outer loop
      vertex 2.64576 1.41419 6
      vertex 2.49441 1.66671 0
      vertex 2.49441 1.66671 6
    endloop
  endfacet
  facet normal 0.857736 0.514091 0
    outer loop
      vertex 2.49441 1.66671 0
      vertex 2.64576 1.41419 6
      vertex 2.64576 1.41419 0
    endloop
  endfacet
  facet normal 0.803204 0.595703 0
    outer loop
      vertex 2.49441 1.66671 6
      vertex 2.31903 1.90318 0
      vertex 2.31903 1.90318 6
    endloop
  endfacet
  facet normal 0.803204 0.595703 0
    outer loop
      vertex 2.31903 1.90318 0
      vertex 2.49441 1.66671 6
      vertex 2.49441 1.66671 0
    endloop
  endfacet
  facet normal 0.740952 0.671558 0
    outer loop
      vertex 2.31903 1.90318 6
      vertex 2.12132 2.12132 0
      vertex 2.12132 2.12132 6
    endloop
  endfacet
  facet normal 0.740952 0.671558 0
    outer loop
      vertex 2.12132 2.12132 0
      vertex 2.31903 1.90318 6
      vertex 2.31903 1.90318 0
    endloop
  endfacet
  facet normal 0.671558 0.740952 -0
    outer loop
      vertex 2.12132 2.12132 0
      vertex 1.90318 2.31903 6
      vertex 2.12132 2.12132 6
    endloop
  endfacet
  facet normal 0.671558 0.740952 0
    outer loop
      vertex 1.90318 2.31903 6
      vertex 2.12132 2.12132 0
      vertex 1.90318 2.31903 0
    endloop
  endfacet
  facet normal 0.595703 0.803204 -0
    outer loop
      vertex 1.90318 2.31903 0
      vertex 1.66671 2.49441 6
      vertex 1.90318 2.31903 6
    endloop
  endfacet
  facet normal 0.595703 0.803204 0
    outer loop
      vertex 1.66671 2.49441 6
      vertex 1.90318 2.31903 0
      vertex 1.66671 2.49441 0
    endloop
  endfacet
  facet normal 0.514091 0.857736 -0
    outer loop
      vertex 1.66671 2.49441 0
      vertex 1.41419 2.64576 6
      vertex 1.66671 2.49441 6
    endloop
  endfacet
  facet normal 0.514091 0.857736 0
    outer loop
      vertex 1.41419 2.64576 6
      vertex 1.66671 2.49441 0
      vertex 1.41419 2.64576 0
    endloop
  endfacet
  facet normal 0.427569 0.903983 -0
    outer loop
      vertex 1.41419 2.64576 0
      vertex 1.14805 2.77164 6
      vertex 1.41419 2.64576 6
    endloop
  endfacet
  facet normal 0.427569 0.903983 0
    outer loop
      vertex 1.14805 2.77164 6
      vertex 1.41419 2.64576 0
      vertex 1.14805 2.77164 0
    endloop
  endfacet
  facet normal 0.336883 0.941547 -0
    outer loop
      vertex 1.14805 2.77164 0
      vertex 0.870854 2.87082 6
      vertex 1.14805 2.77164 6
    endloop
  endfacet
  facet normal 0.336883 0.941547 0
    outer loop
      vertex 0.870854 2.87082 6
      vertex 1.14805 2.77164 0
      vertex 0.870854 2.87082 0
    endloop
  endfacet
  facet normal 0.242997 0.970027 -0
    outer loop
      vertex 0.870854 2.87082 0
      vertex 0.585271 2.94236 6
      vertex 0.870854 2.87082 6
    endloop
  endfacet
  facet normal 0.242997 0.970027 0
    outer loop
      vertex 0.585271 2.94236 6
      vertex 0.870854 2.87082 0
      vertex 0.585271 2.94236 0
    endloop
  endfacet
  facet normal 0.146703 0.989181 -0
    outer loop
      vertex 0.585271 2.94236 0
      vertex 0.294051 2.98555 6
      vertex 0.585271 2.94236 6
    endloop
  endfacet
  facet normal 0.146703 0.989181 0
    outer loop
      vertex 0.294051 2.98555 6
      vertex 0.585271 2.94236 0
      vertex 0.294051 2.98555 0
    endloop
  endfacet
  facet normal 0.0490819 0.998795 -0
    outer loop
      vertex 0.294051 2.98555 0
      vertex 0 3 6
      vertex 0.294051 2.98555 6
    endloop
  endfacet
  facet normal 0.0490819 0.998795 0
    outer loop
      vertex 0 3 6
      vertex 0.294051 2.98555 0
      vertex 0 3 0
    endloop
  endfacet
  facet normal -0.0490819 0.998795 0
    outer loop
      vertex 0 3 0
      vertex -0.294051 2.98555 6
      vertex 0 3 6
    endloop
  endfacet
  facet normal -0.0490819 0.998795 0
    outer loop
      vertex -0.294051 2.98555 6
      vertex 0 3 0
      vertex -0.294051 2.98555 0
    endloop
  endfacet
  facet normal -0.146703 0.989181 0
    outer loop
      vertex -0.294051 2.98555 0
      vertex -0.585271 2.94236 6
      vertex -0.294051 2.98555 6
    endloop
  endfacet
  facet normal -0.146703 0.989181 0
    outer loop
      vertex -0.585271 2.94236 6
      vertex -0.294051 2.98555 0
      vertex -0.585271 2.94236 0
    endloop
  endfacet
  facet normal -0.242997 0.970027 0
    outer loop
      vertex -0.585271 2.94236 0
      vertex -0.870854 2.87082 6
      vertex -0.585271 2.94236 6
    endloop
  endfacet
  facet normal -0.242997 0.970027 0
    outer loop
      vertex -0.870854 2.87082 6
      vertex -0.585271 2.94236 0
      vertex -0.870854 2.87082 0
    endloop
  endfacet
  facet normal -0.336883 0.941547 0
    outer loop
      vertex -0.870854 2.87082 0
      vertex -1.14805 2.77164 6
      vertex -0.870854 2.87082 6
    endloop
  endfacet
  facet normal -0.336883 0.941547 0
    outer loop
      vertex -1.14805 2.77164 6
      vertex -0.870854 2.87082 0
      vertex -1.14805 2.77164 0
    endloop
  endfacet
  facet normal -0.427569 0.903983 0
    outer loop
      vertex -1.14805 2.77164 0
      vertex -1.41419 2.64576 6
      vertex -1.14805 2.77164 6
    endloop
  endfacet
  facet normal -0.427569 0.903983 0
    outer loop
      vertex -1.41419 2.64576 6
      vertex -1.14805 2.77164 0
      vertex -1.41419 2.64576 0
    endloop
  endfacet
  facet normal -0.514091 0.857736 0
    outer loop
      vertex -1.41419 2.64576 0
      vertex -1.66671 2.49441 6
      vertex -1.41419 2.64576 6
    endloop
  endfacet
  facet normal -0.514091 0.857736 0
    outer loop
      vertex -1.66671 2.49441 6
      vertex -1.41419 2.64576 0
      vertex -1.66671 2.49441 0
    endloop
  endfacet
  facet normal -0.595703 0.803204 0
    outer loop
      vertex -1.66671 2.49441 0
      vertex -1.90318 2.31903 6
      vertex -1.66671 2.49441 6
    endloop
  endfacet
  facet normal -0.595703 0.803204 0
    outer loop
      vertex -1.90318 2.31903 6
      vertex -1.66671 2.49441 0
      vertex -1.90318 2.31903 0
    endloop
  endfacet
  facet normal -0.671558 0.740952 0
    outer loop
      vertex -1.90318 2.31903 0
      vertex -2.12132 2.12132 6
      vertex -1.90318 2.31903 6
    endloop
  endfacet
  facet normal -0.671558 0.740952 0
    outer loop
      vertex -2.12132 2.12132 6
      vertex -1.90318 2.31903 0
      vertex -2.12132 2.12132 0
    endloop
  endfacet
  facet normal -0.740952 0.671558 0
    outer loop
      vertex -2.31903 1.90318 0
      vertex -2.12132 2.12132 6
      vertex -2.12132 2.12132 0
    endloop
  endfacet
  facet normal -0.740952 0.671558 0
    outer loop
      vertex -2.12132 2.12132 6
      vertex -2.31903 1.90318 0
      vertex -2.31903 1.90318 6
    endloop
  endfacet
  facet normal -0.803204 0.595703 0
    outer loop
      vertex -2.49441 1.66671 0
      vertex -2.31903 1.90318 6
      vertex -2.31903 1.90318 0
    endloop
  endfacet
  facet normal -0.803204 0.595703 0
    outer loop
      vertex -2.31903 1.90318 6
      vertex -2.49441 1.66671 0
      vertex -2.49441 1.66671 6
    endloop
  endfacet
  facet normal -0.857736 0.514091 0
    outer loop
      vertex -2.64576 1.41419 0
      vertex -2.49441 1.66671 6
      vertex -2.49441 1.66671 0
    endloop
  endfacet
  facet normal -0.857736 0.514091 0
    outer loop
      vertex -2.49441 1.66671 6
      vertex -2.64576 1.41419 0
      vertex -2.64576 1.41419 6
    endloop
  endfacet
  facet normal -0.903983 0.427569 0
    outer loop
      vertex -2.77164 1.14805 0
      vertex -2.64576 1.41419 6
      vertex -2.64576 1.41419 0
    endloop
  endfacet
  facet normal -0.903983 0.427569 0
    outer loop
      vertex -2.64576 1.41419 6
      vertex -2.77164 1.14805 0
      vertex -2.77164 1.14805 6
    endloop
  endfacet
  facet normal -0.941547 0.336883 0
    outer loop
      vertex -2.87082 0.870854 0
      vertex -2.77164 1.14805 6
      vertex -2.77164 1.14805 0
    endloop
  endfacet
  facet normal -0.941547 0.336883 0
    outer loop
      vertex -2.77164 1.14805 6
      vertex -2.87082 0.870854 0
      vertex -2.87082 0.870854 6
    endloop
  endfacet
  facet normal -0.970027 0.242997 0
    outer loop
      vertex -2.94236 0.585271 0
      vertex -2.87082 0.870854 6
      vertex -2.87082 0.870854 0
    endloop
  endfacet
  facet normal -0.970027 0.242997 0
    outer loop
      vertex -2.87082 0.870854 6
      vertex -2.94236 0.585271 0
      vertex -2.94236 0.585271 6
    endloop
  endfacet
  facet normal -0.989181 0.146703 0
    outer loop
      vertex -2.98555 0.294051 0
      vertex -2.94236 0.585271 6
      vertex -2.94236 0.585271 0
    endloop
  endfacet
  facet normal -0.989181 0.146703 0
    outer loop
      vertex -2.94236 0.585271 6
      vertex -2.98555 0.294051 0
      vertex -2.98555 0.294051 6
    endloop
  endfacet
  facet normal -0.998795 0.0490819 0
    outer loop
      vertex -3 -0 0
      vertex -2.98555 0.294051 6
      vertex -2.98555 0.294051 0
    endloop
  endfacet
  facet normal -0.998795 0.0490819 0
    outer loop
      vertex -2.98555 0.294051 6
      vertex -3 -0 0
      vertex -3 -0 6
    endloop
  endfacet
  facet normal -0.998795 -0.0490819 0
    outer loop
      vertex -2.98555 -0.294051 0
      vertex -3 -0 6
      vertex -3 -0 0
    endloop
  endfacet
  facet normal -0.998795 -0.0490819 0
    outer loop
      vertex -3 -0 6
      vertex -2.98555 -0.294051 0
      vertex -2.98555 -0.294051 6
    endloop
  endfacet
  facet normal -0.989181 -0.146703 0
    outer loop
      vertex -2.94236 -0.585271 0
      vertex -2.98555 -0.294051 6
      vertex -2.98555 -0.294051 0
    endloop
  endfacet
  facet normal -0.989181 -0.146703 0
    outer loop
      vertex -2.98555 -0.294051 6
      vertex -2.94236 -0.585271 0
      vertex -2.94236 -0.585271 6
    endloop
  endfacet
  facet normal -0.970027 -0.242997 0
    outer loop
      vertex -2.87082 -0.870854 0
      vertex -2.94236 -0.585271 6
      vertex -2.94236 -0.585271 0
    endloop
  endfacet
  facet normal -0.970027 -0.242997 0
    outer loop
      vertex -2.94236 -0.585271 6
      vertex -2.87082 -0.870854 0
      vertex -2.87082 -0.870854 6
    endloop
  endfacet
  facet normal -0.941547 -0.336883 0
    outer loop
      vertex -2.77164 -1.14805 0
      vertex -2.87082 -0.870854 6
      vertex -2.87082 -0.870854 0
    endloop
  endfacet
  facet normal -0.941547 -0.336883 0
    outer loop
      vertex -2.87082 -0.870854 6
      vertex -2.77164 -1.14805 0
      vertex -2.77164 -1.14805 6
    endloop
  endfacet
  facet normal -0.903983 -0.427569 0
    outer loop
      vertex -2.64576 -1.41419 0
      vertex -2.77164 -1.14805 6
      vertex -2.77164 -1.14805 0
    endloop
  endfacet
  facet normal -0.903983 -0.427569 0
    outer loop
      vertex -2.77164 -1.14805 6
      vertex -2.64576 -1.41419 0
      vertex -2.64576 -1.41419 6
    endloop
  endfacet
  facet normal -0.857736 -0.514091 0
    outer loop
      vertex -2.49441 -1.66671 0
      vertex -2.64576 -1.41419 6
      vertex -2.64576 -1.41419 0
    endloop
  endfacet
  facet normal -0.857736 -0.514091 0
    outer loop
      vertex -2.64576 -1.41419 6
      vertex -2.49441 -1.66671 0
      vertex -2.49441 -1.66671 6
    endloop
  endfacet
  facet normal -0.803204 -0.595703 0
    outer loop
      vertex -2.31903 -1.90318 0
      vertex -2.49441 -1.66671 6
      vertex -2.49441 -1.66671 0
    endloop
  endfacet
  facet normal -0.803204 -0.595703 0
    outer loop
      vertex -2.49441 -1.66671 6
      vertex -2.31903 -1.90318 0
      vertex -2.31903 -1.90318 6
    endloop
  endfacet
  facet normal -0.740952 -0.671558 0
    outer loop
      vertex -2.12132 -2.12132 0
      vertex -2.31903 -1.90318 6
      vertex -2.31903 -1.90318 0
    endloop
  endfacet
  facet normal -0.740952 -0.671558 0
    outer loop
      vertex -2.31903 -1.90318 6
      vertex -2.12132 -2.12132 0
      vertex -2.12132 -2.12132 6
    endloop
  endfacet
  facet normal -0.671558 -0.740952 0
    outer loop
      vertex -2.12132 -2.12132 0
      vertex -1.90318 -2.31903 6
      vertex -2.12132 -2.12132 6
    endloop
  endfacet
  facet normal -0.671558 -0.740952 -0
    outer loop
      vertex -1.90318 -2.31903 6
      vertex -2.12132 -2.12132 0
      vertex -1.90318 -2.31903 0
    endloop
  endfacet
  facet normal -0.595703 -0.803204 0
    outer loop
      vertex -1.90318 -2.31903 0
      vertex -1.66671 -2.49441 6
      vertex -1.90318 -2.31903 6
    endloop
  endfacet
  facet normal -0.595703 -0.803204 -0
    outer loop
      vertex -1.66671 -2.49441 6
      vertex -1.90318 -2.31903 0
      vertex -1.66671 -2.49441 0
    endloop
  endfacet
  facet normal -0.514091 -0.857736 0
    outer loop
      vertex -1.66671 -2.49441 0
      vertex -1.41419 -2.64576 6
      vertex -1.66671 -2.49441 6
    endloop
  endfacet
  facet normal -0.514091 -0.857736 -0
    outer loop
      vertex -1.41419 -2.64576 6
      vertex -1.66671 -2.49441 0
      vertex -1.41419 -2.64576 0
    endloop
  endfacet
  facet normal -0.427569 -0.903983 0
    outer loop
      vertex -1.41419 -2.64576 0
      vertex -1.14805 -2.77164 6
      vertex -1.41419 -2.64576 6
    endloop
  endfacet
  facet normal -0.427569 -0.903983 -0
    outer loop
      vertex -1.14805 -2.77164 6
      vertex -1.41419 -2.64576 0
      vertex -1.14805 -2.77164 0
    endloop
  endfacet
  facet normal -0.336883 -0.941547 0
    outer loop
      vertex -1.14805 -2.77164 0
      vertex -0.870854 -2.87082 6
      vertex -1.14805 -2.77164 6
    endloop
  endfacet
  facet normal -0.336883 -0.941547 -0
    outer loop
      vertex -0.870854 -2.87082 6
      vertex -1.14805 -2.77164 0
      vertex -0.870854 -2.87082 0
    endloop
  endfacet
  facet normal -0.242997 -0.970027 0
    outer loop
      vertex -0.870854 -2.87082 0
      vertex -0.585271 -2.94236 6
      vertex -0.870854 -2.87082 6
    endloop
  endfacet
  facet normal -0.242997 -0.970027 -0
    outer loop
      vertex -0.585271 -2.94236 6
      vertex -0.870854 -2.87082 0
      vertex -0.585271 -2.94236 0
    endloop
  endfacet
  facet normal -0.146703 -0.989181 0
    outer loop
      vertex -0.585271 -2.94236 0
      vertex -0.294051 -2.98555 6
      vertex -0.585271 -2.94236 6
    endloop
  endfacet
  facet normal -0.146703 -0.989181 -0
    outer loop
      vertex -0.294051 -2.98555 6
      vertex -0.585271 -2.94236 0
      vertex -0.294051 -2.98555 0
    endloop
  endfacet
  facet normal -0.0490819 -0.998795 0
    outer loop
      vertex -0.294051 -2.98555 0
      vertex -0 -3 6
      vertex -0.294051 -2.98555 6
    endloop
  endfacet
  facet normal -0.0490819 -0.998795 -0
    outer loop
      vertex -0 -3 6
      vertex -0.294051 -2.98555 0
      vertex -0 -3 0
    endloop
  endfacet
  facet normal 0.0490819 -0.998795 0
    outer loop
      vertex -0 -3 0
      vertex 0.294051 -2.98555 6
      vertex -0 -3 6
    endloop
  endfacet
  facet normal 0.0490819 -0.998795 0
    outer loop
      vertex 0.294051 -2.98555 6
      vertex -0 -3 0
      vertex 0.294051 -2.98555 0
    endloop
  endfacet
  facet normal 0.146703 -0.989181 0
    outer loop
      vertex 0.294051 -2.98555 0
      vertex 0.585271 -2.94236 6
      vertex 0.294051 -2.98555 6
    endloop
  endfacet
  facet normal 0.146703 -0.989181 0
    outer loop
      vertex 0.585271 -2.94236 6
      vertex 0.294051 -2.98555 0
      vertex 0.585271 -2.94236 0
    endloop
  endfacet
  facet normal 0.242997 -0.970027 0
    outer loop
      vertex 0.585271 -2.94236 0
      vertex 0.870854 -2.87082 6
      vertex 0.585271 -2.94236 6
    endloop
  endfacet
  facet normal 0.242997 -0.970027 0
    outer loop
      vertex 0.870854 -2.87082 6
      vertex 0.585271 -2.94236 0
      vertex 0.870854 -2.87082 0
    endloop
  endfacet
  facet normal 0.336883 -0.941547 0
    outer loop
      vertex 0.870854 -2.87082 0
      vertex 1.14805 -2.77164 6
      vertex 0.870854 -2.87082 6
    endloop
  endfacet
  facet normal 0.336883 -0.941547 0
    outer loop
      vertex 1.14805 -2.77164 6
      vertex 0.870854 -2.87082 0
      vertex 1.14805 -2.77164 0
    endloop
  endfacet
  facet normal 0.427569 -0.903983 0
    outer loop
      vertex 1.14805 -2.77164 0
      vertex 1.41419 -2.64576 6
      vertex 1.14805 -2.77164 6
    endloop
  endfacet
  facet normal 0.427569 -0.903983 0
    outer loop
      vertex 1.41419 -2.64576 6
      vertex 1.14805 -2.77164 0
      vertex 1.41419 -2.64576 0
    endloop
  endfacet
  facet normal 0.514091 -0.857736 0
    outer loop
      vertex 1.41419 -2.64576 0
      vertex 1.66671 -2.49441 6
      vertex 1.41419 -2.64576 6
    endloop
  endfacet
  facet normal 0.514091 -0.857736 0
    outer loop
      vertex 1.66671 -2.49441 6
      vertex 1.41419 -2.64576 0
      vertex 1.66671 -2.49441 0
    endloop
  endfacet
  facet normal 0.595703 -0.803204 0
    outer loop
      vertex 1.66671 -2.49441 0
      vertex 1.90318 -2.31903 6
      vertex 1.66671 -2.49441 6
    endloop
  endfacet
  facet normal 0.595703 -0.803204 0
    outer loop
      vertex 1.90318 -2.31903 6
      vertex 1.66671 -2.49441 0
      vertex 1.90318 -2.31903 0
    endloop
  endfacet
  facet normal 0.671558 -0.740952 0
    outer loop
      vertex 1.90318 -2.31903 0
      vertex 2.12132 -2.12132 6
      vertex 1.90318 -2.31903 6
    endloop
  endfacet
  facet normal 0.671558 -0.740952 0
    outer loop
      vertex 2.12132 -2.12132 6
      vertex 1.90318 -2.31903 0
      vertex 2.12132 -2.12132 0
    endloop
  endfacet
  facet normal 0.740952 -0.671558 0
    outer loop
      vertex 2.12132 -2.12132 6
      vertex 2.31903 -1.90318 0
      vertex 2.31903 -1.90318 6
    endloop
  endfacet
  facet normal 0.740952 -0.671558 0
    outer loop
      vertex 2.31903 -1.90318 0
      vertex 2.12132 -2.12132 6
      vertex 2.12132 -2.12132 0
    endloop
  endfacet
  facet normal 0.803204 -0.595703 0
    outer loop
      vertex 2.31903 -1.90318 6
      vertex 2.49441 -1.66671 0
      vertex 2.49441 -1.66671 6
    endloop
  endfacet
  facet normal 0.803204 -0.595703 0
    outer loop
      vertex 2.49441 -1.66671 0
      vertex 2.31903 -1.90318 6
      vertex 2.31903 -1.90318 0
    endloop
  endfacet
  facet normal 0.857736 -0.514091 0
    outer loop
      vertex 2.49441 -1.66671 6
      vertex 2.64576 -1.41419 0
      vertex 2.64576 -1.41419 6
    endloop
  endfacet
  facet normal 0.857736 -0.514091 0
    outer loop
      vertex 2.64576 -1.41419 0
      vertex 2.49441 -1.66671 6
      vertex 2.49441 -1.66671 0
    endloop
  endfacet
  facet normal 0.903983 -0.427569 0
    outer loop
      vertex 2.64576 -1.41419 6
      vertex 2.77164 -1.14805 0
      vertex 2.77164 -1.14805 6
    endloop
  endfacet
  facet normal 0.903983 -0.427569 0
    outer loop
      vertex 2.77164 -1.14805 0
      vertex 2.64576 -1.41419 6
      vertex 2.64576 -1.41419 0
    endloop
  endfacet
  facet normal 0.941547 -0.336883 0
    outer loop
      vertex 2.77164 -1.14805 6
      vertex 2.87082 -0.870854 0
      vertex 2.87082 -0.870854 6
    endloop
  endfacet
  facet normal 0.941547 -0.336883 0
    outer loop
      vertex 2.87082 -0.870854 0
      vertex 2.77164 -1.14805 6
      vertex 2.77164 -1.14805 0
    endloop
  endfacet
  facet normal 0.970027 -0.242997 0
    outer loop
      vertex 2.87082 -0.870854 6
      vertex 2.94236 -0.585271 0
      vertex 2.94236 -0.585271 6
    endloop
  endfacet
  facet normal 0.970027 -0.242997 0
    outer loop
      vertex 2.94236 -0.585271 0
      vertex 2.87082 -0.870854 6
      vertex 2.87082 -0.870854 0
    endloop
  endfacet
  facet normal 0.989181 -0.146703 0
    outer loop
      vertex 2.94236 -0.585271 6
      vertex 2.98555 -0.294051 0
      vertex 2.98555 -0.294051 6
    endloop
  endfacet
  facet normal 0.989181 -0.146703 0
    outer loop
      vertex 2.98555 -0.294051 0
      vertex 2.94236 -0.585271 6
      vertex 2.94236 -0.585271 0
    endloop
  endfacet
  facet normal 0.998795 -0.0490819 0
    outer loop
      vertex 2.98555 -0.294051 6
      vertex 3 0 0
      vertex 3 0 6
    endloop
  endfacet
  facet normal 0.998795 -0.0490819 0
    outer loop
      vertex 3 0 0
      vertex 2.98555 -0.294051 6
      vertex 2.98555 -0.294051 0
    endloop
  endfacet
  facet normal 0 0 -1
    outer loop
      vertex 2.98555 -0.294051 0
      vertex 2.98555 0.294051 0
      vertex 3 0 0
    endloop
  endfacet
  facet normal 0 0 -1
    outer loop
      vertex 2.94236 -0.585271 0
      vertex 2.98555 0.294051 0
      vertex 2.98555 -0.294051 0
    endloop
  endfacet
  facet normal 0 0 -1
    outer loop
      vertex 2.94236 -0.585271 0
      vertex 2.94236 0.585271 0
      vertex 2.98555 0.294051 0
    endloop
  endfacet
  facet normal 0 0 -1
    outer loop
      vertex 2.87082 -0.870854 0
      vertex 2.94236 0.585271 0
      vertex 2.94236 -0.585271 0
    endloop
  endfacet
  facet normal 0 0 -1
    outer loop
      vertex 2.87082 -0.870854 0
      vertex 2.87082 0.870854 0
      vertex 2.94236 0.585271 0
    endloop
  endfacet
  facet normal 0 0 -1
    outer loop
      vertex 2.77164 -1.14805 0
      vertex 2.87082 0.870854 0
      vertex 2.87082 -0.870854 0
    endloop
  endfacet
  facet normal 0 0 -1
    outer loop
      vertex 2.77164 -1.14805 0
      vertex 2.77164 1.14805 0
      vertex 2.87082 0.870854 0
    endloop
  endfacet
  facet normal 0 0 -1
    outer loop
      vertex 2.64576 -1.41419 0
      vertex 2.77164 1.14805 0
      vertex 2.77164 -1.14805 0
    endloop
  endfacet
  facet normal 0 0 -1
    outer loop
      vertex 2.64576 -1.41419 0
      vertex 2.64576 1.41419 0
      vertex 2.77164 1.14805 0
    endloop
  endfacet
  facet normal 0 0 -1
    outer loop
      vertex 2.49441 -1.66671 0
      vertex 2.64576 1.41419 0
      vertex 2.64576 -1.41419 0
    endloop
  endfacet
  facet normal 0 0 -1
    outer loop
      vertex 2.49441 -1.66671 0
      vertex 2.49441 1.66671 0
      vertex 2.64576 1.41419 0
    endloop
  endfacet
  facet normal 0 0 -1
    outer loop
      vertex 2.31903 -1.90318 0
      vertex 2.49441 1.66671 0
      vertex 2.49441 -1.66671 0
    endloop
  endfacet
  facet normal 0 0 -1
    outer loop
      vertex 2.31903 -1.90318 0
      vertex 2.31903 1.90318 0
      vertex 2.49441 1.66671 0
    endloop
  endfacet
  facet normal 0 0 -1
    outer loop
      vertex 2.12132 -2.12132 0
      vertex 2.31903 1.90318 0
      vertex 2.31903 -1.90318 0
    endloop
  endfacet
  facet normal 0 0 -1
    outer loop
      vertex 2.12132 -2.12132 0
      vertex 2.12132 2.12132 0
      vertex 2.31903 1.90318 0
    endloop
  endfacet
  facet normal 0 0 -1
    outer loop
      vertex 1.90318 -2.31903 0
      vertex 2.12132 2.12132 0
      vertex 2.12132 -2.12132 0
    endloop
  endfacet
  facet normal 0 0 -1
    outer loop
      vertex 1.90318 -2.31903 0
      vertex 1.90318 2.31903 0
      vertex 2.12132 2.12132 0
    endloop
  endfacet
  facet normal 0 0 -1
    outer loop
      vertex 1.66671 -2.49441 0
      vertex 1.90318 2.31903 0
      vertex 1.90318 -2.31903 0
    endloop
  endfacet
  facet normal 0 0 -1
    outer loop
      vertex 1.66671 -2.49441 0
      vertex 1.66671 2.49441 0
      vertex 1.90318 2.31903 0
    endloop
  endfacet
  facet normal 0 0 -1
    outer loop
      vertex 1.41419 -2.64576 0
      vertex 1.66671 2.49441 0
      vertex 1.66671 -2.49441 0
    endloop
  endfacet
  facet normal 0 0 -1
    outer loop
      vertex 1.41419 -2.64576 0
      vertex 1.41419 2.64576 0
      vertex 1.66671 2.49441 0
    endloop
  endfacet
  facet normal 0 0 -1
    outer loop
      vertex 1.14805 -2.77164 0
      vertex 1.41419 2.64576 0
      vertex 1.41419 -2.64576 0
    endloop
  endfacet
  facet normal 0 0 -1
    outer loop
      vertex 1.14805 -2.77164 0
      vertex 1.14805 2.77164 0
      vertex 1.41419 2.64576 0
    endloop
  endfacet
  facet normal 0 0 -1
    outer loop
      vertex 0.870854 -2.87082 0
      vertex 1.14805 2.77164 0
      vertex 1.14805 -2.77164 0
    endloop
  endfacet
  facet normal 0 0 -1
    outer loop
      vertex 0.870854 -2.87082 0
      vertex 0.870854 2.87082 0
      vertex 1.14805 2.77164 0
    endloop
  endfacet
  facet normal 0 0 -1
    outer loop
      vertex 0.585271 -2.94236 0
      vertex 0.870854 2.87082 0
      vertex 0.870854 -2.87082 0
    endloop
  endfacet
  facet normal 0 0 -1
    outer loop
      vertex 0.585271 -2.94236 0
      vertex 0.585271 2.94236 0
      vertex 0.870854 2.87082 0
    endloop
  endfacet
  facet normal 0 0 -1
    outer loop
      vertex 0.294051 -2.98555 0
      vertex 0.585271 2.94236 0
      vertex 0.585271 -2.94236 0
    endloop
  endfacet
  facet normal 0 0 -1
    outer loop
      vertex 0.294051 -2.98555 0
      vertex 0.294051 2.98555 0
      vertex 0.585271 2.94236 0
    endloop
  endfacet
  facet normal 0 0 -1
    outer loop
      vertex -0 -3 0
      vertex 0.294051 2.98555 0
      vertex 0.294051 -2.98555 0
    endloop
  endfacet
  facet normal 0 0 -1
    outer loop
      vertex -0 -3 0
      vertex 0 3 0
      vertex 0.294051 2.98555 0
    endloop
  endfacet
  facet normal 0 0 -1
    outer loop
      vertex -0.294051 -2.98555 0
      vertex 0 3 0
      vertex -0 -3 0
    endloop
  endfacet
  facet normal 0 0 -1
    outer loop
      vertex -0.294051 -2.98555 0
      vertex -0.294051 2.98555 0
      vertex 0 3 0
    endloop
  endfacet
  facet normal 0 0 -1
    outer loop
      vertex -0.585271 -2.94236 0
      vertex -0.294051 2.98555 0
      vertex -0.294051 -2.98555 0
    endloop
  endfacet
  facet normal 0 0 -1
    outer loop
      vertex -0.585271 -2.94236 0
      vertex -0.585271 2.94236 0
      vertex -0.294051 2.98555 0
    endloop
  endfacet
  facet normal 0 0 -1
    outer loop
      vertex -0.870854 -2.87082 0
      vertex -0.585271 2.94236 0
      vertex -0.585271 -2.94236 0
    endloop
  endfacet
  facet normal 0 0 -1
    outer loop
      vertex -0.870854 -2.87082 0
      vertex -0.870854 2.87082 0
      vertex -0.585271 2.94236 0
    endloop
  endfacet
  facet normal 0 0 -1
    outer loop
      vertex -1.14805 -2.77164 0
      vertex -0.870854 2.87082 0
      vertex -0.870854 -2.87082 0
    endloop
  endfacet
  facet normal 0 0 -1
    outer loop
      vertex -1.14805 -2.77164 0
      vertex -1.14805 2.77164 0
      vertex -0.870854 2.87082 0
    endloop
  endfacet
  facet normal 0 0 -1
    outer loop
      vertex -1.41419 -2.64576 0
      vertex -1.14805 2.77164 0
      vertex -1.14805 -2.77164 0
    endloop
  endfacet
  facet normal 0 0 -1
    outer loop
      vertex -1.41419 -2.64576 0
      vertex -1.41419 2.64576 0
      vertex -1.14805 2.77164 0
    endloop
  endfacet
  facet normal 0 0 -1
    outer loop
      vertex -1.66671 -2.49441 0
      vertex -1.41419 2.64576 0
      vertex -1.41419 -2.64576 0
    endloop
  endfacet
  facet normal 0 0 -1
    outer loop
      vertex -1.66671 -2.49441 0
      vertex -1.66671 2.49441 0
      vertex -1.41419 2.64576 0
    endloop
  endfacet
  facet normal 0 0 -1
    outer loop
      vertex -1.90318 -2.31903 0
      vertex -1.66671 2.49441 0
      vertex -1.66671 -2.49441 0
    endloop
  endfacet
  facet normal 0 0 -1
    outer loop
      vertex -1.90318 -2.31903 0
      vertex -1.90318 2.31903 0
      vertex -1.66671 2.49441 0
    endloop
  endfacet
  facet normal 0 0 -1
    outer loop
      vertex -2.12132 -2.12132 0
      vertex -1.90318 2.31903 0
      vertex -1.90318 -2.31903 0
    endloop
  endfacet
  facet normal 0 0 -1
    outer loop
      vertex -2.12132 -2.12132 0
      vertex -2.12132 2.12132 0
      vertex -1.90318 2.31903 0
    endloop
  endfacet
  facet normal 0 0 -1
    outer loop
      vertex -2.31903 -1.90318 0
      vertex -2.12132 2.12132 0
      vertex -2.12132 -2.12132 0
    endloop
  endfacet
  facet normal 0 0 -1
    outer loop
      vertex -2.31903 -1.90318 0
      vertex -2.31903 1.90318 0
      vertex -2.12132 2.12132 0
    endloop
  endfacet
  facet normal 0 0 -1
    outer loop
      vertex -2.49441 -1.66671 0
      vertex -2.31903 1.90318 0
      vertex -2.31903 -1.90318 0
    endloop
  endfacet
  facet normal 0 0 -1
    outer loop
      vertex -2.49441 -1.66671 0
      vertex -2.49441 1.66671 0
      vertex -2.31903 1.90318 0
    endloop
  endfacet
  facet normal 0 0 -1
    outer loop
      vertex -2.64576 -1.41419 0
      vertex -2.49441 1.66671 0
      vertex -2.49441 -1.66671 0
    endloop
  endfacet
  facet normal 0 0 -1
    outer loop
      vertex -2.64576 -1.41419 0
      vertex -2.64576 1.41419 0
      vertex -2.49441 1.66671 0
    endloop
  endfacet
  facet normal 0 0 -1
    outer loop
      vertex -2.77164 -1.14805 0
      vertex -2.64576 1.41419 0
      vertex -2.64576 -1.41419 0
    endloop
  endfacet
  facet normal 0 0 -1
    outer loop
      vertex -2.77164 -1.14805 0
      vertex -2.77164 1.14805 0
      vertex -2.64576 1.41419 0
    endloop
  endfacet
  facet normal 0 0 -1
    outer loop
      vertex -2.87082 -0.870854 0
      vertex -2.77164 1.14805 0
      vertex -2.77164 -1.14805 0
    endloop
  endfacet
  facet normal 0 0 -1
    outer loop
      vertex -2.87082 -0.870854 0
      vertex -2.87082 0.870854 0
      vertex -2.77164 1.14805 0
    endloop
  endfacet
  facet normal 0 0 -1
    outer loop
      vertex -2.94236 -0.585271 0
      vertex -2.87082 0.870854 0
      vertex -2.87082 -0.870854 0
    endloop
  endfacet
  facet normal 0 0 -1
    outer loop
      vertex -2.94236 -0.585271 0
      vertex -2.94236 0.585271 0
      vertex -2.87082 0.870854 0
    endloop
  endfacet
  facet normal 0 0 -1
    outer loop
      vertex -2.98555 -0.294051 0
      vertex -2.94236 0.585271 0
      vertex -2.94236 -0.585271 0
    endloop
  endfacet
  facet normal 0 0 -1
    outer loop
      vertex -2.98555 -0.294051 0
      vertex -2.98555 0.294051 0
      vertex -2.94236 0.585271 0
    endloop
  endfacet
  facet normal 0 -0 -1
    outer loop
      vertex -2.98555 0.294051 0
      vertex -2.98555 -0.294051 0
      vertex -3 -0 0
    endloop
  endfacet
  facet normal 0 0 1
    outer loop
      vertex 2.98555 0.294051 6
      vertex 2.98555 -0.294051 6
      vertex 3 0 6
    endloop
  endfacet
  facet normal 0 0 1
    outer loop
      vertex 2.94236 0.585271 6
      vertex 2.98555 -0.294051 6
      vertex 2.98555 0.294051 6
    endloop
  endfacet
  facet normal 0 0 1
    outer loop
      vertex 2.94236 0.585271 6
      vertex 2.94236 -0.585271 6
      vertex 2.98555 -0.294051 6
    endloop
  endfacet
  facet normal 0 0 1
    outer loop
      vertex 2.87082 0.870854 6
      vertex 2.94236 -0.585271 6
      vertex 2.94236 0.585271 6
    endloop
  endfacet
  facet normal 0 0 1
    outer loop
      vertex 2.87082 0.870854 6
      vertex 2.87082 -0.870854 6
      vertex 2.94236 -0.585271 6
    endloop
  endfacet
  facet normal 0 0 1
    outer loop
      vertex 2.77164 1.14805 6
      vertex 2.87082 -0.870854 6
      vertex 2.87082 0.870854 6
    endloop
  endfacet
  facet normal 0 0 1
    outer loop
      vertex 2.77164 1.14805 6
      vertex 2.77164 -1.14805 6
      vertex 2.87082 -0.870854 6
    endloop
  endfacet
  facet normal 0 0 1
    outer loop
      vertex 2.64576 1.41419 6
      vertex 2.77164 -1.14805 6
      vertex 2.77164 1.14805 6
    endloop
  endfacet
  facet normal 0 0 1
    outer loop
      vertex 2.64576 1.41419 6
      vertex 2.64576 -1.41419 6
      vertex 2.77164 -1.14805 6
    endloop
  endfacet
  facet normal 0 0 1
    outer loop
      vertex 2.49441 1.66671 6
      vertex 2.64576 -1.41419 6
      vertex 2.64576 1.41419 6
    endloop
  endfacet
  facet normal 0 0 1
    outer loop
      vertex 2.49441 1.66671 6
      vertex 2.49441 -1.66671 6
      vertex 2.64576 -1.41419 6
    endloop
  endfacet
  facet normal 0 0 1
    outer loop
      vertex 2.31903 1.90318 6
      vertex 2.49441 -1.66671 6
      vertex 2.49441 1.66671 6
    endloop
  endfacet
  facet normal 0 0 1
    outer loop
      vertex 2.31903 1.90318 6
      vertex 2.31903 -1.90318 6
      vertex 2.49441 -1.66671 6
    endloop
  endfacet
  facet normal 0 0 1
    outer loop
      vertex 2.12132 2.12132 6
      vertex 2.31903 -1.90318 6
      vertex 2.31903 1.90318 6
    endloop
  endfacet
  facet normal 0 0 1
    outer loop
      vertex 2.12132 2.12132 6
      vertex 2.12132 -2.12132 6
      vertex 2.31903 -1.90318 6
    endloop
  endfacet
  facet normal 0 0 1
    outer loop
      vertex 1.90318 2.31903 6
      vertex 2.12132 -2.12132 6
      vertex 2.12132 2.12132 6
    endloop
  endfacet
  facet normal 0 0 1
    outer loop
      vertex 1.90318 2.31903 6
      vertex 1.90318 -2.31903 6
      vertex 2.12132 -2.12132 6
    endloop
  endfacet
  facet normal 0 0 1
    outer loop
      vertex 1.66671 2.49441 6
      vertex 1.90318 -2.31903 6
      vertex 1.90318 2.31903 6
    endloop
  endfacet
  facet normal 0 0 1
    outer loop
      vertex 1.66671 2.49441 6
      vertex 1.66671 -2.49441 6
      vertex 1.90318 -2.31903 6
    endloop
  endfacet
  facet normal 0 0 1
    outer loop
      vertex 1.41419 2.64576 6
      vertex 1.66671 -2.49441 6
      vertex 1.66671 2.49441 6
    endloop
  endfacet
  facet normal 0 0 1
    outer loop
      vertex 1.41419 2.64576 6
      vertex 1.41419 -2.64576 6
      vertex 1.66671 -2.49441 6
    endloop
  endfacet
  facet normal 0 0 1
    outer loop
      vertex 1.14805 2.77164 6
      vertex 1.41419 -2.64576 6
      vertex 1.41419 2.64576 6
    endloop
  endfacet
  facet normal 0 0 1
    outer loop
      vertex 1.14805 2.77164 6
      vertex 1.14805 -2.77164 6
      vertex 1.41419 -2.64576 6
    endloop
  endfacet
  facet normal 0 0 1
    outer loop
      vertex 0.870854 2.87082 6
      vertex 1.14805 -2.77164 6
      vertex 1.14805 2.77164 6
    endloop
  endfacet
  facet normal 0 0 1
    outer loop
      vertex 0.870854 2.87082 6
      vertex 0.870854 -2.87082 6
      vertex 1.14805 -2.77164 6
    endloop
  endfacet
  facet normal 0 0 1
    outer loop
      vertex 0.585271 2.94236 6
      vertex 0.870854 -2.87082 6
      vertex 0.870854 2.87082 6
    endloop
  endfacet
  facet normal 0 0 1
    outer loop
      vertex 0.585271 2.94236 6
      vertex 0.585271 -2.94236 6
      vertex 0.870854 -2.87082 6
    endloop
  endfacet
  facet normal 0 0 1
    outer loop
      vertex 0.294051 2.98555 6
      vertex 0.585271 -2.94236 6
      vertex 0.585271 2.94236 6
    endloop
  endfacet
  facet normal 0 0 1
    outer loop
      vertex 0.294051 2.98555 6
      vertex 0.294051 -2.98555 6
      vertex 0.585271 -2.94236 6
    endloop
  endfacet
  facet normal 0 0 1
    outer loop
      vertex 0 3 6
      vertex 0.294051 -2.98555 6
      vertex 0.294051 2.98555 6
    endloop
  endfacet
  facet normal 0 0 1
    outer loop
      vertex 0 3 6
      vertex -0 -3 6
      vertex 0.294051 -2.98555 6
    endloop
  endfacet
  facet normal -0 0 1
    outer loop
      vertex -0.294051 2.98555 6
      vertex -0 -3 6
      vertex 0 3 6
    endloop
  endfacet
  facet normal 0 0 1
    outer loop
      vertex -0.294051 2.98555 6
      vertex -0.294051 -2.98555 6
      vertex -0 -3 6
    endloop
  endfacet
  facet normal -0 0 1
    outer loop
      vertex -0.585271 2.94236 6
      vertex -0.294051 -2.98555 6
      vertex -0.294051 2.98555 6
    endloop
  endfacet
  facet normal 0 0 1
    outer loop
      vertex -0.585271 2.94236 6
      vertex -0.585271 -2.94236 6
      vertex -0.294051 -2.98555 6
    endloop
  endfacet
  facet normal -0 0 1
    outer loop
      vertex -0.870854 2.87082 6
      vertex -0.585271 -2.94236 6
      vertex -0.585271 2.94236 6
    endloop
  endfacet
  facet normal 0 0 1
    outer loop
      vertex -0.870854 2.87082 6
      vertex -0.870854 -2.87082 6
      vertex -0.585271 -2.94236 6
    endloop
  endfacet
  facet normal -0 0 1
    outer loop
      vertex -1.14805 2.77164 6
      vertex -0.870854 -2.87082 6
      vertex -0.870854 2.87082 6
    endloop
  endfacet
  facet normal 0 0 1
    outer loop
      vertex -1.14805 2.77164 6
      vertex -1.14805 -2.77164 6
      vertex -0.870854 -2.87082 6
    endloop
  endfacet
  facet normal -0 0 1
    outer loop
      vertex -1.41419 2.64576 6
      vertex -1.14805 -2.77164 6
      vertex -1.14805 2.77164 6
    endloop
  endfacet
  facet normal 0 0 1
    outer loop
      vertex -1.41419 2.64576 6
      vertex -1.41419 -2.64576 6
      vertex -1.14805 -2.77164 6
    endloop
  endfacet
  facet normal -0 0 1
    outer loop
      vertex -1.66671 2.49441 6
      vertex -1.41419 -2.64576 6
      vertex -1.41419 2.64576 6
    endloop
  endfacet
  facet normal 0 0 1
    outer loop
      vertex -1.66671 2.49441 6
      vertex -1.66671 -2.49441 6
      vertex -1.41419 -2.64576 6
    endloop
  endfacet
  facet normal -0 0 1
    outer loop
      vertex -1.90318 2.31903 6
      vertex -1.66671 -2.49441 6
      vertex -1.66671 2.49441 6
    endloop
  endfacet
  facet normal 0 0 1
    outer loop
      vertex -1.90318 2.31903 6
      vertex -1.90318 -2.31903 6
      vertex -1.66671 -2.49441 6
    endloop
  endfacet
  facet normal -0 0 1
    outer loop
      vertex -2.12132 2.12132 6
      vertex -1.90318 -2.31903 6
      vertex -1.90318 2.31903 6
    endloop
  endfacet
  facet normal 0 0 1
    outer loop
      vertex -2.12132 2.12132 6
      vertex -2.12132 -2.12132 6
      vertex -1.90318 -2.31903 6
    endloop
  endfacet
  facet normal -0 0 1
    outer loop
      vertex -2.31903 1.90318 6
      vertex -2.12132 -2.12132 6
      vertex -2.12132 2.12132 6
    endloop
  endfacet
  facet normal 0 0 1
    outer loop
      vertex -2.31903 1.90318 6
      vertex -2.31903 -1.90318 6
      vertex -2.12132 -2.12132 6
    endloop
  endfacet
  facet normal -0 0 1
    outer loop
      vertex -2.49441 1.66671 6
      vertex -2.31903 -1.90318 6
      vertex -2.31903 1.90318 6
    endloop
  endfacet
  facet normal 0 0 1
    outer loop
      vertex -2.49441 1.66671 6
      vertex -2.49441 -1.66671 6
      vertex -2.31903 -1.90318 6
    endloop
  endfacet
  facet normal -0 0 1
    outer loop
      vertex -2.64576 1.41419 6
      vertex -2.49441 -1.66671 6
      vertex -2.49441 1.66671 6
    endloop
  endfacet
  facet normal 0 0 1
    outer loop
      vertex -2.64576 1.41419 6
      vertex -2.64576 -1.41419 6
      vertex -2.49441 -1.66671 6
    endloop
  endfacet
  facet normal -0 0 1
    outer loop
      vertex -2.77164 1.14805 6
      vertex -2.64576 -1.41419 6
      vertex -2.64576 1.41419 6
    endloop
  endfacet
  facet normal 0 0 1
    outer loop
      vertex -2.77164 1.14805 6
      vertex -2.77164 -1.14805 6
      vertex -2.64576 -1.41419 6
    endloop
  endfacet
  facet normal -0 0 1
    outer loop
      vertex -2.87082 0.870854 6
      vertex -2.77164 -1.14805 6
      vertex -2.77164 1.14805 6
    endloop
  endfacet
  facet normal 0 0 1
    outer loop
      vertex -2.87082 0.870854 6
      vertex -2.87082 -0.870854 6
      vertex -2.77164 -1.14805 6
    endloop
  endfacet
  facet normal -0 0 1
    outer loop
      vertex -2.94236 0.585271 6
      vertex -2.87082 -0.870854 6
      vertex -2.87082 0.870854 6
    endloop
  endfacet
  facet normal 0 0 1
    outer loop
      vertex -2.94236 0.585271 6
      vertex -2.94236 -0.585271 6
      vertex -2.87082 -0.870854 6
    endloop
  endfacet
  facet normal -0 0 1
    outer loop
      vertex -2.98555 0.294051 6
      vertex -2.94236 -0.585271 6
      vertex -2.94236 0.585271 6
    endloop
  endfacet
  facet normal 0 0 1
    outer loop
      vertex -2.98555 0.294051 6
      vertex -2.98555 -0.294051 6
      vertex -2.94236 -0.585271 6
    endloop
  endfacet
  facet normal 0 -0 1
    outer loop
      vertex -2.98555 -0.294051 6
      vertex -2.98555 0.294051 6
      vertex -3 -0 6
    endloop
  endfacet
endsolid OpenSCAD_Model
