solid OpenSCAD_Model
  facet normal 0.998796 0.049065 0
    outer loop
      vertex 2 0 200
      vertex 1.99037 0.196034 0
      vertex 1.99037 0.196034 200
    endloop
  endfacet
  facet normal 0.998796 0.049065 0
    outer loop
      vertex 1.99037 0.196034 0
      vertex 2 0 200
      vertex 2 0 0
    endloop
  endfacet
  facet normal 0.989176 0.146736 0
    outer loop
      vertex 1.99037 0.196034 200
      vertex 1.96157 0.390181 0
      vertex 1.96157 0.390181 200
    endloop
  endfacet
  facet normal 0.989176 0.146736 0
    outer loop
      vertex 1.96157 0.390181 0
      vertex 1.99037 0.196034 200
      vertex 1.99037 0.196034 0
    endloop
  endfacet
  facet normal 0.970031 0.242982 0
    outer loop
      vertex 1.96157 0.390181 200
      vertex 1.91388 0.580569 0
      vertex 1.91388 0.580569 200
    endloop
  endfacet
  facet normal 0.970031 0.242982 0
    outer loop
      vertex 1.91388 0.580569 0
      vertex 1.96157 0.390181 200
      vertex 1.96157 0.390181 0
    endloop
  endfacet
  facet normal 0.941547 0.336882 0
    outer loop
      vertex 1.91388 0.580569 200
      vertex 1.84776 0.765367 0
      vertex 1.84776 0.765367 200
    endloop
  endfacet
  facet normal 0.941547 0.336882 0
    outer loop
      vertex 1.84776 0.765367 0
      vertex 1.91388 0.580569 200
      vertex 1.91388 0.580569 0
    endloop
  endfacet
  facet normal 0.903982 0.427571 0
    outer loop
      vertex 1.84776 0.765367 200
      vertex 1.76384 0.942793 0
      vertex 1.76384 0.942793 200
    endloop
  endfacet
  facet normal 0.903982 0.427571 0
    outer loop
      vertex 1.76384 0.942793 0
      vertex 1.84776 0.765367 200
      vertex 1.84776 0.765367 0
    endloop
  endfacet
  facet normal 0.857736 0.51409 0
    outer loop
      vertex 1.76384 0.942793 200
      vertex 1.66294 1.11114 0
      vertex 1.66294 1.11114 200
    endloop
  endfacet
  facet normal 0.857736 0.51409 0
    outer loop
      vertex 1.66294 1.11114 0
      vertex 1.76384 0.942793 200
      vertex 1.76384 0.942793 0
    endloop
  endfacet
  facet normal 0.80321 0.595695 0
    outer loop
      vertex 1.66294 1.11114 200
      vertex 1.54602 1.26879 0
      vertex 1.54602 1.26879 200
    endloop
  endfacet
  facet normal 0.80321 0.595695 0
    outer loop
      vertex 1.54602 1.26879 0
      vertex 1.66294 1.11114 200
      vertex 1.66294 1.11114 0
    endloop
  endfacet
  facet normal 0.740928 0.671584 0
    outer loop
      vertex 1.54602 1.26879 200
      vertex 1.41421 1.41421 0
      vertex 1.41421 1.41421 200
    endloop
  endfacet
  facet normal 0.740928 0.671584 0
    outer loop
      vertex 1.41421 1.41421 0
      vertex 1.54602 1.26879 200
      vertex 1.54602 1.26879 0
    endloop
  endfacet
  facet normal 0.671584 0.740928 -0
    outer loop
      vertex 1.41421 1.41421 0
      vertex 1.26879 1.54602 200
      vertex 1.41421 1.41421 200
    endloop
  endfacet
  facet normal 0.671584 0.740928 0
    outer loop
      vertex 1.26879 1.54602 200
      vertex 1.41421 1.41421 0
      vertex 1.26879 1.54602 0
    endloop
  endfacet
  facet normal 0.595695 0.80321 -0
    outer loop
      vertex 1.26879 1.54602 0
      vertex 1.11114 1.66294 200
      vertex 1.26879 1.54602 200
    endloop
  endfacet
  facet normal 0.595695 0.80321 0
    outer loop
      vertex 1.11114 1.66294 200
      vertex 1.26879 1.54602 0
      vertex 1.11114 1.66294 0
    endloop
  endfacet
  facet normal 0.51409 0.857736 -0
    outer loop
      vertex 1.11114 1.66294 0
      vertex 0.942793 1.76384 200
      vertex 1.11114 1.66294 200
    endloop
  endfacet
  facet normal 0.51409 0.857736 0
    outer loop
      vertex 0.942793 1.76384 200
      vertex 1.11114 1.66294 0
      vertex 0.942793 1.76384 0
    endloop
  endfacet
  facet normal 0.427571 0.903982 -0
    outer loop
      vertex 0.942793 1.76384 0
      vertex 0.765367 1.84776 200
      vertex 0.942793 1.76384 200
    endloop
  endfacet
  facet normal 0.427571 0.903982 0
    outer loop
      vertex 0.765367 1.84776 200
      vertex 0.942793 1.76384 0
      vertex 0.765367 1.84776 0
    endloop
  endfacet
  facet normal 0.336882 0.941547 -0
    outer loop
      vertex 0.765367 1.84776 0
      vertex 0.580569 1.91388 200
      vertex 0.765367 1.84776 200
    endloop
  endfacet
  facet normal 0.336882 0.941547 0
    outer loop
      vertex 0.580569 1.91388 200
      vertex 0.765367 1.84776 0
      vertex 0.580569 1.91388 0
    endloop
  endfacet
  facet normal 0.242982 0.970031 -0
    outer loop
      vertex 0.580569 1.91388 0
      vertex 0.390181 1.96157 200
      vertex 0.580569 1.91388 200
    endloop
  endfacet
  facet normal 0.242982 0.970031 0
    outer loop
      vertex 0.390181 1.96157 200
      vertex 0.580569 1.91388 0
      vertex 0.390181 1.96157 0
    endloop
  endfacet
  facet normal 0.146736 0.989176 -0
    outer loop
      vertex 0.390181 1.96157 0
      vertex 0.196034 1.99037 200
      vertex 0.390181 1.96157 200
    endloop
  endfacet
  facet normal 0.146736 0.989176 0
    outer loop
      vertex 0.196034 1.99037 200
      vertex 0.390181 1.96157 0
      vertex 0.196034 1.99037 0
    endloop
  endfacet
  facet normal 0.049065 0.998796 -0
    outer loop
      vertex 0.196034 1.99037 0
      vertex 0 2 200
      vertex 0.196034 1.99037 200
    endloop
  endfacet
  facet normal 0.049065 0.998796 0
    outer loop
      vertex 0 2 200
      vertex 0.196034 1.99037 0
      vertex 0 2 0
    endloop
  endfacet
  facet normal -0.049065 0.998796 0
    outer loop
      vertex 0 2 0
      vertex -0.196034 1.99037 200
      vertex 0 2 200
    endloop
  endfacet
  facet normal -0.049065 0.998796 0
    outer loop
      vertex -0.196034 1.99037 200
      vertex 0 2 0
      vertex -0.196034 1.99037 0
    endloop
  endfacet
  facet normal -0.146736 0.989176 0
    outer loop
      vertex -0.196034 1.99037 0
      vertex -0.390181 1.96157 200
      vertex -0.196034 1.99037 200
    endloop
  endfacet
  facet normal -0.146736 0.989176 0
    outer loop
      vertex -0.390181 1.96157 200
      vertex -0.196034 1.99037 0
      vertex -0.390181 1.96157 0
    endloop
  endfacet
  facet normal -0.242982 0.970031 0
    outer loop
      vertex -0.390181 1.96157 0
      vertex -0.580569 1.91388 200
      vertex -0.390181 1.96157 200
    endloop
  endfacet
  facet normal -0.242982 0.970031 0
    outer loop
      vertex -0.580569 1.91388 200
      vertex -0.390181 1.96157 0
      vertex -0.580569 1.91388 0
    endloop
  endfacet
  facet normal -0.336882 0.941547 0
    outer loop
      vertex -0.580569 1.91388 0
      vertex -0.765367 1.84776 200
      vertex -0.580569 1.91388 200
    endloop
  endfacet
  facet normal -0.336882 0.941547 0
    outer loop
      vertex -0.765367 1.84776 200
      vertex -0.580569 1.91388 0
      vertex -0.765367 1.84776 0
    endloop
  endfacet
  facet normal -0.427571 0.903982 0
    outer loop
      vertex -0.765367 1.84776 0
      vertex -0.942793 1.76384 200
      vertex -0.765367 1.84776 200
    endloop
  endfacet
  facet normal -0.427571 0.903982 0
    outer loop
      vertex -0.942793 1.76384 200
      vertex -0.765367 1.84776 0
      vertex -0.942793 1.76384 0
    endloop
  endfacet
  facet normal -0.51409 0.857736 0
    outer loop
      vertex -0.942793 1.76384 0
      vertex -1.11114 1.66294 200
      vertex -0.942793 1.76384 200
    endloop
  endfacet
  facet normal -0.51409 0.857736 0
    outer loop
      vertex -1.11114 1.66294 200
      vertex -0.942793 1.76384 0
      vertex -1.11114 1.66294 0
    endloop
  endfacet
  facet normal -0.595695 0.80321 0
    outer loop
      vertex -1.11114 1.66294 0
      vertex -1.26879 1.54602 200
      vertex -1.11114 1.66294 200
    endloop
  endfacet
  facet normal -0.595695 0.80321 0
    outer loop
      vertex -1.26879 1.54602 200
      vertex -1.11114 1.66294 0
      vertex -1.26879 1.54602 0
    endloop
  endfacet
  facet normal -0.671584 0.740928 0
    outer loop
      vertex -1.26879 1.54602 0
      vertex -1.41421 1.41421 200
      vertex -1.26879 1.54602 200
    endloop
  endfacet
  facet normal -0.671584 0.740928 0
    outer loop
      vertex -1.41421 1.41421 200
      vertex -1.26879 1.54602 0
      vertex -1.41421 1.41421 0
    endloop
  endfacet
  facet normal -0.740928 0.671584 0
    outer loop
      vertex -1.54602 1.26879 0
      vertex -1.41421 1.41421 200
      vertex -1.41421 1.41421 0
    endloop
  endfacet
  facet normal -0.740928 0.671584 0
    outer loop
      vertex -1.41421 1.41421 200
      vertex -1.54602 1.26879 0
      vertex -1.54602 1.26879 200
    endloop
  endfacet
  facet normal -0.80321 0.595695 0
    outer loop
      vertex -1.66294 1.11114 0
      vertex -1.54602 1.26879 200
      vertex -1.54602 1.26879 0
    endloop
  endfacet
  facet normal -0.80321 0.595695 0
    outer loop
      vertex -1.54602 1.26879 200
      vertex -1.66294 1.11114 0
      vertex -1.66294 1.11114 200
    endloop
  endfacet
  facet normal -0.857736 0.51409 0
    outer loop
      vertex -1.76384 0.942793 0
      vertex -1.66294 1.11114 200
      vertex -1.66294 1.11114 0
    endloop
  endfacet
  facet normal -0.857736 0.51409 0
    outer loop
      vertex -1.66294 1.11114 200
      vertex -1.76384 0.942793 0
      vertex -1.76384 0.942793 200
    endloop
  endfacet
  facet normal -0.903982 0.427571 0
    outer loop
      vertex -1.84776 0.765367 0
      vertex -1.76384 0.942793 200
      vertex -1.76384 0.942793 0
    endloop
  endfacet
  facet normal -0.903982 0.427571 0
    outer loop
      vertex -1.76384 0.942793 200
      vertex -1.84776 0.765367 0
      vertex -1.84776 0.765367 200
    endloop
  endfacet
  facet normal -0.941547 0.336882 0
    outer loop
      vertex -1.91388 0.580569 0
      vertex -1.84776 0.765367 200
      vertex -1.84776 0.765367 0
    endloop
  endfacet
  facet normal -0.941547 0.336882 0
    outer loop
      vertex -1.84776 0.765367 200
      vertex -1.91388 0.580569 0
      vertex -1.91388 0.580569 200
    endloop
  endfacet
  facet normal -0.970031 0.242982 0
    outer loop
      vertex -1.96157 0.390181 0
      vertex -1.91388 0.580569 200
      vertex -1.91388 0.580569 0
    endloop
  endfacet
  facet normal -0.970031 0.242982 0
    outer loop
      vertex -1.91388 0.580569 200
      vertex -1.96157 0.390181 0
      vertex -1.96157 0.390181 200
    endloop
  endfacet
  facet normal -0.989176 0.146736 0
    outer loop
      vertex -1.99037 0.196034 0
      vertex -1.96157 0.390181 200
      vertex -1.96157 0.390181 0
    endloop
  endfacet
  facet normal -0.989176 0.146736 0
    outer loop
      vertex -1.96157 0.390181 200
      vertex -1.99037 0.196034 0
      vertex -1.99037 0.196034 200
    endloop
  endfacet
  facet normal -0.998796 0.049065 0
    outer loop
      vertex -2 -0 0
      vertex -1.99037 0.196034 200
      vertex -1.99037 0.196034 0
    endloop
  endfacet
  facet normal -0.998796 0.049065 0
    outer loop
      vertex -1.99037 0.196034 200
      vertex -2 -0 0
      vertex -2 -0 200
    endloop
  endfacet
  facet normal -0.998796 -0.049065 0
    outer loop
      vertex -1.99037 -0.196034 0
      vertex -2 -0 200
      vertex -2 -0 0
    endloop
  endfacet
  facet normal -0.998796 -0.049065 0
    outer loop
      vertex -2 -0 200
      vertex -1.99037 -0.196034 0
      vertex -1.99037 -0.196034 200
    endloop
  endfacet
  facet normal -0.989176 -0.146736 0
    outer loop
      vertex -1.96157 -0.390181 0
      vertex -1.99037 -0.196034 200
      vertex -1.99037 -0.196034 0
    endloop
  endfacet
  facet normal -0.989176 -0.146736 0
    outer loop
      vertex -1.99037 -0.196034 200
      vertex -1.96157 -0.390181 0
      vertex -1.96157 -0.390181 200
    endloop
  endfacet
  facet normal -0.970031 -0.242982 0
    outer loop
      vertex -1.91388 -0.580569 0
      vertex -1.96157 -0.390181 200
      vertex -1.96157 -0.390181 0
    endloop
  endfacet
  facet normal -0.970031 -0.242982 0
    outer loop
      vertex -1.96157 -0.390181 200
      vertex -1.91388 -0.580569 0
      vertex -1.91388 -0.580569 200
    endloop
  endfacet
  facet normal -0.941547 -0.336882 0
    outer loop
      vertex -1.84776 -0.765367 0
      vertex -1.91388 -0.580569 200
      vertex -1.91388 -0.580569 0
    endloop
  endfacet
  facet normal -0.941547 -0.336882 0
    outer loop
      vertex -1.91388 -0.580569 200
      vertex -1.84776 -0.765367 0
      vertex -1.84776 -0.765367 200
    endloop
  endfacet
  facet normal -0.903982 -0.427571 0
    outer loop
      vertex -1.76384 -0.942793 0
      vertex -1.84776 -0.765367 200
      vertex -1.84776 -0.765367 0
    endloop
  endfacet
  facet normal -0.903982 -0.427571 0
    outer loop
      vertex -1.84776 -0.765367 200
      vertex -1.76384 -0.942793 0
      vertex -1.76384 -0.942793 200
    endloop
  endfacet
  facet normal -0.857736 -0.51409 0
    outer loop
      vertex -1.66294 -1.11114 0
      vertex -1.76384 -0.942793 200
      vertex -1.76384 -0.942793 0
    endloop
  endfacet
  facet normal -0.857736 -0.51409 0
    outer loop
      vertex -1.76384 -0.942793 200
      vertex -1.66294 -1.11114 0
      vertex -1.66294 -1.11114 200
    endloop
  endfacet
  facet normal -0.80321 -0.595695 0
    outer loop
      vertex -1.54602 -1.26879 0
      vertex -1.66294 -1.11114 200
      vertex -1.66294 -1.11114 0
    endloop
  endfacet
  facet normal -0.80321 -0.595695 0
    outer loop
      vertex -1.66294 -1.11114 200
      vertex -1.54602 -1.26879 0
      vertex -1.54602 -1.26879 200
    endloop
  endfacet
  facet normal -0.740928 -0.671584 0
    outer loop
      vertex -1.41421 -1.41421 0
      vertex -1.54602 -1.26879 200
      vertex -1.54602 -1.26879 0
    endloop
  endfacet
  facet normal -0.740928 -0.671584 0
    outer loop
      vertex -1.54602 -1.26879 200
      vertex -1.41421 -1.41421 0
      vertex -1.41421 -1.41421 200
    endloop
  endfacet
  facet normal -0.671584 -0.740928 0
    outer loop
      vertex -1.41421 -1.41421 0
      vertex -1.26879 -1.54602 200
      vertex -1.41421 -1.41421 200
    endloop
  endfacet
  facet normal -0.671584 -0.740928 -0
    outer loop
      vertex -1.26879 -1.54602 200
      vertex -1.41421 -1.41421 0
      vertex -1.26879 -1.54602 0
    endloop
  endfacet
  facet normal -0.595695 -0.80321 0
    outer loop
      vertex -1.26879 -1.54602 0
      vertex -1.11114 -1.66294 200
      vertex -1.26879 -1.54602 200
    endloop
  endfacet
  facet normal -0.595695 -0.80321 -0
    outer loop
      vertex -1.11114 -1.66294 200
      vertex -1.26879 -1.54602 0
      vertex -1.11114 -1.66294 0
    endloop
  endfacet
  facet normal -0.51409 -0.857736 0
    outer loop
      vertex -1.11114 -1.66294 0
      vertex -0.942793 -1.76384 200
      vertex -1.11114 -1.66294 200
    endloop
  endfacet
  facet normal -0.51409 -0.857736 -0
    outer loop
      vertex -0.942793 -1.76384 200
      vertex -1.11114 -1.66294 0
      vertex -0.942793 -1.76384 0
    endloop
  endfacet
  facet normal -0.427571 -0.903982 0
    outer loop
      vertex -0.942793 -1.76384 0
      vertex -0.765367 -1.84776 200
      vertex -0.942793 -1.76384 200
    endloop
  endfacet
  facet normal -0.427571 -0.903982 -0
    outer loop
      vertex -0.765367 -1.84776 200
      vertex -0.942793 -1.76384 0
      vertex -0.765367 -1.84776 0
    endloop
  endfacet
  facet normal -0.336882 -0.941547 0
    outer loop
      vertex -0.765367 -1.84776 0
      vertex -0.580569 -1.91388 200
      vertex -0.765367 -1.84776 200
    endloop
  endfacet
  facet normal -0.336882 -0.941547 -0
    outer loop
      vertex -0.580569 -1.91388 200
      vertex -0.765367 -1.84776 0
      vertex -0.580569 -1.91388 0
    endloop
  endfacet
  facet normal -0.242982 -0.970031 0
    outer loop
      vertex -0.580569 -1.91388 0
      vertex -0.390181 -1.96157 200
      vertex -0.580569 -1.91388 200
    endloop
  endfacet
  facet normal -0.242982 -0.970031 -0
    outer loop
      vertex -0.390181 -1.96157 200
      vertex -0.580569 -1.91388 0
      vertex -0.390181 -1.96157 0
    endloop
  endfacet
  facet normal -0.146736 -0.989176 0
    outer loop
      vertex -0.390181 -1.96157 0
      vertex -0.196034 -1.99037 200
      vertex -0.390181 -1.96157 200
    endloop
  endfacet
  facet normal -0.146736 -0.989176 -0
    outer loop
      vertex -0.196034 -1.99037 200
      vertex -0.390181 -1.96157 0
      vertex -0.196034 -1.99037 0
    endloop
  endfacet
  facet normal -0.049065 -0.998796 0
    outer loop
      vertex -0.196034 -1.99037 0
      vertex -0 -2 200
      vertex -0.196034 -1.99037 200
    endloop
  endfacet
  facet normal -0.049065 -0.998796 -0
    outer loop
      vertex -0 -2 200
      vertex -0.196034 -1.99037 0
      vertex -0 -2 0
    endloop
  endfacet
  facet normal 0.049065 -0.998796 0
    outer loop
      vertex -0 -2 0
      vertex 0.196034 -1.99037 200
      vertex -0 -2 200
    endloop
  endfacet
  facet normal 0.049065 -0.998796 0
    outer loop
      vertex 0.196034 -1.99037 200
      vertex -0 -2 0
      vertex 0.196034 -1.99037 0
    endloop
  endfacet
  facet normal 0.146736 -0.989176 0
    outer loop
      vertex 0.196034 -1.99037 0
      vertex 0.390181 -1.96157 200
      vertex 0.196034 -1.99037 200
    endloop
  endfacet
  facet normal 0.146736 -0.989176 0
    outer loop
      vertex 0.390181 -1.96157 200
      vertex 0.196034 -1.99037 0
      vertex 0.390181 -1.96157 0
    endloop
  endfacet
  facet normal 0.242982 -0.970031 0
    outer loop
      vertex 0.390181 -1.96157 0
      vertex 0.580569 -1.91388 200
      vertex 0.390181 -1.96157 200
    endloop
  endfacet
  facet normal 0.242982 -0.970031 0
    outer loop
      vertex 0.580569 -1.91388 200
      vertex 0.390181 -1.96157 0
      vertex 0.580569 -1.91388 0
    endloop
  endfacet
  facet normal 0.336882 -0.941547 0
    outer loop
      vertex 0.580569 -1.91388 0
      vertex 0.765367 -1.84776 200
      vertex 0.580569 -1.91388 200
    endloop
  endfacet
  facet normal 0.336882 -0.941547 0
    outer loop
      vertex 0.765367 -1.84776 200
      vertex 0.580569 -1.91388 0
      vertex 0.765367 -1.84776 0
    endloop
  endfacet
  facet normal 0.427571 -0.903982 0
    outer loop
      vertex 0.765367 -1.84776 0
      vertex 0.942793 -1.76384 200
      vertex 0.765367 -1.84776 200
    endloop
  endfacet
  facet normal 0.427571 -0.903982 0
    outer loop
      vertex 0.942793 -1.76384 200
      vertex 0.765367 -1.84776 0
      vertex 0.942793 -1.76384 0
    endloop
  endfacet
  facet normal 0.51409 -0.857736 0
    outer loop
      vertex 0.942793 -1.76384 0
      vertex 1.11114 -1.66294 200
      vertex 0.942793 -1.76384 200
    endloop
  endfacet
  facet normal 0.51409 -0.857736 0
    outer loop
      vertex 1.11114 -1.66294 200
      vertex 0.942793 -1.76384 0
      vertex 1.11114 -1.66294 0
    endloop
  endfacet
  facet normal 0.595695 -0.80321 0
    outer loop
      vertex 1.11114 -1.66294 0
      vertex 1.26879 -1.54602 200
      vertex 1.11114 -1.66294 200
    endloop
  endfacet
  facet normal 0.595695 -0.80321 0
    outer loop
      vertex 1.26879 -1.54602 200
      vertex 1.11114 -1.66294 0
      vertex 1.26879 -1.54602 0
    endloop
  endfacet
  facet normal 0.671584 -0.740928 0
    outer loop
      vertex 1.26879 -1.54602 0
      vertex 1.41421 -1.41421 200
      vertex 1.26879 -1.54602 200
    endloop
  endfacet
  facet normal 0.671584 -0.740928 0
    outer loop
      vertex 1.41421 -1.41421 200
      vertex 1.26879 -1.54602 0
      vertex 1.41421 -1.41421 0
    endloop
  endfacet
  facet normal 0.740928 -0.671584 0
    outer loop
      vertex 1.41421 -1.41421 200
      vertex 1.54602 -1.26879 0
      vertex 1.54602 -1.26879 200
    endloop
  endfacet
  facet normal 0.740928 -0.671584 0
    outer loop
      vertex 1.54602 -1.26879 0
      vertex 1.41421 -1.41421 200
      vertex 1.41421 -1.41421 0
    endloop
  endfacet
  facet normal 0.80321 -0.595695 0
    outer loop
      vertex 1.54602 -1.26879 200
      vertex 1.66294 -1.11114 0
      vertex 1.66294 -1.11114 200
    endloop
  endfacet
  facet normal 0.80321 -0.595695 0
    outer loop
      vertex 1.66294 -1.11114 0
      vertex 1.54602 -1.26879 200
      vertex 1.54602 -1.26879 0
    endloop
  endfacet
  facet normal 0.857736 -0.51409 0
    outer loop
      vertex 1.66294 -1.11114 200
      vertex 1.76384 -0.942793 0
      vertex 1.76384 -0.942793 200
    endloop
  endfacet
  facet normal 0.857736 -0.51409 0
    outer loop
      vertex 1.76384 -0.942793 0
      vertex 1.66294 -1.11114 200
      vertex 1.66294 -1.11114 0
    endloop
  endfacet
  facet normal 0.903982 -0.427571 0
    outer loop
      vertex 1.76384 -0.942793 200
      vertex 1.84776 -0.765367 0
      vertex 1.84776 -0.765367 200
    endloop
  endfacet
  facet normal 0.903982 -0.427571 0
    outer loop
      vertex 1.84776 -0.765367 0
      vertex 1.76384 -0.942793 200
      vertex 1.76384 -0.942793 0
    endloop
  endfacet
  facet normal 0.941547 -0.336882 0
    outer loop
      vertex 1.84776 -0.765367 200
      vertex 1.91388 -0.580569 0
      vertex 1.91388 -0.580569 200
    endloop
  endfacet
  facet normal 0.941547 -0.336882 0
    outer loop
      vertex 1.91388 -0.580569 0
      vertex 1.84776 -0.765367 200
      vertex 1.84776 -0.765367 0
    endloop
  endfacet
  facet normal 0.970031 -0.242982 0
    outer loop
      vertex 1.91388 -0.580569 200
      vertex 1.96157 -0.390181 0
      vertex 1.96157 -0.390181 200
    endloop
  endfacet
  facet normal 0.970031 -0.242982 0
    outer loop
      vertex 1.96157 -0.390181 0
      vertex 1.91388 -0.580569 200
      vertex 1.91388 -0.580569 0
    endloop
  endfacet
  facet normal 0.989176 -0.146736 0
    outer loop
      vertex 1.96157 -0.390181 200
      vertex 1.99037 -0.196034 0
      vertex 1.99037 -0.196034 200
    endloop
  endfacet
  facet normal 0.989176 -0.146736 0
    outer loop
      vertex 1.99037 -0.196034 0
      vertex 1.96157 -0.390181 200
      vertex 1.96157 -0.390181 0
    endloop
  endfacet
  facet normal 0.998796 -0.049065 0
    outer loop
      vertex 1.99037 -0.196034 200
      vertex 2 0 0
      vertex 2 0 200
    endloop
  endfacet
  facet normal 0.998796 -0.049065 0
    outer loop
      vertex 2 0 0
      vertex 1.99037 -0.196034 200
      vertex 1.99037 -0.196034 0
    endloop
  endfacet
  facet normal 0 0 -1
    outer loop
      vertex 1.99037 -0.196034 0
      vertex 1.99037 0.196034 0
      vertex 2 0 0
    endloop
  endfacet
  facet normal 0 0 -1
    outer loop
      vertex 1.96157 -0.390181 0
      vertex 1.99037 0.196034 0
      vertex 1.99037 -0.196034 0
    endloop
  endfacet
  facet normal 0 0 -1
    outer loop
      vertex 1.96157 -0.390181 0
      vertex 1.96157 0.390181 0
      vertex 1.99037 0.196034 0
    endloop
  endfacet
  facet normal 0 0 -1
    outer loop
      vertex 1.91388 -0.580569 0
      vertex 1.96157 0.390181 0
      vertex 1.96157 -0.390181 0
    endloop
  endfacet
  facet normal 0 0 -1
    outer loop
      vertex 1.91388 -0.580569 0
      vertex 1.91388 0.580569 0
      vertex 1.96157 0.390181 0
    endloop
  endfacet
  facet normal 0 0 -1
    outer loop
      vertex 1.84776 -0.765367 0
      vertex 1.91388 0.580569 0
      vertex 1.91388 -0.580569 0
    endloop
  endfacet
  facet normal 0 0 -1
    outer loop
      vertex 1.84776 -0.765367 0
      vertex 1.84776 0.765367 0
      vertex 1.91388 0.580569 0
    endloop
  endfacet
  facet normal 0 0 -1
    outer loop
      vertex 1.76384 -0.942793 0
      vertex 1.84776 0.765367 0
      vertex 1.84776 -0.765367 0
    endloop
  endfacet
  facet normal 0 0 -1
    outer loop
      vertex 1.76384 -0.942793 0
      vertex 1.76384 0.942793 0
      vertex 1.84776 0.765367 0
    endloop
  endfacet
  facet normal 0 0 -1
    outer loop
      vertex 1.66294 -1.11114 0
      vertex 1.76384 0.942793 0
      vertex 1.76384 -0.942793 0
    endloop
  endfacet
  facet normal 0 0 -1
    outer loop
      vertex 1.66294 -1.11114 0
      vertex 1.66294 1.11114 0
      vertex 1.76384 0.942793 0
    endloop
  endfacet
  facet normal 0 0 -1
    outer loop
      vertex 1.54602 -1.26879 0
      vertex 1.66294 1.11114 0
      vertex 1.66294 -1.11114 0
    endloop
  endfacet
  facet normal 0 0 -1
    outer loop
      vertex 1.54602 -1.26879 0
      vertex 1.54602 1.26879 0
      vertex 1.66294 1.11114 0
    endloop
  endfacet
  facet normal 0 0 -1
    outer loop
      vertex 1.41421 -1.41421 0
      vertex 1.54602 1.26879 0
      vertex 1.54602 -1.26879 0
    endloop
  endfacet
  facet normal 0 0 -1
    outer loop
      vertex 1.41421 -1.41421 0
      vertex 1.41421 1.41421 0
      vertex 1.54602 1.26879 0
    endloop
  endfacet
  facet normal 0 0 -1
    outer loop
      vertex 1.26879 -1.54602 0
      vertex 1.41421 1.41421 0
      vertex 1.41421 -1.41421 0
    endloop
  endfacet
  facet normal 0 0 -1
    outer loop
      vertex 1.26879 -1.54602 0
      vertex 1.26879 1.54602 0
      vertex 1.41421 1.41421 0
    endloop
  endfacet
  facet normal 0 0 -1
    outer loop
      vertex 1.11114 -1.66294 0
      vertex 1.26879 1.54602 0
      vertex 1.26879 -1.54602 0
    endloop
  endfacet
  facet normal 0 0 -1
    outer loop
      vertex 1.11114 -1.66294 0
      vertex 1.11114 1.66294 0
      vertex 1.26879 1.54602 0
    endloop
  endfacet
  facet normal 0 0 -1
    outer loop
      vertex 0.942793 -1.76384 0
      vertex 1.11114 1.66294 0
      vertex 1.11114 -1.66294 0
    endloop
  endfacet
  facet normal 0 0 -1
    outer loop
      vertex 0.942793 -1.76384 0
      vertex 0.942793 1.76384 0
      vertex 1.11114 1.66294 0
    endloop
  endfacet
  facet normal 0 0 -1
    outer loop
      vertex 0.765367 -1.84776 0
      vertex 0.942793 1.76384 0
      vertex 0.942793 -1.76384 0
    endloop
  endfacet
  facet normal 0 0 -1
    outer loop
      vertex 0.765367 -1.84776 0
      vertex 0.765367 1.84776 0
      vertex 0.942793 1.76384 0
    endloop
  endfacet
  facet normal 0 0 -1
    outer loop
      vertex 0.580569 -1.91388 0
      vertex 0.765367 1.84776 0
      vertex 0.765367 -1.84776 0
    endloop
  endfacet
  facet normal 0 0 -1
    outer loop
      vertex 0.580569 -1.91388 0
      vertex 0.580569 1.91388 0
      vertex 0.765367 1.84776 0
    endloop
  endfacet
  facet normal 0 0 -1
    outer loop
      vertex 0.390181 -1.96157 0
      vertex 0.580569 1.91388 0
      vertex 0.580569 -1.91388 0
    endloop
  endfacet
  facet normal 0 0 -1
    outer loop
      vertex 0.390181 -1.96157 0
      vertex 0.390181 1.96157 0
      vertex 0.580569 1.91388 0
    endloop
  endfacet
  facet normal 0 0 -1
    outer loop
      vertex 0.196034 -1.99037 0
      vertex 0.390181 1.96157 0
      vertex 0.390181 -1.96157 0
    endloop
  endfacet
  facet normal 0 0 -1
    outer loop
      vertex 0.196034 -1.99037 0
      vertex 0.196034 1.99037 0
      vertex 0.390181 1.96157 0
    endloop
  endfacet
  facet normal 0 0 -1
    outer loop
      vertex -0 -2 0
      vertex 0.196034 1.99037 0
      vertex 0.196034 -1.99037 0
    endloop
  endfacet
  facet normal 0 0 -1
    outer loop
      vertex -0 -2 0
      vertex 0 2 0
      vertex 0.196034 1.99037 0
    endloop
  endfacet
  facet normal 0 0 -1
    outer loop
      vertex -0.196034 -1.99037 0
      vertex 0 2 0
      vertex -0 -2 0
    endloop
  endfacet
  facet normal 0 0 -1
    outer loop
      vertex -0.196034 -1.99037 0
      vertex -0.196034 1.99037 0
      vertex 0 2 0
    endloop
  endfacet
  facet normal 0 0 -1
    outer loop
      vertex -0.390181 -1.96157 0
      vertex -0.196034 1.99037 0
      vertex -0.196034 -1.99037 0
    endloop
  endfacet
  facet normal 0 0 -1
    outer loop
      vertex -0.390181 -1.96157 0
      vertex -0.390181 1.96157 0
      vertex -0.196034 1.99037 0
    endloop
  endfacet
  facet normal 0 0 -1
    outer loop
      vertex -0.580569 -1.91388 0
      vertex -0.390181 1.96157 0
      vertex -0.390181 -1.96157 0
    endloop
  endfacet
  facet normal 0 0 -1
    outer loop
      vertex -0.580569 -1.91388 0
      vertex -0.580569 1.91388 0
      vertex -0.390181 1.96157 0
    endloop
  endfacet
  facet normal 0 0 -1
    outer loop
      vertex -0.765367 -1.84776 0
      vertex -0.580569 1.91388 0
      vertex -0.580569 -1.91388 0
    endloop
  endfacet
  facet normal 0 0 -1
    outer loop
      vertex -0.765367 -1.84776 0
      vertex -0.765367 1.84776 0
      vertex -0.580569 1.91388 0
    endloop
  endfacet
  facet normal 0 0 -1
    outer loop
      vertex -0.942793 -1.76384 0
      vertex -0.765367 1.84776 0
      vertex -0.765367 -1.84776 0
    endloop
  endfacet
  facet normal 0 0 -1
    outer loop
      vertex -0.942793 -1.76384 0
      vertex -0.942793 1.76384 0
      vertex -0.765367 1.84776 0
    endloop
  endfacet
  facet normal 0 0 -1
    outer loop
      vertex -1.11114 -1.66294 0
      vertex -0.942793 1.76384 0
      vertex -0.942793 -1.76384 0
    endloop
  endfacet
  facet normal 0 0 -1
    outer loop
      vertex -1.11114 -1.66294 0
      vertex -1.11114 1.66294 0
      vertex -0.942793 1.76384 0
    endloop
  endfacet
  facet normal 0 0 -1
    outer loop
      vertex -1.26879 -1.54602 0
      vertex -1.11114 1.66294 0
      vertex -1.11114 -1.66294 0
    endloop
  endfacet
  facet normal 0 0 -1
    outer loop
      vertex -1.26879 -1.54602 0
      vertex -1.26879 1.54602 0
      vertex -1.11114 1.66294 0
    endloop
  endfacet
  facet normal 0 0 -1
    outer loop
      vertex -1.41421 -1.41421 0
      vertex -1.26879 1.54602 0
      vertex -1.26879 -1.54602 0
    endloop
  endfacet
  facet normal 0 0 -1
    outer loop
      vertex -1.41421 -1.41421 0
      vertex -1.41421 1.41421 0
      vertex -1.26879 1.54602 0
    endloop
  endfacet
  facet normal 0 0 -1
    outer loop
      vertex -1.54602 -1.26879 0
      vertex -1.41421 1.41421 0
      vertex -1.41421 -1.41421 0
    endloop
  endfacet
  facet normal 0 0 -1
    outer loop
      vertex -1.54602 -1.26879 0
      vertex -1.54602 1.26879 0
      vertex -1.41421 1.41421 0
    endloop
  endfacet
  facet normal 0 0 -1
    outer loop
      vertex -1.66294 -1.11114 0
      vertex -1.54602 1.26879 0
      vertex -1.54602 -1.26879 0
    endloop
  endfacet
  facet normal 0 0 -1
    outer loop
      vertex -1.66294 -1.11114 0
      vertex -1.66294 1.11114 0
      vertex -1.54602 1.26879 0
    endloop
  endfacet
  facet normal 0 0 -1
    outer loop
      vertex -1.76384 -0.942793 0
      vertex -1.66294 1.11114 0
      vertex -1.66294 -1.11114 0
    endloop
  endfacet
  facet normal 0 0 -1
    outer loop
      vertex -1.76384 -0.942793 0
      vertex -1.76384 0.942793 0
      vertex -1.66294 1.11114 0
    endloop
  endfacet
  facet normal 0 0 -1
    outer loop
      vertex -1.84776 -0.765367 0
      vertex -1.76384 0.942793 0
      vertex -1.76384 -0.942793 0
    endloop
  endfacet
  facet normal 0 0 -1
    outer loop
      vertex -1.84776 -0.765367 0
      vertex -1.84776 0.765367 0
      vertex -1.76384 0.942793 0
    endloop
  endfacet
  facet normal 0 0 -1
    outer loop
      vertex -1.91388 -0.580569 0
      vertex -1.84776 0.765367 0
      vertex -1.84776 -0.765367 0
    endloop
  endfacet
  facet normal 0 0 -1
    outer loop
      vertex -1.91388 -0.580569 0
      vertex -1.91388 0.580569 0
      vertex -1.84776 0.765367 0
    endloop
  endfacet
  facet normal 0 0 -1
    outer loop
      vertex -1.96157 -0.390181 0
      vertex -1.91388 0.580569 0
      vertex -1.91388 -0.580569 0
    endloop
  endfacet
  facet normal 0 0 -1
    outer loop
      vertex -1.96157 -0.390181 0
      vertex -1.96157 0.390181 0
      vertex -1.91388 0.580569 0
    endloop
  endfacet
  facet normal 0 0 -1
    outer loop
      vertex -1.99037 -0.196034 0
      vertex -1.96157 0.390181 0
      vertex -1.96157 -0.390181 0
    endloop
  endfacet
  facet normal 0 0 -1
    outer loop
      vertex -1.99037 -0.196034 0
      vertex -1.99037 0.196034 0
      vertex -1.96157 0.390181 0
    endloop
  endfacet
  facet normal 0 -0 -1
    outer loop
      vertex -1.99037 0.196034 0
      vertex -1.99037 -0.196034 0
      vertex -2 -0 0
    endloop
  endfacet
  facet normal 0 0 1
    outer loop
      vertex 1.99037 0.196034 200
      vertex 1.99037 -0.196034 200
      vertex 2 0 200
    endloop
  endfacet
  facet normal 0 0 1
    outer loop
      vertex 1.96157 0.390181 200
      vertex 1.99037 -0.196034 200
      vertex 1.99037 0.196034 200
    endloop
  endfacet
  facet normal 0 0 1
    outer loop
      vertex 1.96157 0.390181 200
      vertex 1.96157 -0.390181 200
      vertex 1.99037 -0.196034 200
    endloop
  endfacet
  facet normal 0 0 1
    outer loop
      vertex 1.91388 0.580569 200
      vertex 1.96157 -0.390181 200
      vertex 1.96157 0.390181 200
    endloop
  endfacet
  facet normal 0 0 1
    outer loop
      vertex 1.91388 0.580569 200
      vertex 1.91388 -0.580569 200
      vertex 1.96157 -0.390181 200
    endloop
  endfacet
  facet normal 0 0 1
    outer loop
      vertex 1.84776 0.765367 200
      vertex 1.91388 -0.580569 200
      vertex 1.91388 0.580569 200
    endloop
  endfacet
  facet normal 0 0 1
    outer loop
      vertex 1.84776 0.765367 200
      vertex 1.84776 -0.765367 200
      vertex 1.91388 -0.580569 200
    endloop
  endfacet
  facet normal 0 0 1
    outer loop
      vertex 1.76384 0.942793 200
      vertex 1.84776 -0.765367 200
      vertex 1.84776 0.765367 200
    endloop
  endfacet
  facet normal 0 0 1
    outer loop
      vertex 1.76384 0.942793 200
      vertex 1.76384 -0.942793 200
      vertex 1.84776 -0.765367 200
    endloop
  endfacet
  facet normal 0 0 1
    outer loop
      vertex 1.66294 1.11114 200
      vertex 1.76384 -0.942793 200
      vertex 1.76384 0.942793 200
    endloop
  endfacet
  facet normal 0 0 1
    outer loop
      vertex 1.66294 1.11114 200
      vertex 1.66294 -1.11114 200
      vertex 1.76384 -0.942793 200
    endloop
  endfacet
  facet normal 0 0 1
    outer loop
      vertex 1.54602 1.26879 200
      vertex 1.66294 -1.11114 200
      vertex 1.66294 1.11114 200
    endloop
  endfacet
  facet normal 0 0 1
    outer loop
      vertex 1.54602 1.26879 200
      vertex 1.54602 -1.26879 200
      vertex 1.66294 -1.11114 200
    endloop
  endfacet
  facet normal 0 0 1
    outer loop
      vertex 1.41421 1.41421 200
      vertex 1.54602 -1.26879 200
      vertex 1.54602 1.26879 200
    endloop
  endfacet
  facet normal 0 0 1
    outer loop
      vertex 1.41421 1.41421 200
      vertex 1.41421 -1.41421 200
      vertex 1.54602 -1.26879 200
    endloop
  endfacet
  facet normal 0 0 1
    outer loop
      vertex 1.26879 1.54602 200
      vertex 1.41421 -1.41421 200
      vertex 1.41421 1.41421 200
    endloop
  endfacet
  facet normal 0 0 1
    outer loop
      vertex 1.26879 1.54602 200
      vertex 1.26879 -1.54602 200
      vertex 1.41421 -1.41421 200
    endloop
  endfacet
  facet normal 0 0 1
    outer loop
      vertex 1.11114 1.66294 200
      vertex 1.26879 -1.54602 200
      vertex 1.26879 1.54602 200
    endloop
  endfacet
  facet normal 0 0 1
    outer loop
      vertex 1.11114 1.66294 200
      vertex 1.11114 -1.66294 200
      vertex 1.26879 -1.54602 200
    endloop
  endfacet
  facet normal 0 0 1
    outer loop
      vertex 0.942793 1.76384 200
      vertex 1.11114 -1.66294 200
      vertex 1.11114 1.66294 200
    endloop
  endfacet
  facet normal 0 0 1
    outer loop
      vertex 0.942793 1.76384 200
      vertex 0.942793 -1.76384 200
      vertex 1.11114 -1.66294 200
    endloop
  endfacet
  facet normal 0 0 1
    outer loop
      vertex 0.765367 1.84776 200
      vertex 0.942793 -1.76384 200
      vertex 0.942793 1.76384 200
    endloop
  endfacet
  facet normal 0 0 1
    outer loop
      vertex 0.765367 1.84776 200
      vertex 0.765367 -1.84776 200
      vertex 0.942793 -1.76384 200
    endloop
  endfacet
  facet normal 0 0 1
    outer loop
      vertex 0.580569 1.91388 200
      vertex 0.765367 -1.84776 200
      vertex 0.765367 1.84776 200
    endloop
  endfacet
  facet normal 0 0 1
    outer loop
      vertex 0.580569 1.91388 200
      vertex 0.580569 -1.91388 200
      vertex 0.765367 -1.84776 200
    endloop
  endfacet
  facet normal 0 0 1
    outer loop
      vertex 0.390181 1.96157 200
      vertex 0.580569 -1.91388 200
      vertex 0.580569 1.91388 200
    endloop
  endfacet
  facet normal 0 0 1
    outer loop
      vertex 0.390181 1.96157 200
      vertex 0.390181 -1.96157 200
      vertex 0.580569 -1.91388 200
    endloop
  endfacet
  facet normal 0 0 1
    outer loop
      vertex 0.196034 1.99037 200
      vertex 0.390181 -1.96157 200
      vertex 0.390181 1.96157 200
    endloop
  endfacet
  facet normal 0 0 1
    outer loop
      vertex 0.196034 1.99037 200
      vertex 0.196034 -1.99037 200
      vertex 0.390181 -1.96157 200
    endloop
  endfacet
  facet normal 0 0 1
    outer loop
      vertex 0 2 200
      vertex 0.196034 -1.99037 200
      vertex 0.196034 1.99037 200
    endloop
  endfacet
  facet normal 0 0 1
    outer loop
      vertex 0 2 200
      vertex -0 -2 200
      vertex 0.196034 -1.99037 200
    endloop
  endfacet
  facet normal -0 0 1
    outer loop
      vertex -0.196034 1.99037 200
      vertex -0 -2 200
      vertex 0 2 200
    endloop
  endfacet
  facet normal 0 0 1
    outer loop
      vertex -0.196034 1.99037 200
      vertex -0.196034 -1.99037 200
      vertex -0 -2 200
    endloop
  endfacet
  facet normal -0 0 1
    outer loop
      vertex -0.390181 1.96157 200
      vertex -0.196034 -1.99037 200
      vertex -0.196034 1.99037 200
    endloop
  endfacet
  facet normal 0 0 1
    outer loop
      vertex -0.390181 1.96157 200
      vertex -0.390181 -1.96157 200
      vertex -0.196034 -1.99037 200
    endloop
  endfacet
  facet normal -0 0 1
    outer loop
      vertex -0.580569 1.91388 200
      vertex -0.390181 -1.96157 200
      vertex -0.390181 1.96157 200
    endloop
  endfacet
  facet normal 0 0 1
    outer loop
      vertex -0.580569 1.91388 200
      vertex -0.580569 -1.91388 200
      vertex -0.390181 -1.96157 200
    endloop
  endfacet
  facet normal -0 0 1
    outer loop
      vertex -0.765367 1.84776 200
      vertex -0.580569 -1.91388 200
      vertex -0.580569 1.91388 200
    endloop
  endfacet
  facet normal 0 0 1
    outer loop
      vertex -0.765367 1.84776 200
      vertex -0.765367 -1.84776 200
      vertex -0.580569 -1.91388 200
    endloop
  endfacet
  facet normal -0 0 1
    outer loop
      vertex -0.942793 1.76384 200
      vertex -0.765367 -1.84776 200
      vertex -0.765367 1.84776 200
    endloop
  endfacet
  facet normal 0 0 1
    outer loop
      vertex -0.942793 1.76384 200
      vertex -0.942793 -1.76384 200
      vertex -0.765367 -1.84776 200
    endloop
  endfacet
  facet normal -0 0 1
    outer loop
      vertex -1.11114 1.66294 200
      vertex -0.942793 -1.76384 200
      vertex -0.942793 1.76384 200
    endloop
  endfacet
  facet normal 0 0 1
    outer loop
      vertex -1.11114 1.66294 200
      vertex -1.11114 -1.66294 200
      vertex -0.942793 -1.76384 200
    endloop
  endfacet
  facet normal -0 0 1
    outer loop
      vertex -1.26879 1.54602 200
      vertex -1.11114 -1.66294 200
      vertex -1.11114 1.66294 200
    endloop
  endfacet
  facet normal 0 0 1
    outer loop
      vertex -1.26879 1.54602 200
      vertex -1.26879 -1.54602 200
      vertex -1.11114 -1.66294 200
    endloop
  endfacet
  facet normal -0 0 1
    outer loop
      vertex -1.41421 1.41421 200
      vertex -1.26879 -1.54602 200
      vertex -1.26879 1.54602 200
    endloop
  endfacet
  facet normal 0 0 1
    outer loop
      vertex -1.41421 1.41421 200
      vertex -1.41421 -1.41421 200
      vertex -1.26879 -1.54602 200
    endloop
  endfacet
  facet normal -0 0 1
    outer loop
      vertex -1.54602 1.26879 200
      vertex -1.41421 -1.41421 200
      vertex -1.41421 1.41421 200
    endloop
  endfacet
  facet normal 0 0 1
    outer loop
      vertex -1.54602 1.26879 200
      vertex -1.54602 -1.26879 200
      vertex -1.41421 -1.41421 200
    endloop
  endfacet
  facet normal -0 0 1
    outer loop
      vertex -1.66294 1.11114 200
      vertex -1.54602 -1.26879 200
      vertex -1.54602 1.26879 200
    endloop
  endfacet
  facet normal 0 0 1
    outer loop
      vertex -1.66294 1.11114 200
      vertex -1.66294 -1.11114 200
      vertex -1.54602 -1.26879 200
    endloop
  endfacet
  facet normal -0 0 1
    outer loop
      vertex -1.76384 0.942793 200
      vertex -1.66294 -1.11114 200
      vertex -1.66294 1.11114 200
    endloop
  endfacet
  facet normal 0 0 1
    outer loop
      vertex -1.76384 0.942793 200
      vertex -1.76384 -0.942793 200
      vertex -1.66294 -1.11114 200
    endloop
  endfacet
  facet normal -0 0 1
    outer loop
      vertex -1.84776 0.765367 200
      vertex -1.76384 -0.942793 200
      vertex -1.76384 0.942793 200
    endloop
  endfacet
  facet normal 0 0 1
    outer loop
      vertex -1.84776 0.765367 200
      vertex -1.84776 -0.765367 200
      vertex -1.76384 -0.942793 200
    endloop
  endfacet
  facet normal -0 0 1
    outer loop
      vertex -1.91388 0.580569 200
      vertex -1.84776 -0.765367 200
      vertex -1.84776 0.765367 200
    endloop
  endfacet
  facet normal 0 0 1
    outer loop
      vertex -1.91388 0.580569 200
      vertex -1.91388 -0.580569 200
      vertex -1.84776 -0.765367 200
    endloop
  endfacet
  facet normal -0 0 1
    outer loop
      vertex -1.96157 0.390181 200
      vertex -1.91388 -0.580569 200
      vertex -1.91388 0.580569 200
    endloop
  endfacet
  facet normal 0 0 1
    outer loop
      vertex -1.96157 0.390181 200
      vertex -1.96157 -0.390181 200
      vertex -1.91388 -0.580569 200
    endloop
  endfacet
  facet normal -0 0 1
    outer loop
      vertex -1.99037 0.196034 200
      vertex -1.96157 -0.390181 200
      vertex -1.96157 0.390181 200
    endloop
  endfacet
  facet normal 0 0 1
    outer loop
      vertex -1.99037 0.196034 200
      vertex -1.99037 -0.196034 200
      vertex -1.96157 -0.390181 200
    endloop
  endfacet
  facet normal 0 -0 1
    outer loop
      vertex -1.99037 -0.196034 200
      vertex -1.99037 0.196034 200
      vertex -2 -0 200
    endloop
  endfacet
endsolid OpenSCAD_Model
